<?xml version="1.0" encoding="UTF-8"?>
<svg width="512px" height="512px" viewBox="0 0 512 512" version="1.1" xmlns="http://www.w3.org/2000/svg" xmlns:xlink="http://www.w3.org/1999/xlink">
    <title>Artboard</title>
    <g id="Artboard" stroke="none" stroke-width="1" fill="none" fill-rule="evenodd">
        <g id="alert" fill="#FFA539" fill-rule="nonzero">
            <path d="M256,0 C114.8416,0 0,114.8432 0,256.0016 C0,397.16 114.8416,512 256,512 C397.1584,512 512,397.16 512,256.0016 C512,114.8432 397.1584,0 256,0 Z M256,465.4544 C140.5056,465.4544 46.54544,371.4944 46.54544,256.0016 C46.54544,140.508 140.5056,46.54544 256,46.54544 C371.4944,46.54544 465.4544,140.508 465.4544,256.0016 C465.4544,371.4944 371.4936,465.4544 256,465.4544 Z" id="Shape"></path>
            <path d="M256,109 C238.906034,109 225,122.912757 225,140.013587 C225,157.099232 238.906034,171 256,171 C273.093966,171 287,157.099232 287,140.013587 C287,122.912757 273.093966,109 256,109 Z" id="Path"></path>
            <path d="M256.500404,217 C243.521906,217 233,227.409836 233,240.2501 L233,379.7499 C233,392.590164 243.521906,403 256.500404,403 C269.478094,403 280,392.590164 280,379.7499 L280,240.2501 C280,227.409836 269.478094,217 256.500404,217 Z" id="Path"></path>
        </g>
    </g>
</svg>