<svg width="40" height="40" viewBox="0 0 40 40" fill="none" xmlns="http://www.w3.org/2000/svg">
<rect width="40" height="40" rx="20" fill="#102637" fill-opacity="0.4"/>
<g clip-path="url(#clip0_303_100)">
<path fill-rule="evenodd" clip-rule="evenodd" d="M20 9.15552C20.1097 9.15552 20.2886 9.18995 20.5222 9.25231L20.7734 9.32373C20.8181 9.33711 20.8642 9.3512 20.9116 9.36597L21.2113 9.46261C21.2636 9.48001 21.3172 9.49803 21.3719 9.51664L21.7128 9.63524L22.2669 9.83673L22.8627 10.0622L23.4892 10.3068L24.3534 10.6542L25.2266 11.0153L26.0829 11.3785L26.8962 11.7323L27.4624 11.9845L27.9789 12.22L28.4346 12.4339L28.8187 12.6214L29.0295 12.7292L29.2004 12.8217C29.3002 12.8779 29.3712 12.9229 29.4091 12.9548C29.4286 12.9875 29.4456 13.051 29.4602 13.1408L29.4804 13.2948L29.4971 13.4853L29.5104 13.7091L29.5204 13.963L29.5272 14.2439L29.5308 14.5485L29.5291 15.2165L29.5202 15.7563L29.5052 16.3176L29.4762 17.0809L29.448 17.6507L29.4147 18.2063L29.3765 18.737L29.3485 19.0716L29.3186 19.3874L29.2869 19.6809L29.2533 19.9492L29.2182 20.189C28.0066 25.5899 24.9338 29.1517 20 30.8744C15.2158 29.1444 12.1708 25.5826 10.8651 20.189L10.7918 19.6841L10.7227 19.1494L10.6591 18.5927L10.6204 18.2133L10.585 17.8298L10.5391 17.2523L10.5138 16.8691L10.4933 16.4901L10.472 15.9344C10.4703 15.8737 10.4689 15.8135 10.4677 15.7538L10.4633 15.4011L10.4636 15.2297L10.4688 14.8982C10.4944 13.9277 10.6112 13.1858 10.8651 12.9548C10.9321 12.8878 11.0742 12.7928 11.2762 12.6765L11.4976 12.5533L11.7554 12.4173L12.0464 12.27L12.5375 12.0312L13.0839 11.7752L13.8788 11.416L14.2969 11.2319L14.9405 10.9545L15.5935 10.6799L16.2444 10.4131L16.6716 10.2419L17.2936 9.99912L17.6908 9.84862L18.0701 9.70896L18.428 9.5816L18.7612 9.46801C18.8678 9.43261 18.9697 9.39976 19.0664 9.36969L19.3399 9.28809C19.6394 9.20322 19.8675 9.15552 20 9.15552ZM19.9974 10.8422L12.2489 13.9614C12.1071 16.3242 12.1668 18.354 12.4278 20.0507C13.8295 24.6719 16.367 27.7414 20.0403 29.2591C23.9978 27.5881 26.5413 24.5105 27.6709 20.0265C27.6926 19.8907 27.7127 19.745 27.731 19.5895L27.7654 19.2652L27.7953 18.9147L27.8206 18.5378C27.8244 18.4728 27.828 18.4067 27.8315 18.3395L27.8499 17.9231L27.8637 17.4804C27.8657 17.4045 27.8674 17.3274 27.869 17.2492L27.876 16.7671L27.8784 16.2586L27.8735 15.4465L27.8645 14.8722L27.851 14.2716L27.8425 13.9614L19.9974 10.8422ZM24.0277 16.7628C24.3887 17.0776 24.3312 17.526 24.1355 17.7644L24.0868 17.8175L19.5833 22.1024C19.3392 22.341 18.7655 22.3551 18.5354 22.1302L18.5228 22.1155L18.507 22.1024L15.9919 19.7767L15.9434 19.7234C15.7026 19.4721 15.7018 19.0484 16.0436 18.7256C16.3854 18.4028 16.8228 18.4882 17.0681 18.6781L17.1227 18.7256L19.0272 20.4939L22.9865 16.7628L23.0408 16.7152C23.2847 16.5238 23.6667 16.448 24.0277 16.7628Z" fill="#B4E0FF"/>
</g>
<defs>
<clipPath id="clip0_303_100">
<rect width="20" height="22" fill="white" transform="translate(10 9)"/>
</clipPath>
</defs>
</svg>
