<svg width="20" height="22" viewBox="0 0 20 22" fill="none" xmlns="http://www.w3.org/2000/svg">
<g clip-path="url(#clip0_155_109)">
<path fill-rule="evenodd" clip-rule="evenodd" d="M9.99999 0.155518C10.1097 0.155518 10.2886 0.189951 10.5222 0.252308L10.7734 0.323732C10.8181 0.337107 10.8642 0.351198 10.9116 0.365973L11.2113 0.462609C11.2636 0.480005 11.3172 0.498027 11.3719 0.516643L11.7128 0.635236L12.2669 0.836729L12.8627 1.06221L13.4892 1.30679L14.3534 1.65418L15.2266 2.01527L16.0829 2.37851L16.8962 2.73231L17.4624 2.9845L17.9789 3.22L18.4346 3.43392L18.8187 3.62137L19.0295 3.72923L19.2004 3.82171C19.3002 3.87792 19.3712 3.92291 19.4091 3.95476C19.4286 3.98754 19.4456 4.05096 19.4602 4.1408L19.4804 4.29484L19.4971 4.48533L19.5104 4.70912L19.5204 4.96302L19.5272 5.24388L19.5308 5.54852L19.5291 6.21648L19.5202 6.75634L19.5052 7.31764L19.4762 8.08092L19.448 8.65068L19.4147 9.20626L19.3765 9.73695L19.3485 10.0716L19.3186 10.3874L19.2869 10.6809L19.2533 10.9492L19.2182 11.189C18.0066 16.5899 14.9338 20.1517 9.99999 21.8744C5.21576 20.1444 2.17079 16.5826 0.865106 11.189L0.79181 10.6841L0.722721 10.1494L0.659109 9.59273L0.620372 9.21326L0.58501 8.82982L0.539119 8.2523L0.513843 7.8691L0.49326 7.49006L0.472009 6.93439C0.470329 6.87374 0.468883 6.81352 0.46768 6.75376L0.463318 6.40114L0.463614 6.22973L0.468809 5.89815C0.494351 4.92767 0.611203 4.18581 0.865106 3.95476C0.932071 3.88778 1.0742 3.79281 1.27619 3.67648L1.49756 3.55327L1.75544 3.4173L2.04642 3.27004L2.53751 3.0312L3.08394 2.77525L3.87876 2.41597L4.29691 2.23193L4.94049 1.95451L5.59349 1.67989L6.24442 1.41305L6.67157 1.24194L7.29355 0.999115L7.69077 0.848621L8.07005 0.708956L8.42802 0.581596L8.76125 0.468015C8.86783 0.432615 8.96972 0.399757 9.06635 0.369687L9.33992 0.288088C9.63937 0.20322 9.8675 0.155518 9.99999 0.155518ZM9.99744 1.84219L2.24889 4.96142C2.10714 7.32425 2.16677 9.35399 2.4278 11.0507C3.82951 15.6719 6.36701 18.7414 10.0403 20.2591C13.9978 18.5881 16.5413 15.5105 17.6709 11.0265C17.6926 10.8907 17.7127 10.745 17.731 10.5895L17.7654 10.2652L17.7953 9.91468L17.8206 9.5378C17.8244 9.47279 17.828 9.40669 17.8315 9.33948L17.8499 8.92312L17.8637 8.48043C17.8657 8.40446 17.8674 8.32739 17.869 8.24922L17.876 7.76705L17.8784 7.25857L17.8735 6.44649L17.8645 5.8722L17.851 5.2716L17.8425 4.96142L9.99744 1.84219ZM14.0277 7.76283C14.3887 8.07765 14.3312 8.52596 14.1355 8.7644L14.0868 8.81753L9.58328 13.1024C9.3392 13.341 8.76549 13.3551 8.53542 13.1302L8.52275 13.1155L8.50697 13.1024L5.99194 10.7767L5.94337 10.7234C5.7026 10.4721 5.70181 10.0484 6.04361 9.72561C6.3854 9.4028 6.82282 9.48817 7.06815 9.67812L7.12266 9.72561L9.02718 11.4939L12.9865 7.76283L13.0408 7.71518C13.2847 7.5238 13.6667 7.44802 14.0277 7.76283Z" fill="#11233C"/>
</g>
<defs>
<clipPath id="clip0_155_109">
<rect width="20" height="22" fill="white"/>
</clipPath>
</defs>
</svg>
