<?xml version="1.0" encoding="utf-8"?>
<svg width="195.976" height="195.976" viewBox="0 0 178 190" xmlns="http://www.w3.org/2000/svg">
  <defs>
    <path id="path-1" fill-rule="evenodd" d="M0 0v195.9763031h195.97631836V0H0z"/>
    <mask id="mask-2" maskContentUnits="userSpaceOnUse" maskUnits="userSpaceOnUse">
      <rect width="195.976" height="195.976" x="0" y="0" fill="black"/>
      <path fill-rule="evenodd" d="M0 0v195.9763031h195.97631836V0H0z" transform="matrix(1, 0, 0, 1, 0, 0)" fill="white"/>
    </mask>
    <path id="path-6" fill-rule="evenodd" d="M59.74182129 62.53189087c-5.15209961-13.39343262-4.67248535-34.11018372 12.03192139-46.4154358-5.15725708 23.2077179 8.81378173 37.50883485 24.06384277 36.3175049 13.75442505-1.0727234 26.86419678-18.70027162 12.03704834-47.06010438 35.6831665 18.69511414 36.9621582 41.18081665 35.74505615 60.82485962-.17333984 2.78175354-.86816406 6.29515076-1.62359619 10.11482239-2.39160156 12.09251404-5.39025879 27.25463867 5.63079834 31.98913574 15.4821167 6.64772034 30.2989502-7.63276672 32.67132568-35.4201355 3.4708252 9.4326477 5.3635254 19.62341309 5.3635254 30.26286316 0 48.42163086-39.25195313 87.6736145-87.67358399 87.6736145s-87.6736145-39.25198364-87.6736145-87.6736145c0-21.63475037 7.8390503-41.43867493 20.82507324-56.72998047-7.49868774 27.28712464.63433838 44.41958618 15.27581787 42.97554016 13.10980225-1.2893219 18.69509888-12.89317321 13.3263855-26.85906982z"/>
    <mask id="mask-7" maskContentUnits="userSpaceOnUse" maskUnits="userSpaceOnUse">
      <rect width="195.976" height="195.976" x="0" y="0" fill="black"/>
      <path fill-rule="evenodd" d="M59.74182129 62.53189087c-5.15209961-13.39343262-4.67248535-34.11018372 12.03192139-46.4154358-5.15725708 23.2077179 8.81378173 37.50883485 24.06384277 36.3175049 13.75442505-1.0727234 26.86419678-18.70027162 12.03704834-47.06010438 35.6831665 18.69511414 36.9621582 41.18081665 35.74505615 60.82485962-.17333984 2.78175354-.86816406 6.29515076-1.62359619 10.11482239-2.39160156 12.09251404-5.39025879 27.25463867 5.63079834 31.98913574 15.4821167 6.64772034 30.2989502-7.63276672 32.67132568-35.4201355 3.4708252 9.4326477 5.3635254 19.62341309 5.3635254 30.26286316 0 48.42163086-39.25195313 87.6736145-87.67358399 87.6736145s-87.6736145-39.25198364-87.6736145-87.6736145c0-21.63475037 7.8390503-41.43867493 20.82507324-56.72998047-7.49868774 27.28712464.63433838 44.41958618 15.27581787 42.97554016 13.10980225-1.2893219 18.69509888-12.89317321 13.3263855-26.85906982z" transform="matrix(1, 0, 0, 1, 0, 0)" fill="white"/>
    </mask>
  </defs>
  <g transform="matrix(1, 0, 0, 1, -8.973517, -3.586143)">
    <g>
      <path fill-rule="evenodd" d="M0 0v195.9763031h195.97631836V0H0z" transform="matrix(1, 0, 0, 1, 0, 0)" fill="none"/>
      <g mask="url(#mask-2)">
        <path fill="rgb(244,144,12)" fill-rule="evenodd" d="M185.6617653 103.14540796c0-10.63945047-1.89271854-20.83021854-5.36356207-30.26286767-2.37234482 27.79253487-17.18918527 42.06786161-32.67131335 35.42013914-14.50740423-6.22998395-4.729218-30.51557409-4.00719994-42.10396248 1.21711597-19.64404613-.06188712-42.12974872-35.74504698-60.82485725 14.82715476 28.36499182 1.71737149 45.98223055-12.03707111 47.06010034-15.25520823 1.1861724-29.22109875-13.10978359-24.0638276-36.31750425-16.69924436 12.30524915-17.18918494 33.01685045-12.0370711 46.41544133 5.3738767 13.96589052-.21144792 25.56975085-13.3212315 26.85906856-14.64149307 1.44403582-22.77966708-15.68326201-15.27583742-42.97554135-12.986009 15.29130941-20.8250613 35.09523097-20.8250613 56.72998363 0 48.4216198 39.2519914 87.67361118 87.67361119 87.67361118 48.42161947 0 87.67361118-39.25199139 87.67361118-87.67361118"/>
      </g>
    </g>
    <g>
      <g>
        <path fill="rgb(255,165,57)" fill-rule="evenodd" d="M95.83757185 52.43396004c-15.25005092 1.1913294-29.22109875-13.10978359-24.0638276-36.31750425-16.70440136 12.30524915-17.18402763 33.02200776-12.0319138 46.41544133 5.3687194 13.96589052-.21660522 25.56975085-13.3263888 26.85906856-14.64149307 1.44403582-22.77450983-15.68841933-15.27583742-42.97554135-12.986009 15.29130941-20.8250613 35.09523097-20.8250613 56.72998363 0 48.4216198 39.2519914 87.67361118 87.67361119 87.67361118 48.42161947 0 87.67361118-39.25199139 87.67361118-87.67361118 0-10.63945047-1.89271854-20.83021854-5.36356207-30.26286767-2.37234482 27.78737755-17.18918527 42.06786161-32.67131335 35.42013914-14.50224692-6.22998395-4.729218-30.51557409-4.00719994-42.10396248 1.21711597-19.64404613-.06188712-42.12974872-35.74504698-60.82485725 14.82715476 28.35983482 1.71737149 45.98738786-12.03707111 47.06010034"/>
        <path fill="none" stroke="rgb(235,127,7)" stroke-dasharray="0 0 0 0" stroke-linecap="butt" stroke-linejoin="miter" stroke-width="1" d="M95.83757185 52.43396004c-15.25005092 1.1913294-29.22109875-13.10978359-24.0638276-36.31750425-16.70440136 12.30524915-17.18402763 33.02200776-12.0319138 46.41544133 5.3687194 13.96589052-.21660522 25.56975085-13.3263888 26.85906856-14.64149307 1.44403582-22.77450983-15.68841933-15.27583742-42.97554135-12.986009 15.29130941-20.8250613 35.09523097-20.8250613 56.72998363 0 48.4216198 39.2519914 87.67361118 87.67361119 87.67361118 48.42161947 0 87.67361118-39.25199139 87.67361118-87.67361118 0-10.63945047-1.89271854-20.83021854-5.36356207-30.26286767-2.37234482 27.78737755-17.18918527 42.06786161-32.67131335 35.42013914-14.50224692-6.22998395-4.729218-30.51557409-4.00719994-42.10396248 1.21711597-19.64404613-.06188712-42.12974872-35.74504698-60.82485725 14.82715476 28.35983482 1.71737149 45.98738786-12.03707111 47.06010034"/>
      </g>
      <g>
        <path fill-rule="evenodd" d="M59.74182129 62.53189087c-5.15209961-13.39343262-4.67248535-34.11018372 12.03192139-46.4154358-5.15725708 23.2077179 8.81378173 37.50883485 24.06384277 36.3175049 13.75442505-1.0727234 26.86419678-18.70027162 12.03704834-47.06010438 35.6831665 18.69511414 36.9621582 41.18081665 35.74505615 60.82485962-.17333984 2.78175354-.86816406 6.29515076-1.62359619 10.11482239-2.39160156 12.09251404-5.39025879 27.25463867 5.63079834 31.98913574 15.4821167 6.64772034 30.2989502-7.63276672 32.67132568-35.4201355 3.4708252 9.4326477 5.3635254 19.62341309 5.3635254 30.26286316 0 48.42163086-39.25195313 87.6736145-87.67358399 87.6736145s-87.6736145-39.25198364-87.6736145-87.6736145c0-21.63475037 7.8390503-41.43867493 20.82507324-56.72998047-7.49868774 27.28712464.63433838 44.41958618 15.27581787 42.97554016 13.10980225-1.2893219 18.69509888-12.89317321 13.3263855-26.85906982z" transform="matrix(1, 0, 0, 1, 0, 0)" fill="none"/>
        <g mask="url(#mask-7)">
          <path fill="rgb(255,204,77)" fill-rule="evenodd" d="M159.87541017 159.87539317c0-11.27895217-3.01184652-21.84620121-8.27742029-30.94878486.75811863 15.90502455-13.2129292 22.1401655-20.73223054 19.12831898-10.85605602-4.34757972-7.94735512-11.81530825-10.74259609-27.28712202-2.79524097-15.47181378-13.53783705-26.21956718-29.4428613-30.94362755 11.60386003 32.66099872-6.43111723 44.69806983-15.8843956 46.8486521-9.65441171 2.19699745-19.35523891-.00515731-20.46405223-20.6651858-11.25832311 11.21190742-18.23095384 26.72497938-18.23095384 43.86774915 0 34.17723642 27.71001837 61.88725478 61.88725479 61.88725478 34.1772366 0 61.8872551-27.71001836 61.8872551-61.88725478"/>
          <path fill="none" stroke="rgb(247,146,25)" stroke-dasharray="0 0 0 0" stroke-linecap="butt" stroke-linejoin="miter" stroke-width="1" d="M159.87541017 159.87539317c0-11.27895217-3.01184652-21.84620121-8.27742029-30.94878486.75811863 15.90502455-13.2129292 22.1401655-20.73223054 19.12831898-10.85605602-4.34757972-7.94735512-11.81530825-10.74259609-27.28712202-2.79524097-15.47181378-13.53783705-26.21956718-29.4428613-30.94362755 11.60386003 32.66099872-6.43111723 44.69806983-15.8843956 46.8486521-9.65441171 2.19699745-19.35523891-.00515731-20.46405223-20.6651858-11.25832311 11.21190742-18.23095384 26.72497938-18.23095384 43.86774915 0 34.17723642 27.71001837 61.88725478 61.88725479 61.88725478 34.1772366 0 61.8872551-27.71001836 61.8872551-61.88725478"/>
        </g>
      </g>
    </g>
  </g>
</svg>