<?xml version="1.0" encoding="UTF-8"?>
<svg width="512px" height="512px" viewBox="0 0 512 512" version="1.1" xmlns="http://www.w3.org/2000/svg" xmlns:xlink="http://www.w3.org/1999/xlink">
    <title>Artboard</title>
    <defs>
        <polygon id="path-1" points="0 0 512 0 512 512 0 512"></polygon>
        <path d="M223.382345,122.823822 C183.549886,125.933153 147.058714,88.6081481 160.529243,28.0375305 C116.897816,60.1534059 115.645211,114.222842 129.101688,149.178565 C143.125251,185.628428 128.536611,215.914389 94.2937044,219.279161 C56.0510918,223.048107 34.8079839,178.33324 54.3943,107.115901 C20.4752847,147.025311 0,198.712428 0,255.177422 C0,381.554463 102.52497,484 229,484 C355.47503,484 458,381.554463 458,255.177422 C458,227.408772 453.055821,200.811525 443.990489,176.193024 C437.793704,248.716657 399.093409,285.987906 358.654722,268.637514 C320.775445,252.377289 346.3013,188.994203 348.187234,158.749362 C351.366926,107.479256 348.02564,48.7930516 254.822947,0 C293.551346,74.0173715 259.30844,120.024191 223.382345,122.823822 Z" id="path-3"></path>
    </defs>
    <g id="Artboard" stroke="none" stroke-width="1" fill="none" fill-rule="evenodd">
        <g id="burn">
            <g id="Clipped">
                <mask id="mask-2" fill="white">
                    <use xlink:href="#path-1"></use>
                </mask>
                <g id="Path"></g>
                <path d="M485.052737,269.475497 C485.052737,241.6789 480.10742,215.054884 471.04,190.411607 C464.841788,263.021281 426.13258,300.316989 385.68458,282.949136 C347.782525,266.672546 373.328314,203.225669 375.214682,172.950389 C378.395106,121.628683 375.053051,62.8834152 281.828894,14.0412569 C320.566212,88.1465742 286.31542,134.172691 250.381051,136.988692 C210.526369,140.0877 174.039843,102.738583 187.513475,42.1070052 C143.885051,74.2552029 142.605051,128.365603 156.065631,163.36996 C170.105475,199.856507 155.513475,230.172948 121.262682,233.541107 C83.0112627,237.313846 61.7498102,192.568032 81.3540894,121.264962 C47.4272627,161.214539 26.9472627,212.953675 26.9472627,269.475497 C26.9472627,395.979728 129.495843,498.528369 256,498.528369 C382.504157,498.528369 485.052737,395.979728 485.052737,269.475497 Z" id="Path" fill="#F4900C" fill-rule="nonzero" mask="url(#mask-2)"></path>
            </g>
            <g id="Clipped" transform="translate(27.000000, 14.000000)">
                <mask id="mask-4" fill="white">
                    <use xlink:href="#path-3"></use>
                </mask>
                <g id="Path"></g>
                <g id="Group" mask="url(#mask-4)" fill-rule="nonzero">
                    <path d="M223.382345,122.823822 C183.549886,125.933153 147.058714,88.6081481 160.529243,28.0375305 C116.897816,60.1534059 115.645211,114.222842 129.101688,149.178565 C143.125251,185.628428 128.536611,215.914389 94.2937044,219.279161 C56.0510918,223.048107 34.8079839,178.33324 54.3943,107.115901 C20.4752847,147.025311 -6.68592132e-15,198.712428 -6.68592132e-15,255.177422 C-6.68592132e-15,381.554463 102.52497,484 229,484 C355.47503,484 458,381.554463 458,255.177422 C458,227.408772 453.055821,200.811525 443.990489,176.193024 C437.793704,248.716657 399.093409,285.987906 358.654722,268.637514 C320.775445,252.377289 346.3013,188.994203 348.187234,158.749362 C351.366926,107.479256 348.02564,48.7930516 254.822947,0 C293.551346,74.0173715 259.30844,120.024191 223.382345,122.823822 Z" id="Path" stroke="#EB7F07" fill="#FFA539"></path>
                    <path d="M390.647354,403.238441 C390.647354,373.800945 382.780428,346.221846 369.026859,322.463844 C371.00714,363.975408 334.515967,380.248671 314.875753,372.38784 C286.519491,361.040885 294.117427,341.550278 286.816583,301.17 C279.514735,260.789722 251.455566,232.739254 209.912819,220.409444 C240.221259,305.65302 193.115056,337.06826 168.423268,342.681563 C143.20655,348.415216 117.868385,342.667523 114.971734,288.746919 C85.5656124,318.008906 67.3534489,358.497498 67.3534489,403.238441 C67.3534489,492.438508 139.73077,564.760556 229,564.760556 C318.270234,564.760556 390.647354,492.438508 390.647354,403.238441 Z" id="Path" stroke="#F79219" fill="#FFCC4D"></path>
                </g>
            </g>
        </g>
    </g>
</svg>