<svg width="30" height="30" viewBox="0 0 30 30" fill="none" xmlns="http://www.w3.org/2000/svg">
<path d="M15 30C23.2843 30 30 23.2843 30 15C30 6.71573 23.2843 0 15 0C6.71573 0 0 6.71573 0 15C0 23.2843 6.71573 30 15 30Z" fill="url(#paint0_linear_71_1703)"/>
<path fill-rule="evenodd" clip-rule="evenodd" d="M5.25676 16.648C5.25419 16.7039 5.25289 16.7602 5.25289 16.8166C5.25289 17.0298 5.27146 17.2404 5.30766 17.4477H5.25289V17.7741C5.25289 17.9335 5.26326 18.0914 5.28359 18.2475C5.68076 21.2947 9.87923 23.6923 15 23.6923C20.1208 23.6923 24.3192 21.2947 24.7164 18.2475C24.7367 18.0914 24.7471 17.9335 24.7471 17.7741V17.4477H24.6923C24.7285 17.2404 24.7471 17.0298 24.7471 16.8166C24.7471 16.7602 24.7458 16.7039 24.7433 16.648C24.5962 13.4575 20.2903 10.8985 15 10.8985C9.70967 10.8985 5.40379 13.4575 5.25676 16.648ZM4.45626 16.648C4.52876 14.7013 5.85156 13.0661 7.69269 11.9483C9.60121 10.7894 12.1867 10.0987 15 10.0987C17.8133 10.0987 20.3988 10.7894 22.3073 11.9483C24.1484 13.0661 25.4712 14.7013 25.5437 16.648H25.5468V17.7741C25.5468 19.795 24.2013 21.4925 22.3073 22.6425C20.3988 23.8013 17.8133 24.4921 15 24.4921C12.1867 24.4921 9.60121 23.8013 7.69269 22.6425C5.7986 21.4925 4.45312 19.795 4.45312 17.7741V16.648H4.45626Z" fill="#606063"/>
<path d="M24.7474 17.7745C24.7474 21.043 20.3834 23.6927 15.0003 23.6927C9.61705 23.6927 5.25311 21.043 5.25311 17.7745V16.8377H24.7474V17.7745Z" fill="#BEBEBE"/>
<path d="M24.7474 16.8166C24.7474 20.0851 20.3834 22.7347 15.0003 22.7347C9.61705 22.7347 5.25311 20.0851 5.25311 16.8166C5.25311 13.5481 9.61705 10.8984 15.0003 10.8984C20.3834 10.8984 24.7474 13.5481 24.7474 16.8166Z" fill="#FAF9FA"/>
<path fill-rule="evenodd" clip-rule="evenodd" d="M6.75242 15.1449C6.75236 15.1486 6.75236 15.1523 6.75236 15.1561C6.75236 15.4252 6.79136 15.6887 6.86613 15.9447H6.7523V16.2913C6.7523 16.4443 6.76494 16.5955 6.78951 16.7445C7.16111 18.9947 10.2699 20.7512 14.0501 20.7512C17.8302 20.7512 20.9391 18.9947 21.3107 16.7445C21.3353 16.5955 21.3479 16.4443 21.3479 16.2913V15.9447H21.2342C21.3069 15.6957 21.3458 15.4396 21.3479 15.178C21.3479 15.1707 21.348 15.1634 21.348 15.1561C21.348 15.1523 21.3479 15.1486 21.3479 15.1449C21.3381 12.6869 18.0746 10.6962 14.0501 10.6962C10.0258 10.6962 6.76223 12.6869 6.75242 15.1449ZM5.95263 15.1449H5.95251V16.2913C5.95251 17.9069 7.02086 19.24 8.47275 20.1273C9.93836 21.023 11.9122 21.5509 14.0501 21.5509C16.1879 21.5509 18.1618 21.023 19.6274 20.1273C21.0793 19.24 22.1477 17.9069 22.1477 16.2913V15.181C22.1477 15.1727 22.1477 15.1644 22.1477 15.1561C22.1477 13.5404 21.0794 12.2073 19.6276 11.32C18.1619 10.4244 16.1881 9.89642 14.0501 9.89642C11.9123 9.89642 9.93842 10.4244 8.4728 11.32C7.02426 12.2053 5.95753 13.5343 5.95263 15.1449Z" fill="#633001"/>
<path d="M21.348 16.2913C21.348 18.7544 18.0807 20.7512 14.0502 20.7512C10.0197 20.7512 6.75238 18.7544 6.75238 16.2913V15.245H21.348V16.2913Z" fill="#FEDC90"/>
<path d="M21.348 15.156C21.348 17.6191 18.0807 19.6159 14.0502 19.6159C10.0197 19.6159 6.75238 17.6191 6.75238 15.156C6.75238 12.6929 10.0197 10.6962 14.0502 10.6962C18.0807 10.6962 21.348 12.6929 21.348 15.156Z" fill="#D1884F"/>
<path fill-rule="evenodd" clip-rule="evenodd" d="M8.95194 12.7456C8.95188 12.7493 8.95188 12.753 8.95188 12.7567C8.95188 13.0258 8.99088 13.2894 9.06565 13.5454H8.95183V13.8919C8.95183 14.0449 8.96446 14.1961 8.98904 14.3451C9.36063 16.5954 12.4694 18.3518 16.2496 18.3518C20.0297 18.3518 23.1386 16.5954 23.5102 14.3451C23.5348 14.1961 23.5474 14.0449 23.5474 13.8919V13.5454H23.4337C23.5064 13.2963 23.5453 13.0401 23.5474 12.7787C23.5475 12.7714 23.5475 12.764 23.5475 12.7567C23.5475 12.753 23.5475 12.7493 23.5475 12.7456C23.5377 10.2875 20.2741 8.2968 16.2497 8.2968C12.2253 8.2968 8.96175 10.2875 8.95194 12.7456ZM8.15215 12.7456H8.15204V13.8919C8.15204 15.5075 9.22038 16.8407 10.6723 17.7279C12.1379 18.6236 14.1117 19.1516 16.2496 19.1516C18.3875 19.1516 20.3613 18.6236 21.827 17.7279C23.2788 16.8407 24.3472 15.5075 24.3472 13.8919V12.7816C24.3472 12.7733 24.3472 12.765 24.3472 12.7567C24.3472 11.1411 23.279 9.80794 21.8271 8.92063C20.3615 8.02501 18.3876 7.49707 16.2497 7.49707C14.1118 7.49707 12.1379 8.02501 10.6723 8.92063C9.22379 9.80592 8.15706 11.135 8.15215 12.7456Z" fill="#633001"/>
<path d="M23.5475 13.892C23.5475 16.3551 20.2801 18.3518 16.2497 18.3518C12.2193 18.3518 8.9519 16.3551 8.9519 13.892V12.8456H23.5475V13.892Z" fill="#FEDC90"/>
<path d="M23.5475 12.7566C23.5475 15.2197 20.2801 17.2165 16.2497 17.2165C12.2193 17.2165 8.9519 15.2197 8.9519 12.7566C8.9519 10.2935 12.2193 8.29678 16.2497 8.29678C20.2801 8.29678 23.5475 10.2935 23.5475 12.7566Z" fill="#D1884F"/>
<path fill-rule="evenodd" clip-rule="evenodd" d="M6.75242 10.3461C6.75236 10.3499 6.75236 10.3536 6.75236 10.3573C6.75236 10.6264 6.79136 10.8899 6.86613 11.146H6.7523V11.4925C6.7523 11.6455 6.76494 11.7967 6.78951 11.9457C7.16111 14.1959 10.2699 15.9524 14.0501 15.9524C17.8302 15.9524 20.9391 14.1959 21.3107 11.9457C21.3353 11.7967 21.3479 11.6455 21.3479 11.4925V11.146H21.2342C21.3069 10.8969 21.3458 10.6408 21.3479 10.3793C21.3479 10.372 21.348 10.3646 21.348 10.3573C21.348 10.3536 21.3479 10.3499 21.3479 10.3461C21.3381 7.88815 18.0746 5.89742 14.0501 5.89742C10.0258 5.89742 6.76223 7.88815 6.75242 10.3461ZM5.95263 10.3461H5.95251V11.4925C5.95251 13.1081 7.02086 14.4413 8.47275 15.3286C9.93836 16.2242 11.9122 16.7522 14.0501 16.7522C16.1879 16.7522 18.1618 16.2242 19.6274 15.3286C21.0793 14.4413 22.1477 13.1081 22.1477 11.4925V10.3822C22.1477 10.3739 22.1477 10.3656 22.1477 10.3573C22.1477 8.74171 21.0794 7.4085 19.6276 6.52125C18.1619 5.62559 16.1881 5.09766 14.0501 5.09766C11.9123 5.09766 9.93842 5.62559 8.4728 6.52125C7.02426 7.40648 5.95753 8.73554 5.95263 10.3461Z" fill="#633001"/>
<path d="M21.348 11.4925C21.348 13.9556 18.0807 15.9524 14.0502 15.9524C10.0197 15.9524 6.75238 13.9556 6.75238 11.4925V10.4462H21.348V11.4925Z" fill="#FEDC90"/>
<path d="M21.348 10.3572C21.348 12.8204 18.0807 14.8171 14.0502 14.8171C10.0197 14.8171 6.75238 12.8204 6.75238 10.3572C6.75238 7.89416 10.0197 5.89743 14.0502 5.89743C18.0807 5.89743 21.348 7.89416 21.348 10.3572Z" fill="#D1884F"/>
<path fill-rule="evenodd" clip-rule="evenodd" d="M8.4787 10.6349C8.4787 11.4572 9.07622 12.1937 10.0189 12.6893L9.36578 13.8205L9.36589 13.8207H9.36578V16.6837C9.36578 17.0623 9.6727 17.3693 10.0513 17.3693C10.4299 17.3693 10.7368 17.0623 10.7368 16.6837V14.4068L11.4395 13.1896C11.8888 13.2849 12.3711 13.3367 12.8731 13.3367C15.3 13.3367 17.2674 12.127 17.2674 10.6349C17.2674 9.14274 15.3 7.93311 12.8731 7.93311C10.4461 7.93311 8.4787 9.14274 8.4787 10.6349Z" fill="url(#paint1_linear_71_1703)"/>
<path fill-rule="evenodd" clip-rule="evenodd" d="M10.0189 12.6893C9.91447 12.6344 9.81425 12.5766 9.71866 12.516C8.95118 12.0296 8.47868 11.3662 8.47868 10.6349C8.47868 9.14278 10.4461 7.93315 12.873 7.93315C15.3 7.93315 17.2674 9.14278 17.2674 10.6349C17.2674 12.1271 15.3 13.3367 12.873 13.3367C12.3711 13.3367 11.8888 13.285 11.4394 13.1897L10.7368 14.4068V16.6837C10.7368 17.0624 10.4299 17.3693 10.0513 17.3693C9.67268 17.3693 9.36575 17.0624 9.36575 16.6837V13.8207L10.0189 12.6893ZM8.66595 13.8327V16.6837C8.66595 17.4489 9.2862 18.0691 10.0513 18.0691C10.8163 18.0691 11.4366 17.4489 11.4366 16.6837V14.5943L11.8011 13.963C12.1472 14.0113 12.5059 14.0365 12.873 14.0365C14.1945 14.0365 15.4245 13.7086 16.3468 13.1415C17.2577 12.5815 17.9672 11.715 17.9672 10.6349C17.9672 9.55488 17.2577 8.6884 16.3468 8.12838C15.4245 7.56132 14.1945 7.23334 12.873 7.23334C11.5515 7.23334 10.3215 7.56132 9.39922 8.12838C8.48831 8.6884 7.77887 9.55488 7.77887 10.6349C7.77887 11.5828 8.32181 12.3634 9.07608 12.9227L8.76454 13.4624C8.73483 13.512 8.71112 13.5658 8.69439 13.6225C8.67391 13.6916 8.66468 13.7625 8.66595 13.8327Z" fill="#633001"/>
<path d="M9.85168 9.49657C9.85168 10.2695 10.8363 10.8962 12.051 10.8962C13.2657 10.8962 14.2504 10.2695 14.2504 9.49657C14.2504 8.72355 13.2657 8.09695 12.051 8.09695C10.8363 8.09695 9.85168 8.72355 9.85168 9.49657Z" fill="#9E7200"/>
<path d="M9.85168 8.89667H14.2504V9.49649H9.85168V8.89667Z" fill="#9E7200"/>
<path d="M9.85168 8.89663C9.85168 9.66965 10.8363 10.2963 12.051 10.2963C13.2657 10.2963 14.2504 9.66965 14.2504 8.89663C14.2504 8.12367 13.2657 7.49707 12.051 7.49707C10.8363 7.49707 9.85168 8.12367 9.85168 8.89663Z" fill="#F0B90B"/>
<path d="M11.2163 8.72793L11.8362 8.33343C11.9672 8.25006 12.1345 8.25006 12.2656 8.33343L12.8855 8.72793C13.0089 8.80645 13.0089 8.98668 12.8855 9.06526L12.2656 9.45976C12.1345 9.54312 11.9672 9.54312 11.8362 9.45976L11.2163 9.06526C11.0928 8.98668 11.0928 8.80645 11.2163 8.72793Z" fill="#9E7200"/>
<path fill-rule="evenodd" clip-rule="evenodd" d="M10.12 7.3165C10.6464 6.98148 11.331 6.79715 12.0509 6.79715C12.7708 6.79715 13.4553 6.98148 13.9817 7.3165C14.4999 7.64626 14.95 8.18782 14.95 8.89663V9.49646C14.95 10.2051 14.4999 10.7468 13.9817 11.0765C13.4553 11.4116 12.7708 11.5958 12.0509 11.5958C11.331 11.5958 10.6464 11.4116 10.12 11.0765C9.60185 10.7468 9.15173 10.2051 9.15173 9.49646V8.89663C9.15173 8.18782 9.60185 7.64626 10.12 7.3165ZM12.0509 7.49696C10.8362 7.49696 9.85154 8.12361 9.85154 8.89663V9.49646C9.85154 10.2694 10.8362 10.896 12.0509 10.896C13.2655 10.896 14.2502 10.2694 14.2502 9.49646V8.89663C14.2502 8.12361 13.2655 7.49696 12.0509 7.49696Z" fill="#633001"/>
<defs>
<linearGradient id="paint0_linear_71_1703" x1="15" y1="0" x2="15" y2="30" gradientUnits="userSpaceOnUse">
<stop stop-color="#54DADE"/>
<stop offset="0.762157" stop-color="#24C7D6"/>
</linearGradient>
<linearGradient id="paint1_linear_71_1703" x1="12.9206" y1="8.02357" x2="12.9206" y2="17.2984" gradientUnits="userSpaceOnUse">
<stop stop-color="#9F4A08"/>
<stop offset="0.370494" stop-color="#7D3900"/>
<stop offset="1" stop-color="#8D4104"/>
</linearGradient>
</defs>
</svg>
