<svg width="10" height="10" viewBox="0 0 10 10" fill="none" xmlns="http://www.w3.org/2000/svg">
<path d="M5 0C2.243 0 0 2.24303 0 5.00003C0 7.75703 2.243 10 5 10C7.757 10 10 7.75703 10 5.00003C10 2.24303 7.757 0 5 0ZM5 9.09091C2.74424 9.09091 0.909091 7.25576 0.909091 5.00003C0.909091 2.7443 2.74424 0.909091 5 0.909091C7.25576 0.909091 9.09091 2.7443 9.09091 5.00003C9.09091 7.25576 7.25573 9.09091 5 9.09091Z" fill="#FA2256"/>
<path d="M4.99998 2.12122C4.66586 2.12122 4.39404 2.39322 4.39404 2.72755C4.39404 3.06158 4.66586 3.33334 4.99998 3.33334C5.3341 3.33334 5.60592 3.06158 5.60592 2.72755C5.60592 2.39322 5.3341 2.12122 4.99998 2.12122Z" fill="#FA2256"/>
<path d="M4.99996 4.24243C4.74893 4.24243 4.54541 4.44595 4.54541 4.69698V7.42425C4.54541 7.67528 4.74893 7.8788 4.99996 7.8788C5.25099 7.8788 5.4545 7.67528 5.4545 7.42425V4.69698C5.4545 4.44595 5.25099 4.24243 4.99996 4.24243Z" fill="#FA2256"/>
</svg>
