<svg xmlns="http://www.w3.org/2000/svg" width="196.63" height="197.417" viewBox="0 0 196.63 197.417">
  <g>
    <path fill="rgb(146,178,255)" fill-rule="evenodd" d="M.00334563 60.49892071v33.05127156c0 5.50869782 1.01536562 10.97024125 2.99310343 16.11170938l15.283825 39.48320406c.53189125 1.47093875.81175594 3.02106781.82788438 4.5851475v18.21323531l65.33835187-5.85878906 5.98617531-34.13386531c1.27051688-7.27594531 1.91047813-14.64812469 1.91047813-22.03419156V28.6576607c.00337719-2.53450031-1.00195156-4.96613844-2.79410188-6.75828875-1.7921503-1.79215031-4.22382-2.79747906-6.75828875-2.79410187-1.08761218-.00678594-2.16714437.1875128-3.18411968.57314343-2.53885594.87787938-4.57934 2.80240282-5.60407969 5.28564563-.12735469.38209562-.25474094.70049812-.38209563 1.14628687-.12126312.45964469-.20641875.92809532-.25474093 1.40102782-.07076313.25070093-.11340407.50809312-.12735469.76744218V15.9211504c.00337719-2.53450031-1.00192-4.96613844-2.79410188-6.75828875-1.7921503-1.79215031-4.22382-2.79747906-6.75828875-2.79410188-1.18122656.00467125-2.3499228.24274719-3.43886062.70049813-3.67226531 1.38145906-6.10513438 4.89045156-6.11353 8.81114531V9.55287946c0-5.27564031-4.27675031-9.55239062-9.55239063-9.55239062-5.2756403 0-9.55239062 4.2767503-9.55239062 9.55239062v12.73651031c0-5.27564031-4.27675031-9.55239062-9.55239063-9.55239062-5.2756403 0-9.55239062 4.27675031-9.55239062 9.55239062v31.14079344c-1.73306531-1.60217562-4.00809031-2.48942906-6.36827094-2.48362156-2.53450031-.00337719-4.96613843 1.00195156-6.75828875 2.79410187C1.00532875 55.53281384 0 57.96448352.0033772 60.49895227l-.00003156-.00003156z"/>
    <path fill="rgb(84,133,255)" fill-rule="evenodd" d="M41.39714862 22.28936005V9.55284882c.0024414-4.03892517 2.55599976-7.63569642 6.36828614-8.96974945-2.91845704-1.07460785-6.17861939-.64709473-8.721344 1.1436386-2.54275513 1.79072571-4.04367065 4.71622468-4.01516723 7.82611085v3.76676178c3.81225585 1.33408355 6.36584472 4.93082428 6.3682251 8.96974945zM60.501946 9.55284882v6.32752227c.00839233-3.92069244 2.44125366-7.4296875 6.11352539-8.81114196.10263061-.04241944.21340942-.05949402.31759643-.09838105-1.03884887-.38881683-2.13781738-.59262085-3.24700927-.60211944-1.18121338.0046997-2.34991456.24274444-3.43884278.70050049l-.09552002.04936218c.22183228.79278564.33953858 1.61107635.35025025 2.4342575zm-31.8413086 3.76676178c-3.81228637 1.33405304-6.36584472 4.93082428-6.36828613 8.96974945l.00003052 31.14079284c-1.73306275-1.60217285-4.00808716-2.48942566-6.36825562-2.48362732V22.28936005c-.02850342-3.10988617 1.47241211-6.03538514 4.01516724-7.82611084 2.5427246-1.79073334 5.80288696-2.21824646 8.721344-1.14363861zm51.0734253 14.19172668c.04830932-.4729309.13348388-.94134521.25476074-1.40102386.12734985-.44578553.25473022-.76419068.38208008-1.14628602 1.0229187-2.47872924 3.05838012-4.40072631 5.59164428-5.27993774-1.01651-.37233734-2.08920288-.56812286-3.1717224-.57888794-1.08761598-.00678253-2.16714478.18751526-3.18411256.57315064v8.60040283c.01397705-.25935364.0565796-.51674652.12734986-.76741791zm-.12734986 1.14629364c-.00680542-.1263733-.0067749-.25284576 0-.37884521v.37884521zm-54.13018799 125.0726242v17.64224244l-6.36825561.57098389v-18.21322632c-.0161438-1.56408692-.2960205-3.11419678-.82788086-4.58514405l-15.28381348-39.4832077C1.01882221 104.52043915.0042043 99.0588913.00347187 93.55019378V60.49892427c-.00338746-2.5344696 1.00195312-4.96614075 2.7940979-6.75828553 1.79214477-1.79216003 4.2237854-2.79748535 6.75827026-2.79411316 1.07052612.01768494 2.12988281.22033692 3.13128662.59899903-3.78546143 1.35028076-6.3135376 4.93432617-6.31539917 8.95339966v33.05126953c.00076294 5.50872802 1.01535034 10.97027588 2.99307251 16.1117096l15.283844 39.4832077c.53186035 1.47094726.81173705 3.02108764.82788085 4.58514404z"/>
    <path fill="rgb(84,133,255)" fill-rule="evenodd" d="M35.25365497 9.69130707v47.76193237c0 1.75854492 1.42562866 3.18414307 3.18417358 3.18414307 1.75854493 0 3.18411255-1.42559815 3.18411255-3.18414307V3.32304382c.00979615-.83486175-.07565307-1.66812133-.25473022-2.48361969-3.68496704 1.38627625-6.12191773 4.9147873-6.1135559 8.85188294zm18.87988281 53.99176025V15.9211197c-.00842285-3.93710327 2.42855835-7.4656372 6.1135254-8.85188293.17907714.81549835.26455688 1.64875793.25473022 2.48361969v54.13021087c0 1.75854492-1.42556763 3.18411255-3.18411255 3.18411255s-3.18414307-1.42556763-3.18414307-3.18411255zM73.23833515 76.9927292V29.23078156c.01071167-.57505799.05322265-1.14907837.12738037-1.71942902.0482788-.4729309.13345337-.94136047.25473022-1.40102387.12734986-.44577789.25473023-.76419067.38208008-1.146286 1.02471924-2.48323823 3.06518555-4.40777589 5.60406494-5.28565217V76.9927292c0 1.75854492-1.42556763 3.18411255-3.18411255 3.18411255s-3.18414306-1.42556763-3.18414306-3.18411255zM15.9153371 52.6514511v-5.2219696c2.48718262.60884094 4.71694946 1.99130249 6.36825561 3.94831848 2.04656983 2.29742431 3.17947388 5.26564026 3.18414307 8.34242248v26.68299866l6.62298584 3.31149292c11.59335327 5.73355103 18.90802002 17.57043457 18.85037232 30.50396729 0 1.75854492-1.42590332 3.1841278-3.18444825 3.1841278-1.75857544 0-3.18414306-1.42558288-3.18414306-3.1841278.04553222-10.5138855-5.91311646-20.13180542-15.34750367-24.77252198l-8.34240722-4.20306396c-1.08120728-.54914856-1.76812744-1.6531372-1.78311157-2.8657074V59.72022247c.00317382-1.6105194-.61236573-3.16073608-1.7194519-4.33041382l-.06365968-.06369018c-.13851928-.18096924-.31173706-.33250427-.50946045-.44577026-.06369018-.06369019-.06369018-.12736512-.12738037-.12736512-.48538208-.59375-.75482177-1.33468628-.76419067-2.10153198z"/>
    <path fill="rgb(84,133,255)" fill-rule="evenodd" d="M16.92066156 165.57471259h74.419125c.55191503 0 1 .44808497 1 1v29.84025c0 .55191502-.44808497 1-1 1h-74.419125c-.55191502 0-1-.44808498-1-1v-29.84025c0-.55191503.44808498-1 1-1z"/>
    <path fill="rgb(48,91,196)" fill-rule="evenodd" d="M22.29238345 191.04823569v-19.10477715c0-3.51709207 2.85116662-6.36825895 6.36825904-6.36825895h-6.36825904c-3.51709232 0-6.36825898 2.85116688-6.36825898 6.36825895v19.10477715c0 3.51709206 2.85116666 6.36825894 6.36825898 6.36825894h6.36825904c-3.51709242 0-6.36825904-2.85116688-6.36825904-6.36825894z"/>
    <path fill="rgb(146,178,255)" fill-rule="evenodd" d="M196.62698937 60.49892071v33.05127156c0 5.50869782-1.01536562 10.97024125-2.99310343 16.11170938l-15.283825 39.48320406c-.53185969 1.47093875-.81172438 3.02106781-.82788438 4.5851475v18.21323531l-65.33835187-5.85878906-5.98617532-34.13386531c-1.27051687-7.27594531-1.91047812-14.64812469-1.91047812-22.03419156V28.6576607c-.00337719-2.53450031 1.00195156-4.96613844 2.79410187-6.75828875 1.79215032-1.79215031 4.22382-2.79747906 6.75828875-2.79410187 1.0876122-.00678594 2.16714438.1875128 3.1841197.57314343 2.5388875.87784782 4.57937155 2.80240282 5.60407968 5.28564563.12735469.38209562.25474094.70049812.38209562 1.14628687.12126313.45964469.20641875.92809532.25474094 1.40102782.07076313.25070093.11340406.50809312.12735469.76744218V15.9211504c-.00337719-2.53450031 1.00195156-4.96613844 2.79410187-6.75828875 1.79215032-1.79215031 4.22382-2.79747906 6.75828875-2.79410188 1.18122657.00467125 2.34992282.24274719 3.43886063.70049813 3.67226531 1.38145906 6.10513437 4.89045156 6.11353 8.81114531V9.55287946c0-5.27564031 4.27675031-9.55239062 9.55239062-9.55239062 5.27564032 0 9.55239063 4.2767503 9.55239063 9.55239062v12.73651031c0-5.27564031 4.27675031-9.55239062 9.55239062-9.55239062 5.27564032 0 9.55239063 4.27675031 9.55239063 9.55239062v31.14079344c1.73306531-1.60217562 4.00809031-2.48942906 6.36827094-2.48362156 2.53450031-.00337719 4.96613843 1.00195156 6.75828875 2.79410187 1.79215031 1.79215032 2.79747906 4.22382 2.79410187 6.75828875l.00003156-.00003156z"/>
    <path fill="rgb(84,133,255)" fill-rule="evenodd" d="M155.23329975 22.28936005V9.55284882c-.00244141-4.03892517-2.55603028-7.63569642-6.36828614-8.96974945 2.91845703-1.07460785 6.17858887-.64709473 8.72137451 1.1436386 2.54272461 1.79072571 4.04364014 4.71622468 4.01513672 7.82611085v3.76676178c-3.81225586 1.33408355-6.36584472 4.93082428-6.3682251 8.96974945zm-19.10479737-6.40898896V9.55284882c.01074219-.82318116.12841797-1.64147187.35028076-2.43425751l-.09552002-.04936218c-1.08892822-.45775605-2.25762939-.6958313-3.43884277-.7005005-1.1091919.0094986-2.20812988.21330262-3.24694824.60211945.10418701.03888703.21496582.05596161.31750488.09838105 3.67230225 1.38145446 6.10516358 4.89044952 6.1135254 8.81114196zm31.8413086-2.5607605c3.81225586 1.33405305 6.36584472 4.93082429 6.36828613 8.96974946l-.00006104 31.14079284c1.73309327-1.60217285 4.00811768-2.48942566 6.36828614-2.48362732V22.28936005c.02850341-3.10988617-1.47241211-6.03538514-4.01513672-7.82611084-2.54278565-1.79073334-5.80291748-2.21824646-8.72137451-1.14363861zm-51.32818604 12.79070283c.12127686.45967865.20645142.92809295.25476074 1.40102386.07073975.25067139.11334229.50806427.12734986.7674179v-8.60040282c-1.0169983-.38560486-2.0965271-.57993317-3.18414307-.57315064-1.08239746.01076508-2.15496826.2065506-3.17138672.57888794 2.5331421.87930298 4.56848145 2.80126953 5.59133911 5.27993774.12734986.38209534.25473023.7005005.38208008 1.14628602zm.3821106 2.16847229c.0067749.12599945.00680542.25247192 0 .37884521v-.37884521z"/>
    <path fill="rgb(84,133,255)" fill-rule="evenodd" d="M161.37654926 9.69130707v47.76193237c0 1.75854492-1.42559815 3.18414307-3.18414307 3.18414307-1.75854492 0-3.18408203-1.42559815-3.18408203-3.18414307V3.32304382c-.00982666-.83486175.07562256-1.66812133.2546997-2.48361969 3.68499757 1.38627625 6.12194825 4.9147873 6.1135254 8.85188294zm-18.8796997 53.99176025V15.9211197c.0083618-3.93710327-2.42858888-7.4656372-6.11358644-8.85188293-.17907714.81549835-.26452636 1.64875793-.2546997 2.48361969v54.13021087c0 1.75854492 1.4255371 3.18411255 3.18408203 3.18411255 1.75854492 0 3.1842041-1.42556763 3.1842041-3.18411255zm-19.1048584 13.30966187V29.23078156c-.01071168-.57505799-.05322266-1.14907837-.12734986-1.71942902-.04830933-.4729309-.13348389-.94136047-.25473023-1.40102387-.12738037-.44577789-.25473022-.76419067-.3821106-1.146286-1.02468871-2.48324586-3.06518554-4.40779114-5.60406493-5.28565217V76.9927292c0 1.75854492 1.42559814 3.18411255 3.18414306 3.18411255 1.75854493 0 3.18411255-1.42556763 3.18411255-3.18411255zM180.7149892 52.6514511v-5.2219696c-2.48718262.60882568-4.71697998 1.99128723-6.36828613 3.94831848-2.04656983 2.29742431-3.17944336 5.26564026-3.18414307 8.34242248v26.68299866l-6.62298584 3.31149292c-11.59338379 5.7335205-18.90802002 17.57041931-18.8503418 30.50396729 0 1.75854492 1.42590332 3.1841278 3.18444825 3.1841278 1.75854492 0 3.18414306-1.42558288 3.18414306-3.1841278-.04553222-10.5138855 5.91308594-20.13182068 15.34747315-24.77252198l8.34246826-4.20306396c1.08111572-.54917908 1.7680664-1.65315247 1.78308105-2.8657074V59.72022247c-.00323486-1.61053466.61230469-3.1607666 1.71942139-4.33041382l.0637207-.06369018c.13848877-.18095398.31170655-.33250427.50946045-.44577026.06365967-.06369019.06365967-.12736512.12731934-.12736512.4854126-.59373474.75488281-1.33468628.76422119-2.10153198z"/>
    <path fill="rgb(84,133,255)" fill-rule="evenodd" d="M179.70733887 197.41702438l-74.419125-.0000836c-.55191503-6.1e-7-.9999995-.4480861-.99999888-1.00000112l.00003352-29.84025c6.2e-7-.55191502.4480861-.9999995 1.00000112-.99999887l74.419125.0000836c.55191503 6.1e-7.9999995.4480861.99999888 1.00000112l-.00003352 29.84025c-6.2e-7.55191502-.4480861.9999995-1.00000112.99999887z"/>
    <path fill="rgb(48,91,196)" fill-rule="evenodd" d="M110.6554788 191.04823569v-19.10477715c0-3.51709207 2.85116687-6.36825895 6.36825894-6.36825895h-6.36825894c-3.51709207 0-6.36825894 2.85116688-6.36825894 6.36825895v19.10477715c0 3.51709206 2.85116687 6.36825894 6.36825894 6.36825894h6.36825894c-3.51709207 0-6.36825894-2.85116688-6.36825894-6.36825894z"/>
  </g>
</svg>
