<?xml version="1.0" encoding="UTF-8"?>
<svg width="512px" height="512px" viewBox="0 0 512 512" version="1.1" xmlns="http://www.w3.org/2000/svg" xmlns:xlink="http://www.w3.org/1999/xlink">
    <title>Artboard</title>
    <g id="Artboard" stroke="none" stroke-width="1" fill="none" fill-rule="evenodd">
        <g id="claim" transform="translate(0.000000, 10.000000)" fill-rule="nonzero">
            <path d="M255.999805,0 C114.614811,0 0,70.3839659 0,157.208144 C0,234.972721 124.942499,387 255.999805,387 C387.057112,387 512,234.972721 512,157.208144 C512,70.3839659 397.385286,0 255.999805,0 Z" id="Path" fill="#92B2FF"></path>
            <path d="M256.250033,0 C114.726842,0 0,70.3839659 0,157.208144 C0,234.972721 125.064624,387 256.250033,387 C284.515239,387 312.492242,379.929077 339,368.078004 C192.787199,309.602453 103.305382,60.5439631 256.250033,0 Z" id="Path" fill="#759CFF"></path>
            <path d="M255.499757,75 C145.318988,75 56,129.743572 56,197.272961 C56,257.755167 153.367795,376 255.499757,376 C357.632691,376 455,257.755167 455,197.272961 C455,129.743572 365.680526,75 255.499757,75 Z" id="Path" fill="#759CFF"></path>
            <path d="M181.558801,84 C108.524161,102.137698 57,146.041536 57,197.331985 C57,257.795189 154.287872,376 256.336,376 C279.139904,376 301.70261,370.084413 323,360.242923 C225.341091,310.607788 157.909732,177.139676 181.558801,84 Z" id="Path" fill="#5485FF"></path>
            <path d="M255.5,386 C204.413711,386 163,344.586289 163,293.5 C163,242.413711 204.413711,201 255.5,201 C306.586289,201 348,242.413711 348,293.5 C348,344.586289 306.586289,386 255.5,386 Z" id="Path" fill="#FFFFFF"></path>
            <polygon id="Path" fill="#3377FF" points="319 297.00045 300.8125 279 288.6875 291.0003 294.75 297.00045 258.375 333.000375 246.25 321.000075 252.3125 314.999925 255.34375 318 255.34375 299.99955 237.15625 299.99955 240.1875 302.999625 222 321.000075 258.375 357"></polygon>
            <polygon id="Path" fill="#2AD4B7" points="290 275.999925 253.625 240 193 299.99955 211.1875 318 223.3125 305.9997 217.25 299.99955 253.625 263.999625 265.75 275.999925 259.6875 282.000075 256.65625 279 256.65625 297.00045 274.84375 297.00045 271.8125 294.000375"></polygon>
            <path d="M500.539528,385.744929 C513.465947,389.199367 516.189551,406.335207 504.934258,413.575209 C462.201885,441.067544 366.815441,493 255.99978,493 C145.185092,493 49.7988614,441.067544 7.06627501,413.575209 C-4.18950444,406.334233 -1.46648417,389.199367 11.4611017,385.744929 C44.6088007,376.886299 114.190382,366 256.001725,366 C397.811998,366 467.391323,376.885325 500.539528,385.744929 Z" id="Path" fill="#5485FF"></path>
            <path d="M422,457.232662 C206.979001,502.161342 78.5837395,374.001949 78.581696,374 C47.3065296,377.564747 25.9211886,381.813599 11.4654336,385.678495 C-1.46634284,389.135072 -4.19152118,406.281526 7.06875419,413.526987 C49.8184482,441.035377 145.243324,493 256.102275,493 C318.506475,493 376.01888,476.534726 422,457.232662 Z" id="Path" fill="#92B2FF"></path>
        </g>
    </g>
</svg>