<svg width="10" height="10" viewBox="0 0 10 10" fill="none" xmlns="http://www.w3.org/2000/svg">
<g opacity="0.5">
<path d="M0.714445 0H6.24211C6.63606 0 6.95654 0.320501 6.95654 0.714436V2.39127H6.30437V0.714436C6.30437 0.68011 6.27643 0.652175 6.24211 0.652175H0.714445C0.680119 0.652175 0.652184 0.68011 0.652184 0.714436V6.2421C0.652184 6.27645 0.680119 6.30438 0.714445 6.30438H2.33899V6.95656H0.714445C0.320509 6.95656 8.58307e-06 6.63606 8.58307e-06 6.2421V0.714436C3.05176e-05 0.320501 0.320509 0 0.714445 0Z" fill="#B4E0FF"/>
<path d="M3.70566 3.04346H9.2333C9.62725 3.04346 9.94775 3.36396 9.94775 3.75792V9.28558C9.94773 9.67954 9.62725 10 9.2333 10H3.70563C3.31168 10 2.99118 9.67953 2.99118 9.2856V3.75792C2.99115 3.36396 3.3117 3.04346 3.70566 3.04346ZM3.70561 9.34786H9.2333C9.26764 9.34786 9.29558 9.31993 9.29558 9.2856V3.75792C9.29558 3.72357 9.26764 3.69563 9.2333 3.69563H3.70563C3.67129 3.69563 3.64335 3.72357 3.64335 3.75792V9.2856H3.64333C3.64333 9.31993 3.67129 9.34786 3.70561 9.34786Z" fill="#B4E0FF"/>
</g>
</svg>
