<svg width="40" height="40" viewBox="0 0 40 40" fill="none" xmlns="http://www.w3.org/2000/svg">
<rect width="40" height="40" rx="20" fill="#102637" fill-opacity="0.4"/>
<path d="M14 26C15.1 26 16 25.1 16 24C16 23.5 15.8 23 15.5 22.7L16.8 20H17C17.5 20 18 19.8 18.3 19.5L21 20.9V21C21 22.1 21.9 23 23 23C24.1 23 25 22.1 25 21C25 20.5 24.8 20.1 24.5 19.7L25.8 17H26C27.1 17 28 16.1 28 15C28 13.9 27.1 13 26 13C24.9 13 24 13.9 24 15C24 15.5 24.2 16 24.5 16.3L23.2 19H23C22.5 19 22 19.2 21.7 19.5L19 18.2V18C19 16.9 18.1 16 17 16C15.9 16 15 16.9 15 18C15 18.5 15.2 19 15.5 19.3L14.2 22H14C12.9 22 12 22.9 12 24C12 25.1 12.9 26 14 26Z" fill="#B4E0FF"/>
</svg>
