<?xml version="1.0" encoding="UTF-8"?>
<svg width="512px" height="512px" viewBox="0 0 512 512" version="1.1" xmlns="http://www.w3.org/2000/svg" xmlns:xlink="http://www.w3.org/1999/xlink">
    <title>Artboard</title>
    <g id="Artboard" stroke="none" stroke-width="1" fill="none" fill-rule="evenodd">
        <g id="earn" transform="translate(16.000000, 0.000000)" fill-rule="nonzero">
            <path d="M480,288.317988 L480,395.676889 L430.120529,395.676889 C423.432492,416.987062 413.205353,436.715605 400.117965,454.201127 L400.117965,512 L315.267196,512 L315.267196,471.199464 L313.560703,471.839202 C290.849163,480.325084 266.981898,484.562119 243.127441,484.562119 C218.671967,484.562119 194.215508,480.11151 171.013302,471.200448 L171.013302,512 L86.1631245,512 L86.1631245,454.202111 C77.8936255,443.159245 70.7668466,431.213856 64.9569844,418.553928 L55.2325319,392.63272 C49.5737121,378.969879 47.0259918,364.530495 46.2475272,350.92966 C44.4903905,319.843303 52.145473,288.957726 67.3915952,261.808219 C72.2598316,253.121558 77.9576683,243.783349 83.7545249,235.986416 C109.164729,201.766326 143.219722,177.311594 180.813818,163.674343 C238.435568,142.74201 304.400615,147.229134 360.378929,180.93448 C362.914038,182.463947 364.696397,183.617444 365.561468,184.306393 C375.122562,170.342384 391.222916,161.179364 409.442594,161.179364 L419.908169,161.179364 L419.908169,252.669805 C425.340967,263.98825 429.733316,275.921829 432.920676,288.317988 L480,288.317988 L480,288.317988 Z" id="Path" fill="#F9A395"></path>
            <path d="M315,471.237609 L313.295195,471.876749 C290.605152,480.354697 266.762496,484.587772 242.931652,484.587772 C218.499401,484.587772 194.06715,480.141323 170.888895,471.238593 L170.888895,512 L86.1224102,512 L86.1224102,454.256148 C77.8610967,443.223606 70.7413722,431.289385 64.9372608,418.641293 L55.2223356,392.744319 C49.5692155,379.095235 47.0240172,364.668368 46.2473074,351.080249 C44.4918115,320.022955 52.1393167,289.166253 67.370446,262.042129 C72.2338636,253.363589 77.9260604,244.03411 83.717179,236.244467 C109.101542,202.05637 143.12381,177.624501 180.680694,164 C180.680694,164 80.738102,265.14835 99.2861196,347.086114 C127.489217,471.687957 224.841234,471.237609 315,471.237609 Z" id="Path" fill="#E59188"></path>
            <path d="M198.930596,199 L193,180.891081 C200.448546,178.356912 208.137337,176.276415 215.853584,174.703551 C243.990575,168.971691 273.43371,169.908015 301,177.408597 L296.166682,195.852274 C271.361728,189.10215 244.860357,188.261757 219.524905,193.423029 C212.570575,194.841004 205.642721,196.716649 198.930596,199 Z" id="Path" fill="#344F5E"></path>
            <path d="M41.9625305,330.999018 C30.7833056,330.999018 21.1458221,328.0936 14.0725878,322.58529 C4.73520741,315.316835 0,304.145022 0,289.382201 C0,284.200971 4.21295992,280 9.40937956,280 C14.605809,280 18.8187788,284.200971 18.8187788,289.382201 C18.8187788,298.192747 21.0548011,304.216725 25.6539204,307.797912 C33.5956954,313.978064 47.9163252,312.244439 52.3064115,311.150242 C57.3497012,309.892995 62.4561342,312.948693 63.716735,317.976696 C64.9772373,323.004699 61.9128652,328.098511 56.8704621,329.353793 C56.2101662,329.518807 50.1953953,330.963658 42.2747008,331 C42.1706769,330.999018 42.0655693,330.999018 41.9625305,330.999018 Z" id="Path" fill="#E59188"></path>
            <path d="M392,286.995573 C392,289.851685 391.335648,292.545462 390.144736,294.939165 C387.223556,300.903255 381.094786,305 374.000492,305 C364.059819,305 356,296.943265 356,286.994589 C356,277.433549 363.458458,269.614905 372.884381,269.03837 C373.260355,269.01279 373.624518,269 374.000492,269 C383.940181,269.001968 392,277.058703 392,286.995573 Z" id="Path" fill="#344F5E"></path>
            <path d="M392,287.01053 C392,289.870313 391.333365,292.566624 390.141113,294.962579 C389.776239,294.987198 389.39953,295 389.035642,295 C379.075558,295 371,286.935687 371,276.977653 C371,274.129687 371.666635,271.433376 372.846067,269.038406 C373.222775,269.012802 373.58765,269 373.964358,269 C383.924442,269.000985 392,277.065298 392,287.01053 Z" id="Path" fill="#415E72"></path>
            <path d="M329,87 C329,135.063676 290.046897,174 242,174 C224.689813,174 208.555088,168.954691 195.006183,160.235939 C170.937334,144.761091 155,117.752995 155,86.9985196 C155,38.9533988 193.95409,0 242,0 C260.756075,0 278.120545,5.93702212 292.328735,16.0098752 C314.524345,31.7865332 329,57.708536 329,87 Z" id="Path" fill="#FFFFFF"></path>
            <path d="M298,86.5000493 C298,116.608934 273.59781,141 243.5,141 C232.65524,141 222.549312,137.839293 214.061122,132.378536 C198.982624,122.685517 189,105.76594 189,86.5000493 C189,56.4018373 213.40219,32 243.5,32 C255.249312,32 266.126624,35.7180378 275.028127,42.0286108 C288.931792,51.9125129 298,68.1516336 298,86.5000493 Z" id="Path" fill="#F8F8F8"></path>
            <path d="M329,86.9952343 C329,135.061335 290.045387,174 241.996627,174 C224.684781,174 208.549431,168.953439 195,160.235216 L215.520557,129.819248 L271.788003,46.433211 L292.327313,16 C314.523784,31.7788682 329,57.7022421 329,86.9952343 Z" id="Path" fill="#F8F8F8"></path>
            <polygon id="Path" fill="#3377FF" points="295 86.4615461 279.43787 71 269.06213 81.3076313 274.249507 86.4615461 243.125247 117.384539 232.749507 107.076908 237.936883 101.923092 240.531558 104.5 240.531558 89.0384539 224.968442 89.0384539 227.56213 91.6153617 212 107.076908 243.125247 138"></polygon>
            <polygon id="Path" fill="#2AD4B7" points="274 66.9230922 242.875123 36 191 87.5384539 206.562932 103 216.937562 92.6923687 211.750247 87.5384539 242.875123 56.6154212 253.249753 66.9230922 248.062438 72.0769078 245.468781 69.5 245.468781 84.9615461 261.030726 84.9615461 258.437068 82.3846383"></polygon>
        </g>
    </g>
</svg>