<svg width="40" height="40" viewBox="0 0 40 40" fill="none" xmlns="http://www.w3.org/2000/svg">
<rect width="40" height="40" rx="20" fill="#102637" fill-opacity="0.4"/>
<path d="M26.44 19.04H16.44V14.56C16.44 13.942 16.942 13.44 17.56 13.44H22.52C23.138 13.44 23.64 13.942 23.64 14.56V15.92C23.64 16.008 23.712 16.08 23.8 16.08H24.92C25.008 16.08 25.08 16.008 25.08 15.92V14.56C25.08 13.146 23.934 12 22.52 12H17.56C16.146 12 15 13.146 15 14.56V19.04H13.64C13.286 19.04 13 19.326 13 19.68V27.36C13 27.714 13.286 28 13.64 28H26.44C26.794 28 27.08 27.714 27.08 27.36V19.68C27.08 19.326 26.794 19.04 26.44 19.04ZM25.64 26.56H14.44V20.48H25.64V26.56ZM19.48 23.78V24.84C19.48 24.928 19.552 25 19.64 25H20.44C20.528 25 20.6 24.928 20.6 24.84V23.78C20.7651 23.6615 20.8883 23.4936 20.9519 23.3006C21.0156 23.1076 21.0163 22.8993 20.954 22.7059C20.8918 22.5124 20.7697 22.3437 20.6055 22.224C20.4412 22.1043 20.2432 22.0398 20.04 22.0398C19.8368 22.0398 19.6388 22.1043 19.4745 22.224C19.3103 22.3437 19.1882 22.5124 19.126 22.7059C19.0637 22.8993 19.0644 23.1076 19.1281 23.3006C19.1917 23.4936 19.3149 23.6615 19.48 23.78Z" fill="#B4E0FF"/>
</svg>
