<svg width="42" height="42" viewBox="0 0 42 42" fill="none" xmlns="http://www.w3.org/2000/svg">
<rect x="0.5" y="0.5" width="41" height="41" rx="20.5" fill="#2AD4B7" stroke="#2AD4B7"/>
<path d="M21.3225 13C17.9263 13 15.0071 15.0699 13.8079 18.0147L13.3299 17.1691C13.2686 17.0534 13.1762 16.9571 13.0633 16.8909C12.9503 16.8246 12.8211 16.7911 12.6902 16.7941C12.5676 16.7968 12.4479 16.8314 12.3428 16.8945C12.2377 16.9576 12.1508 17.0469 12.0907 17.1538C12.0306 17.2606 11.9993 17.3813 12 17.5039C12.0007 17.6265 12.0333 17.7468 12.0946 17.8529L13.3887 20.1691C13.4787 20.3287 13.6272 20.4471 13.8028 20.4992C13.9784 20.5514 14.1674 20.5332 14.3299 20.4485L16.6314 19.2721C16.7179 19.2324 16.7954 19.1757 16.8594 19.1053C16.9235 19.0349 16.9726 18.9524 17.0039 18.8625C17.0352 18.7727 17.048 18.6774 17.0415 18.5825C17.0351 18.4876 17.0095 18.395 16.9664 18.3102C16.9233 18.2254 16.8634 18.1502 16.7905 18.0891C16.7176 18.028 16.6331 17.9823 16.542 17.9547C16.451 17.9271 16.3553 17.9182 16.2607 17.9285C16.1662 17.9388 16.0746 17.9681 15.9917 18.0147L15.1461 18.4485C16.1572 16.0829 18.5397 14.4118 21.3225 14.4118C25.0286 14.4118 28.0064 17.3582 28.0064 21C28.0064 24.6418 25.0286 27.5882 21.3225 27.5882C18.1522 27.5882 15.5114 25.4126 14.8152 22.5147C14.7713 22.3324 14.6568 22.1749 14.4968 22.077C14.3369 21.9791 14.1446 21.9488 13.9623 21.9927C13.7799 22.0365 13.6225 22.151 13.5246 22.311C13.4267 22.471 13.3963 22.6633 13.4402 22.8456C14.2883 26.3759 17.5065 29 21.3225 29C25.7814 29 29.4181 25.415 29.4181 21C29.4181 16.585 25.7814 13 21.3225 13ZM21.4108 16.5147C21.3175 16.5157 21.2253 16.5351 21.1395 16.5719C21.0537 16.6088 20.9761 16.6622 20.9112 16.7293C20.8462 16.7963 20.7952 16.8755 20.761 16.9624C20.7269 17.0492 20.7103 17.142 20.7123 17.2353V21C20.7122 21.1059 20.736 21.2104 20.7818 21.3059C20.8276 21.4014 20.8943 21.4853 20.977 21.5515L23.3299 23.4339C23.4023 23.4918 23.4854 23.5349 23.5746 23.5607C23.6636 23.5865 23.7569 23.5945 23.8491 23.5843C23.9413 23.574 24.0305 23.5458 24.1118 23.5011C24.193 23.4563 24.2646 23.396 24.3226 23.3236C24.3805 23.2512 24.4236 23.168 24.4495 23.0789C24.4753 22.9899 24.4833 22.8966 24.473 22.8044C24.4628 22.7122 24.4345 22.6229 24.3897 22.5417C24.345 22.4605 24.2847 22.3888 24.2123 22.3309L22.124 20.6618V17.2353C22.126 17.1407 22.109 17.0468 22.0739 16.9589C22.0388 16.8711 21.9865 16.7912 21.9199 16.724C21.8534 16.6568 21.774 16.6036 21.6866 16.5677C21.5991 16.5317 21.5053 16.5137 21.4108 16.5147Z" fill="#11233C"/>
</svg>
