<svg width="40" height="40" viewBox="0 0 40 40" fill="none" xmlns="http://www.w3.org/2000/svg">
<rect width="40" height="40" rx="20" fill="#102637" fill-opacity="0.4"/>
<path d="M20.3225 12C16.9263 12 14.0071 14.0699 12.8079 17.0147L12.3299 16.1691C12.2686 16.0534 12.1762 15.9571 12.0633 15.8909C11.9503 15.8246 11.8211 15.7911 11.6902 15.7941C11.5676 15.7968 11.4479 15.8314 11.3428 15.8945C11.2377 15.9576 11.1508 16.0469 11.0907 16.1538C11.0306 16.2606 10.9993 16.3813 11 16.5039C11.0007 16.6265 11.0333 16.7468 11.0946 16.8529L12.3887 19.1691C12.4787 19.3287 12.6272 19.4471 12.8028 19.4992C12.9784 19.5514 13.1674 19.5332 13.3299 19.4485L15.6314 18.2721C15.7179 18.2324 15.7954 18.1757 15.8594 18.1053C15.9235 18.0349 15.9726 17.9524 16.0039 17.8625C16.0352 17.7727 16.048 17.6774 16.0415 17.5825C16.0351 17.4876 16.0095 17.395 15.9664 17.3102C15.9233 17.2254 15.8634 17.1502 15.7905 17.0891C15.7176 17.028 15.6331 16.9823 15.542 16.9547C15.451 16.9271 15.3553 16.9182 15.2607 16.9285C15.1662 16.9388 15.0746 16.9681 14.9917 17.0147L14.1461 17.4485C15.1572 15.0829 17.5397 13.4118 20.3225 13.4118C24.0286 13.4118 27.0064 16.3582 27.0064 20C27.0064 23.6418 24.0286 26.5882 20.3225 26.5882C17.1522 26.5882 14.5114 24.4126 13.8152 21.5147C13.7713 21.3324 13.6568 21.1749 13.4968 21.077C13.3369 20.9791 13.1446 20.9488 12.9623 20.9927C12.7799 21.0365 12.6225 21.151 12.5246 21.311C12.4267 21.471 12.3963 21.6633 12.4402 21.8456C13.2883 25.3759 16.5065 28 20.3225 28C24.7814 28 28.4181 24.415 28.4181 20C28.4181 15.585 24.7814 12 20.3225 12ZM20.4108 15.5147C20.3175 15.5157 20.2253 15.5351 20.1395 15.5719C20.0537 15.6088 19.9761 15.6622 19.9112 15.7293C19.8462 15.7963 19.7952 15.8755 19.761 15.9624C19.7269 16.0492 19.7103 16.142 19.7123 16.2353V20C19.7122 20.1059 19.736 20.2104 19.7818 20.3059C19.8276 20.4014 19.8943 20.4853 19.977 20.5515L22.3299 22.4339C22.4023 22.4918 22.4854 22.5349 22.5746 22.5607C22.6636 22.5865 22.7569 22.5945 22.8491 22.5843C22.9413 22.574 23.0305 22.5458 23.1118 22.5011C23.193 22.4563 23.2646 22.396 23.3226 22.3236C23.3805 22.2512 23.4236 22.168 23.4495 22.0789C23.4753 21.9899 23.4833 21.8966 23.473 21.8044C23.4628 21.7122 23.4345 21.6229 23.3897 21.5417C23.345 21.4605 23.2847 21.3888 23.2123 21.3309L21.124 19.6618V16.2353C21.126 16.1407 21.109 16.0468 21.0739 15.9589C21.0388 15.8711 20.9865 15.7912 20.9199 15.724C20.8534 15.6568 20.774 15.6036 20.6866 15.5677C20.5991 15.5317 20.5053 15.5137 20.4108 15.5147Z" fill="#B4E0FF"/>
</svg>
