<?xml version="1.0" encoding="UTF-8"?>
<svg width="17px" height="17px" viewBox="0 0 17 17" version="1.1" xmlns="http://www.w3.org/2000/svg" xmlns:xlink="http://www.w3.org/1999/xlink">
    <title>help-select</title>
    <g id="Page-1" stroke="none" stroke-width="1" fill="none" fill-rule="evenodd">
        <path d="M8.5,0.5 C12.918278,0.5 16.5,4.081722 16.5,8.5 C16.5,12.918278 12.918278,16.5 8.5,16.5 C4.081722,16.5 0.5,12.918278 0.5,8.5 C0.5,4.081722 4.081722,0.5 8.5,0.5 Z M8.5,1.5 C4.63400675,1.5 1.5,4.63400675 1.5,8.5 C1.5,12.3659932 4.63400675,15.5 8.5,15.5 C12.3659932,15.5 15.5,12.3659932 15.5,8.5 C15.5,4.63400675 12.3659932,1.5 8.5,1.5 Z M8.55814,11.0455 C9.02326,11.0455 9.31395,11.3811 9.31395,11.7727 C9.31395,12.1643 9.02326,12.5 8.55814,12.5 C8.09302,12.5 7.80233,12.1643 7.80233,11.7727 C7.80233,11.3811 8.09302,11.0455 8.55814,11.0455 Z M8.5,4.5 C9.95349,4.5 11,5.28322 11,6.56993 C11,8.36014 9.0814,8.3042 9.0814,9.59091 C9.0814,9.86898 8.85597,10.09441 8.5779,10.09441 L8.5779,10.09441 L8.4221,10.09441 C8.14403,10.09441 7.9186,9.86898 7.9186,9.59091 C7.9186,7.68881 9.77907,7.91259 9.77907,6.56993 C9.77907,5.95455 9.31395,5.50699 8.5,5.50699 C7.9344,5.50699 7.53159,5.78895 7.31593,6.21221 C7.18586,6.4675 6.95355,6.68182 6.66703,6.68182 C6.31281,6.68182 6.03189,6.36659 6.15318,6.03378 C6.51403,5.04361 7.38596,4.5 8.5,4.5 Z" id="help-select" fill="#2AD4B7"></path>
    </g>
</svg>