<?xml version="1.0" encoding="UTF-8"?>
<svg width="13px" height="13px" viewBox="0 0 13 13" version="1.1" xmlns="http://www.w3.org/2000/svg" xmlns:xlink="http://www.w3.org/1999/xlink">
    <title>Group</title>
    <g id="Page-1" stroke="none" stroke-width="1" fill="none" fill-rule="evenodd">
        <g id="Group" transform="translate(1.000000, 1.000000)">
            <path d="M11.25,5.625 C11.25,2.5184 8.7316,0 5.625,0 C2.5184,0 0,2.5184 0,5.625 C0,8.7316 2.5184,11.25 5.625,11.25 C8.7316,11.25 11.25,8.7316 11.25,5.625 Z" id="Path" stroke="#B4E0FF"></path>
            <path d="M5.66849,8.625 C6.01733,8.625 6.23535,8.37323 6.23535,8.07952 C6.23535,7.78583 6.01733,7.53412 5.66849,7.53412 C5.31965,7.53412 5.10163,7.78583 5.10163,8.07952 C5.10163,8.37323 5.31965,8.625 5.66849,8.625 Z" id="Path" fill="#B4E0FF" fill-rule="nonzero"></path>
            <path d="M5.18884,6.44318 C5.18884,6.65173 5.35791,6.82081 5.56646,6.82081 L5.68331,6.82081 C5.89186,6.82081 6.06094,6.65173 6.06094,6.44318 C6.06094,5.47815 7.49989,5.52011 7.49989,4.17745 C7.49989,3.21242 6.715,2.625 5.62489,2.625 C4.78936,2.625 4.13541,3.03271 3.86477,3.77534 C3.7738,4.02494 3.98449,4.26136 4.25016,4.26136 C4.46505,4.26136 4.63928,4.10063 4.73683,3.90916 C4.89858,3.59171 5.20069,3.38024 5.62489,3.38024 C6.23535,3.38024 6.58419,3.71591 6.58419,4.17745 C6.58419,5.18444 5.18884,5.01661 5.18884,6.44318 Z" id="Path" fill="#B4E0FF" fill-rule="nonzero"></path>
        </g>
    </g>
</svg>