<svg width="12" height="12" viewBox="0 0 12 12" fill="none" xmlns="http://www.w3.org/2000/svg">
<g clip-path="url(#clip0_363_1134)">
<path d="M11.625 6C11.625 2.8934 9.1066 0.375 6 0.375C2.8934 0.375 0.375 2.8934 0.375 6C0.375 9.1066 2.8934 11.625 6 11.625C9.1066 11.625 11.625 9.1066 11.625 6Z" stroke="#B4E0FF"/>
<path d="M6.04361 9C6.39245 9 6.61047 8.74823 6.61047 8.45452C6.61047 8.16083 6.39245 7.90912 6.04361 7.90912C5.69477 7.90912 5.47676 8.16083 5.47676 8.45452C5.47676 8.74823 5.69477 9 6.04361 9ZM5.56396 6.81818C5.56396 7.02673 5.73303 7.19581 5.94158 7.19581H6.05843C6.26699 7.19581 6.43606 7.02673 6.43606 6.81818C6.43606 5.85315 7.87501 5.89511 7.87501 4.55245C7.87501 3.58742 7.09013 3 6.00001 3C5.16448 3 4.51053 3.40771 4.23989 4.15034C4.14893 4.39994 4.35962 4.63636 4.62528 4.63636C4.84017 4.63636 5.0144 4.47563 5.11196 4.28416C5.2737 3.96671 5.57581 3.75524 6.00001 3.75524C6.61047 3.75524 6.95931 4.09091 6.95931 4.55245C6.95931 5.55944 5.56396 5.39161 5.56396 6.81818Z" fill="#B4E0FF"/>
</g>
<defs>
<clipPath id="clip0_363_1134">
<rect width="12" height="12" fill="white"/>
</clipPath>
</defs>
</svg>
