<svg width="16" height="14" viewBox="0 0 16 14" fill="none" xmlns="http://www.w3.org/2000/svg">
<path fill-rule="evenodd" clip-rule="evenodd" d="M14.1485 9.71484V11.599C14.1485 12.012 13.8423 12.4002 13.2995 12.7415C13.2224 12.7886 13.1402 12.838 13.0506 12.8824C13.0506 12.8824 13.0481 12.8824 13.0481 12.8849C12.9708 12.9269 12.8888 12.9665 12.8017 13.0086C12.5102 13.1445 12.1742 13.2706 11.8057 13.382C11.7237 13.4068 11.6414 13.4313 11.5568 13.4561H11.5543C11.4745 13.4782 11.3925 13.5006 11.3079 13.523C10.9788 13.6062 10.6465 13.6764 10.3118 13.7332C10.2298 13.7478 10.1476 13.7629 10.0629 13.7753H10.0607C9.97824 13.7874 9.89869 13.8023 9.81402 13.8122C9.49292 13.8591 9.1618 13.8963 8.8182 13.926C8.73598 13.9333 8.65397 13.9408 8.5693 13.9459H8.56685C8.15346 13.9771 7.73914 13.9944 7.32458 13.9979C7.24214 14.0001 7.16014 14.0001 7.07546 14.0001H7.07301C6.98833 14.0001 6.90856 14.0001 6.82656 13.9977C6.41111 13.9943 5.99589 13.9769 5.58162 13.9457H5.57939C5.49472 13.9408 5.41495 13.9333 5.33272 13.9258C4.99972 13.8977 4.66763 13.8599 4.3369 13.8122C4.25223 13.8023 4.17 13.7874 4.088 13.775H4.08555C4.00088 13.7629 3.92111 13.7478 3.83888 13.733C3.50425 13.6762 3.17204 13.606 2.84306 13.5227C2.75839 13.5006 2.67371 13.4785 2.59416 13.4563H2.59171C2.50704 13.4313 2.42727 13.4068 2.34527 13.382C1.97671 13.2706 1.64068 13.1445 1.34922 13.0086C1.26451 12.97 1.18147 12.928 1.10032 12.8824C1.10032 12.8824 1.0981 12.8824 1.0981 12.88C1.01075 12.838 0.928747 12.791 0.851426 12.7415C0.308617 12.4028 0 12.012 0 11.599V9.71484H14.1485Z" fill="#10BA97"/>
<path fill-rule="evenodd" clip-rule="evenodd" d="M14.1485 9.71485C14.1485 10.1278 13.8423 10.516 13.2995 10.8525C13.2199 10.9042 13.1377 10.9536 13.0481 10.9981C12.9708 11.0426 12.8888 11.0822 12.8017 11.1242C12.5102 11.2604 12.1742 11.3839 11.8057 11.4976C11.7237 11.5224 11.6414 11.5472 11.5568 11.5718H11.5543C11.4745 11.5941 11.3925 11.6165 11.3079 11.6386C10.9788 11.7219 10.6465 11.7921 10.3118 11.8489C10.2298 11.8637 10.1476 11.8785 10.0629 11.8909H10.0607C9.97824 11.9033 9.89869 11.9181 9.81402 11.9279C9.49292 11.975 9.1618 12.012 8.8182 12.0416C8.73598 12.0492 8.65397 12.0565 8.5693 12.0616H8.56685C8.15347 12.0928 7.73914 12.1101 7.32458 12.1136C7.24214 12.1158 7.16014 12.1158 7.07546 12.1158H7.07301C6.98833 12.1158 6.90878 12.1158 6.82656 12.1136C6.41111 12.1102 5.99589 12.0928 5.58162 12.0616H5.57939C5.49472 12.0565 5.41495 12.0492 5.33272 12.0416C4.99972 12.0135 4.66763 11.9756 4.3369 11.9279C4.25223 11.9181 4.17 11.9033 4.088 11.8909H4.08555C4.00088 11.8785 3.92111 11.8637 3.83888 11.8489C3.50424 11.7921 3.17203 11.7219 2.84306 11.6386C2.75839 11.6165 2.67371 11.5941 2.59416 11.5718H2.59171C2.50704 11.5472 2.42727 11.5224 2.34527 11.4976C1.97671 11.3863 1.64068 11.2604 1.34922 11.1242C1.26232 11.0846 1.17987 11.0426 1.10032 10.9981C1.10032 10.9981 1.0981 10.9981 1.0981 10.9959C1.01075 10.9538 0.928747 10.9067 0.851426 10.8571C0.308617 10.5185 0 10.1278 0 9.71485C0 8.38933 3.16928 7.31348 7.07546 7.31348C10.9816 7.31348 14.1485 8.38933 14.1485 9.71485Z" fill="#21D8B3"/>
<path fill-rule="evenodd" clip-rule="evenodd" d="M7.05345 11.4448C6.98303 11.4448 6.91618 11.4448 6.84733 11.4426C6.44543 11.4392 6.04375 11.4227 5.64294 11.393L5.61242 11.3903H5.59994C5.53599 11.3864 5.47471 11.3806 5.41232 11.3748C5.08566 11.3476 4.75989 11.3107 4.43544 11.2642C4.36837 11.2558 4.32135 11.248 4.27456 11.2407L4.13729 11.2197C4.0876 11.2117 3.95992 11.1885 3.95992 11.1885C3.64052 11.1345 3.32347 11.0676 3.00956 10.988C2.93447 10.9685 2.85358 10.947 2.77737 10.926L2.54051 10.8552C2.27974 10.7776 2.02366 10.6852 1.77353 10.5785V10.5756L1.39695 10.3937L1.2773 10.3271H1.27262C1.25428 10.3162 1.23615 10.305 1.21825 10.2935C0.815818 10.0423 0.675659 9.82535 0.675659 9.71469C0.675659 9.10472 3.10538 7.98438 7.07551 7.98438C11.0441 7.98438 13.4729 9.10472 13.4729 9.71469C13.4729 9.82491 13.3339 10.04 12.9421 10.2828C12.879 10.3249 12.8134 10.3633 12.7458 10.3979L12.7093 10.4176C12.6467 10.4537 12.5794 10.4853 12.5087 10.5194C12.2658 10.633 11.9599 10.7474 11.6054 10.8567L11.3714 10.9258C11.2952 10.947 11.2165 10.9685 11.1357 10.9895C10.8208 11.0692 10.5124 11.1343 10.1989 11.1872C10.1298 11.1996 10.0672 11.2111 10.0044 11.2208L9.86866 11.2416C9.82476 11.2487 9.78064 11.256 9.73496 11.2615C9.41854 11.3076 9.10569 11.3432 8.75964 11.3731C8.68789 11.3797 8.61926 11.3859 8.54862 11.3903L8.50562 11.393C8.1109 11.4225 7.71531 11.439 7.3195 11.4423C7.23527 11.4446 7.16464 11.4448 7.09311 11.4448H7.05345Z" fill="#10BA97"/>
<path fill-rule="evenodd" clip-rule="evenodd" d="M1.34946 11.1241V13.0084C1.26467 12.9699 1.18155 12.9278 1.10034 12.8823C1.10034 12.8823 1.09811 12.8823 1.09811 12.8798C1.01076 12.8378 0.928762 12.7909 0.85144 12.7413V10.8569C0.928539 10.9065 1.01076 10.9534 1.09789 10.9955C1.09789 10.9979 1.10034 10.9979 1.10034 10.9979C1.18011 11.0424 1.26234 11.0845 1.34946 11.1241Z" fill="#09997B"/>
<path fill-rule="evenodd" clip-rule="evenodd" d="M2.84324 11.6385V13.5229C2.75856 13.5008 2.67389 13.4784 2.59411 13.4561H2.59166C2.50699 13.4313 2.42722 13.4067 2.34521 13.3819V11.4976C2.42722 11.5223 2.50699 11.5471 2.59166 11.5717H2.59411C2.67389 11.5941 2.75834 11.6164 2.84301 11.6385H2.84324Z" fill="#09997B"/>
<path fill-rule="evenodd" clip-rule="evenodd" d="M4.33689 11.9276V13.812C4.25221 13.802 4.16999 13.7872 4.08799 13.7748H4.08554C4.00086 13.7626 3.92109 13.7476 3.83887 13.7328V11.8486C3.92131 11.8635 4.00086 11.8783 4.08554 11.8907H4.08777C4.17021 11.9031 4.25221 11.9179 4.33689 11.9276Z" fill="#09997B"/>
<path fill-rule="evenodd" clip-rule="evenodd" d="M5.83066 12.0787V13.963C5.74599 13.958 5.66376 13.9531 5.58154 13.9456H5.57931C5.49464 13.9407 5.41487 13.9332 5.33264 13.9256V12.0415C5.41487 12.049 5.49441 12.0563 5.57909 12.0614H5.58154C5.66399 12.0687 5.74599 12.0736 5.83066 12.0787Z" fill="#09997B"/>
<path fill-rule="evenodd" clip-rule="evenodd" d="M7.32434 12.1135V13.9976C7.24234 14.0001 7.16011 14.0001 7.07544 14.0001H7.07299C6.98831 14.0001 6.90854 14.0001 6.82654 13.9976V12.1133C6.90876 12.1157 6.98831 12.1157 7.07299 12.1157H7.07544C7.16011 12.1157 7.24234 12.1157 7.32434 12.1135Z" fill="#09997B"/>
<path fill-rule="evenodd" clip-rule="evenodd" d="M8.81821 12.0415V13.9259C8.73599 13.9332 8.65399 13.9407 8.56931 13.9458H8.56686C8.48441 13.9531 8.40487 13.958 8.32019 13.963V12.0787C8.40487 12.0736 8.48464 12.0687 8.56686 12.0614H8.56909C8.65376 12.0563 8.73621 12.049 8.81821 12.0415Z" fill="#09997B"/>
<path fill-rule="evenodd" clip-rule="evenodd" d="M10.446 11.8486V13.7328C10.346 13.7476 10.246 13.7626 10.143 13.7748H10.1402C10.04 13.7872 9.9432 13.802 9.84021 13.812V11.9276C9.9432 11.9179 10.0402 11.9031 10.14 11.8907H10.143C10.246 11.8783 10.346 11.8635 10.446 11.8486H10.446Z" fill="#09997B"/>
<path fill-rule="evenodd" clip-rule="evenodd" d="M11.9253 11.4976V13.3819C11.8256 13.4067 11.7256 13.4313 11.6226 13.4561H11.6196C11.5226 13.4782 11.4228 13.5005 11.3198 13.5229V11.6385C11.4228 11.6164 11.5226 11.5941 11.6196 11.5717H11.6226C11.7256 11.5471 11.8256 11.5223 11.9253 11.4976Z" fill="#09997B"/>
<path fill-rule="evenodd" clip-rule="evenodd" d="M13.2994 10.8523V12.7415C13.2223 12.7886 13.1401 12.838 13.0505 12.8825C13.0505 12.8825 13.0481 12.8825 13.0481 12.8849C12.9708 12.927 12.8888 12.9666 12.8016 13.0086V11.1241C12.8885 11.082 12.971 11.0424 13.0481 10.9979C13.1377 10.9536 13.2197 10.9041 13.2994 10.8521V10.8523H13.2994Z" fill="#09997B"/>
<path fill-rule="evenodd" clip-rule="evenodd" d="M15.6054 6.05811V7.94224C15.6054 8.35523 15.2992 8.74344 14.7564 9.08472C14.6793 9.13186 14.5971 9.18122 14.5075 9.2257C14.5075 9.2257 14.5051 9.2257 14.5051 9.22814C14.4277 9.27019 14.3457 9.30981 14.2586 9.35186C13.9671 9.48775 13.6311 9.61391 13.2626 9.72523C13.1806 9.75002 13.0983 9.77459 13.0137 9.79938H13.0112C12.9314 9.82151 12.8494 9.84386 12.7648 9.86622C12.4357 9.9495 12.1034 10.0196 11.7687 10.0765C11.6867 10.0911 11.6045 10.1061 11.5198 10.1185H11.5176C11.4352 10.1307 11.3556 10.1455 11.2709 10.1555C10.9498 10.2024 10.6187 10.2396 10.2751 10.2692C10.1929 10.2766 10.1109 10.2841 10.0262 10.2892H10.0238C9.61037 10.3203 9.19605 10.3377 8.78149 10.3412C8.69904 10.3434 8.61704 10.3434 8.53237 10.3434H8.52992C8.44524 10.3434 8.36547 10.3434 8.28347 10.341C7.86802 10.3375 7.4528 10.3202 7.03853 10.2889H7.0363C6.95163 10.2841 6.87185 10.2766 6.78963 10.269C6.45663 10.241 6.12454 10.2031 5.79381 10.1555C5.70914 10.1455 5.62691 10.1307 5.54491 10.1183H5.54246C5.45779 10.1061 5.37801 10.0911 5.29579 10.0763C4.96116 10.0194 4.62895 9.94927 4.29997 9.86599C4.2153 9.84386 4.13062 9.82173 4.05107 9.7996H4.04862C3.96395 9.77459 3.88418 9.75002 3.80217 9.72523C3.43362 9.61391 3.09759 9.48775 2.80613 9.35186C2.72142 9.3133 2.63838 9.27121 2.55723 9.2257C2.55723 9.2257 2.55501 9.2257 2.55501 9.22327C2.46766 9.18122 2.38566 9.1343 2.30833 9.08472C1.76553 8.74609 1.45691 8.35523 1.45691 7.94224V6.05811H15.6054Z" fill="#10BA97"/>
<path fill-rule="evenodd" clip-rule="evenodd" d="M15.6054 6.05811C15.6054 6.4711 15.2992 6.8593 14.7564 7.19572C14.6769 7.24751 14.5946 7.29686 14.5051 7.34135C14.4277 7.38584 14.3457 7.42545 14.2586 7.4675C13.9671 7.60362 13.6311 7.72712 13.2626 7.84088C13.1806 7.86567 13.0983 7.89045 13.0137 7.91502H13.0112C12.9314 7.93738 12.8494 7.95973 12.7648 7.98186C12.4357 8.06518 12.1034 8.13532 11.7687 8.19212C11.6867 8.20695 11.6045 8.22178 11.5198 8.23417H11.5176C11.4352 8.24657 11.3556 8.26139 11.2709 8.27113C10.9498 8.31828 10.6187 8.35524 10.2751 8.38489C10.1929 8.39242 10.1109 8.39972 10.0262 8.40481H10.0238C9.61038 8.43604 9.19605 8.45339 8.78149 8.45682C8.69904 8.45904 8.61704 8.45904 8.53237 8.45904H8.52992C8.44524 8.45904 8.36569 8.45904 8.28347 8.45682C7.86802 8.45345 7.4528 8.4361 7.03853 8.40481H7.0363C6.95163 8.39972 6.87185 8.39242 6.78963 8.38489C6.45663 8.35678 6.12454 8.31885 5.79381 8.27113C5.70914 8.26139 5.62691 8.24657 5.54491 8.23417H5.54246C5.45779 8.22178 5.37801 8.20695 5.29579 8.19212C4.96115 8.13531 4.62894 8.06517 4.29997 7.98186C4.2153 7.95973 4.13062 7.93738 4.05107 7.91502H4.04862C3.96395 7.89045 3.88418 7.86567 3.80217 7.84088C3.43362 7.72955 3.09759 7.60362 2.80613 7.4675C2.71923 7.42789 2.63678 7.38584 2.55723 7.34135C2.55723 7.34135 2.55501 7.34135 2.55501 7.33914C2.46766 7.29708 2.38566 7.24994 2.30833 7.20037C1.76553 6.86174 1.45691 6.4711 1.45691 6.05811C1.45691 4.7326 4.62619 3.65674 8.53237 3.65674C12.4385 3.65674 15.6054 4.7326 15.6054 6.05811Z" fill="#21D8B3"/>
<path fill-rule="evenodd" clip-rule="evenodd" d="M8.51023 7.78805C8.43982 7.78805 8.37297 7.78805 8.30412 7.78583C7.90222 7.78245 7.50053 7.76592 7.09973 7.73626L7.0692 7.7336H7.05672C6.99277 7.72962 6.9315 7.72386 6.8691 7.71811C6.54245 7.69083 6.21668 7.65393 5.89223 7.60745C5.82515 7.59903 5.77814 7.59129 5.73134 7.58398L5.59408 7.56296C5.54439 7.55499 5.41671 7.53175 5.41671 7.53175C5.09731 7.47779 4.78026 7.41089 4.46635 7.33123C4.39125 7.31176 4.31037 7.29029 4.23416 7.26926L3.99729 7.19844C3.73653 7.12083 3.48045 7.02847 3.23032 6.92178V6.9189L2.85374 6.73698L2.73408 6.67036H2.7294C2.71107 6.65948 2.69294 6.64827 2.67503 6.63672C2.27261 6.38551 2.13245 6.16861 2.13245 6.05795C2.13245 5.44798 4.56216 4.32764 8.53229 4.32764C12.5009 4.32764 14.9297 5.44798 14.9297 6.05795C14.9297 6.16817 14.7906 6.3833 14.3989 6.62609C14.3357 6.66816 14.2702 6.70659 14.2026 6.74118L14.1661 6.76088C14.1034 6.79695 14.0361 6.8286 13.9655 6.86269C13.7226 6.97623 13.4167 7.09065 13.0622 7.19999L12.8282 7.26904C12.752 7.29029 12.6733 7.31176 12.5924 7.33278C12.2776 7.41246 11.9692 7.47753 11.6557 7.53042C11.5866 7.54282 11.524 7.55433 11.4611 7.56406L11.3254 7.58487C11.2815 7.59195 11.2374 7.59926 11.1917 7.60479C10.8753 7.65082 10.5625 7.68646 10.2164 7.71634C10.1447 7.72298 10.076 7.72917 10.0054 7.7336L9.9624 7.73626C9.56769 7.76576 9.1721 7.78222 8.77629 7.78561C8.69206 7.78782 8.62142 7.78805 8.54989 7.78805H8.51023Z" fill="#10BA97"/>
<path fill-rule="evenodd" clip-rule="evenodd" d="M2.80637 7.46733V9.35169C2.72158 9.31314 2.63846 9.27105 2.55725 9.22554C2.55725 9.22554 2.55502 9.22554 2.55502 9.2231C2.46767 9.18105 2.38567 9.13413 2.30835 9.08455V7.2002C2.38545 7.24977 2.46767 7.29669 2.5548 7.33874C2.5548 7.34118 2.55725 7.34118 2.55725 7.34118C2.63702 7.38567 2.71924 7.42772 2.80637 7.46733Z" fill="#09997B"/>
<path fill-rule="evenodd" clip-rule="evenodd" d="M4.30014 7.9818V9.86616C4.21547 9.84403 4.1308 9.82167 4.05102 9.79932H4.04857C3.9639 9.77453 3.88412 9.74997 3.80212 9.72518V7.84082C3.88412 7.86561 3.9639 7.8904 4.04857 7.91496H4.05102C4.1308 7.93732 4.21525 7.95967 4.29992 7.9818H4.30014Z" fill="#09997B"/>
<path fill-rule="evenodd" clip-rule="evenodd" d="M5.7938 8.27091V10.1553C5.70912 10.1453 5.6269 10.1305 5.5449 10.1181H5.54245C5.45777 10.1059 5.378 10.0909 5.29578 10.076V8.19189C5.37822 8.20672 5.45777 8.22155 5.54245 8.23395H5.54468C5.62712 8.24634 5.70912 8.26117 5.7938 8.27091Z" fill="#09997B"/>
<path fill-rule="evenodd" clip-rule="evenodd" d="M7.28757 8.42195V10.3063C7.2029 10.3012 7.12067 10.2963 7.03845 10.2888H7.03622C6.95155 10.284 6.87177 10.2764 6.78955 10.2689V8.38477C6.87177 8.39229 6.95132 8.39959 7.036 8.40468H7.03845C7.1209 8.41199 7.2029 8.41686 7.28757 8.42195Z" fill="#09997B"/>
<path fill-rule="evenodd" clip-rule="evenodd" d="M8.78125 8.45676V10.3409C8.69924 10.3433 8.61702 10.3433 8.53235 10.3433H8.5299C8.44522 10.3433 8.36545 10.3433 8.28345 10.3409V8.45654C8.36567 8.45898 8.44522 8.45898 8.5299 8.45898H8.53235C8.61702 8.45898 8.69925 8.45898 8.78125 8.45676Z" fill="#09997B"/>
<path fill-rule="evenodd" clip-rule="evenodd" d="M10.2751 8.38477V10.2691C10.1929 10.2764 10.1109 10.284 10.0262 10.289H10.0238C9.94132 10.2963 9.86177 10.3012 9.7771 10.3063V8.42195C9.86177 8.41686 9.94155 8.41199 10.0238 8.40468H10.026C10.1107 8.39959 10.1931 8.39229 10.2751 8.38477Z" fill="#09997B"/>
<path fill-rule="evenodd" clip-rule="evenodd" d="M11.9029 8.19189V10.076C11.8029 10.0909 11.7029 10.1059 11.5999 10.1181H11.5972C11.4969 10.1305 11.4001 10.1453 11.2971 10.1553V8.27091C11.4001 8.26117 11.4971 8.24634 11.5969 8.23395H11.5999C11.7029 8.22155 11.8029 8.20672 11.9029 8.19189H11.9029Z" fill="#09997B"/>
<path fill-rule="evenodd" clip-rule="evenodd" d="M13.3822 7.84082V9.72518C13.2825 9.74997 13.1825 9.77453 13.0795 9.79932H13.0765C12.9795 9.82145 12.8797 9.84381 12.7767 9.86616V7.9818C12.8797 7.95967 12.9795 7.93732 13.0765 7.91496H13.0795C13.1825 7.8904 13.2825 7.86561 13.3822 7.84082Z" fill="#09997B"/>
<path fill-rule="evenodd" clip-rule="evenodd" d="M14.7563 7.19553V9.08476C14.6792 9.1319 14.597 9.18126 14.5074 9.22574C14.5074 9.22574 14.505 9.22574 14.505 9.22818C14.4277 9.27023 14.3457 9.30985 14.2585 9.3519V7.46732C14.3454 7.42527 14.4279 7.38565 14.505 7.34117C14.5946 7.2969 14.6766 7.24732 14.7563 7.19531V7.19553Z" fill="#09997B"/>
<path fill-rule="evenodd" clip-rule="evenodd" d="M14.5142 2.40137V4.2855C14.5142 4.69849 14.208 5.0867 13.6652 5.42798C13.5881 5.47512 13.5059 5.52448 13.4163 5.56896C13.4163 5.56896 13.4139 5.56896 13.4139 5.5714C13.3365 5.61345 13.2545 5.65307 13.1674 5.69512C12.876 5.83101 12.5399 5.95717 12.1714 6.06849C12.0894 6.09328 12.0072 6.11785 11.9225 6.14264H11.92C11.8403 6.16477 11.7583 6.18712 11.6736 6.20948C11.3445 6.29276 11.0122 6.3629 10.6775 6.41974C10.5955 6.43434 10.5133 6.44939 10.4286 6.46179H10.4264C10.344 6.47396 10.2644 6.48879 10.1797 6.49875C9.85864 6.54567 9.52752 6.58285 9.18392 6.61251C9.1017 6.61981 9.0197 6.62734 8.93502 6.63243H8.93257C8.51919 6.66359 8.10486 6.68094 7.6903 6.68444C7.60786 6.68665 7.52586 6.68665 7.44118 6.68665H7.43873C7.35406 6.68665 7.27428 6.68665 7.19228 6.68422C6.77683 6.68077 6.36162 6.66343 5.94734 6.63221H5.94512C5.86044 6.62734 5.78067 6.61981 5.69844 6.61229C5.36544 6.58426 5.03336 6.5464 4.70263 6.49875C4.61795 6.48879 4.53573 6.47396 4.45373 6.46157H4.45128C4.3666 6.44939 4.28683 6.43434 4.2046 6.41951C3.86997 6.36268 3.53776 6.29254 3.20879 6.20926C3.12411 6.18712 3.03944 6.16499 2.95989 6.14286H2.95744C2.87276 6.11785 2.79299 6.09328 2.71099 6.06849C2.34243 5.95717 2.00641 5.83101 1.71495 5.69512C1.63023 5.65656 1.54719 5.61448 1.46605 5.56896C1.46605 5.56896 1.46382 5.56896 1.46382 5.56653C1.37647 5.52448 1.29447 5.47756 1.21715 5.42798C0.67434 5.08935 0.365723 4.69849 0.365723 4.2855V2.40137H14.5142Z" fill="#10BA97"/>
<path fill-rule="evenodd" clip-rule="evenodd" d="M14.5142 2.40137C14.5142 2.81436 14.208 3.20257 13.6652 3.53898C13.5857 3.59077 13.5034 3.64012 13.4139 3.68461C13.3365 3.7291 13.2545 3.76871 13.1674 3.81077C12.876 3.94688 12.5399 4.07038 12.1714 4.18414C12.0894 4.20893 12.0072 4.23372 11.9225 4.25828H11.92C11.8403 4.28064 11.7583 4.30299 11.6736 4.32512C11.3445 4.40844 11.0123 4.47858 10.6775 4.53538C10.5955 4.55021 10.5133 4.56504 10.4286 4.57743H10.4264C10.344 4.58983 10.2644 4.60466 10.1797 4.61439C9.85864 4.66154 9.52752 4.6985 9.18392 4.72816C9.1017 4.73568 9.0197 4.74298 8.93502 4.74808H8.93257C8.51919 4.77931 8.10486 4.79665 7.6903 4.80009C7.60786 4.8023 7.52586 4.8023 7.44118 4.8023H7.43873C7.35406 4.8023 7.27451 4.8023 7.19228 4.80009C6.77683 4.79671 6.36161 4.77937 5.94734 4.74808H5.94512C5.86044 4.74298 5.78067 4.73568 5.69844 4.72816C5.36544 4.70004 5.03336 4.66211 4.70263 4.61439C4.61795 4.60466 4.53573 4.58983 4.45373 4.57743H4.45128C4.3666 4.56504 4.28683 4.55021 4.2046 4.53538C3.86996 4.47858 3.53776 4.40843 3.20879 4.32512C3.12411 4.30299 3.03944 4.28064 2.95989 4.25828H2.95744C2.87276 4.23372 2.79299 4.20893 2.71099 4.18414C2.34243 4.07281 2.00641 3.94688 1.71495 3.81077C1.62804 3.77115 1.5456 3.7291 1.46605 3.68461C1.46605 3.68461 1.46382 3.68461 1.46382 3.6824C1.37647 3.64035 1.29447 3.5932 1.21715 3.54363C0.67434 3.205 0.365723 2.81436 0.365723 2.40137C0.365723 1.07586 3.53501 0 7.44118 0C11.3474 0 14.5142 1.07586 14.5142 2.40137Z" fill="#21D8B3"/>
<path fill-rule="evenodd" clip-rule="evenodd" d="M7.41904 4.13131C7.34863 4.13131 7.28178 4.13131 7.21293 4.12909C6.81103 4.12571 6.40935 4.10918 6.00854 4.07952L5.97802 4.07686H5.96554C5.90159 4.07288 5.84031 4.06712 5.77792 4.06137C5.45126 4.03409 5.12549 3.99719 4.80104 3.95071C4.73397 3.9423 4.68695 3.93455 4.64016 3.92725L4.50289 3.90622C4.4532 3.89825 4.32552 3.87501 4.32552 3.87501C4.00612 3.82105 3.68907 3.75415 3.37516 3.67449C3.30007 3.65502 3.21918 3.63355 3.14297 3.61252L2.90611 3.5417C2.64534 3.4641 2.38927 3.37173 2.13913 3.26504V3.26217L1.76255 3.08024L1.6429 3.01362H1.63822C1.61988 3.00275 1.60175 2.99153 1.58385 2.97998C1.18142 2.72877 1.04126 2.51188 1.04126 2.40121C1.04126 1.79124 3.47098 0.670898 7.4411 0.670898C11.4097 0.670898 13.8385 1.79124 13.8385 2.40121C13.8385 2.51143 13.6995 2.72656 13.3077 2.96935C13.2446 3.01142 13.179 3.04985 13.1114 3.08444L13.0749 3.10414C13.0123 3.14022 12.945 3.17187 12.8743 3.20595C12.6314 3.31949 12.3255 3.43391 11.971 3.54325L11.737 3.6123C11.6608 3.63355 11.5821 3.65502 11.5013 3.67604C11.1864 3.75572 10.878 3.82079 10.5645 3.87369C10.4954 3.88608 10.4328 3.89759 10.37 3.90733L10.2343 3.92813C10.1904 3.93521 10.1462 3.94252 10.1006 3.94805C9.78414 3.99409 9.47129 4.02972 9.12524 4.0596C9.05349 4.06624 8.98486 4.07243 8.91422 4.07686L8.87122 4.07952C8.4765 4.10902 8.08091 4.12549 7.6851 4.12887C7.60087 4.13109 7.53024 4.13131 7.45871 4.13131H7.41904Z" fill="#10BA97"/>
<path fill-rule="evenodd" clip-rule="evenodd" d="M1.71518 3.81108V5.69544C1.63039 5.65689 1.54728 5.6148 1.46606 5.56929C1.46606 5.56929 1.46383 5.56929 1.46383 5.56685C1.37648 5.5248 1.29448 5.47788 1.21716 5.4283V3.54395C1.29426 3.59352 1.37649 3.64044 1.46361 3.68249C1.46361 3.68493 1.46606 3.68493 1.46606 3.68493C1.54583 3.72942 1.62806 3.77147 1.71518 3.81108Z" fill="#09997B"/>
<path fill-rule="evenodd" clip-rule="evenodd" d="M3.20896 4.32507V6.20942C3.12428 6.18729 3.03961 6.16494 2.95984 6.14258H2.95739C2.87271 6.11779 2.79294 6.09323 2.71094 6.06844V4.18408C2.79294 4.20887 2.87271 4.23366 2.95739 4.25823H2.95984C3.03961 4.28058 3.12406 4.30293 3.20874 4.32507H3.20896Z" fill="#09997B"/>
<path fill-rule="evenodd" clip-rule="evenodd" d="M4.70261 4.61466V6.49901C4.61794 6.48905 4.53571 6.47423 4.45371 6.46183H4.45126C4.36659 6.44966 4.28681 6.43461 4.20459 6.41978V4.53564C4.28704 4.55047 4.36659 4.5653 4.45126 4.5777H4.45349C4.53594 4.59009 4.61794 4.60492 4.70261 4.61466Z" fill="#09997B"/>
<path fill-rule="evenodd" clip-rule="evenodd" d="M6.19638 4.76521V6.64957C6.11171 6.64448 6.02949 6.63961 5.94726 6.63208H5.94504C5.86036 6.62721 5.78059 6.61969 5.69836 6.61216V4.72803C5.78059 4.73555 5.86014 4.74286 5.94481 4.74795H5.94726C6.02971 4.75525 6.11171 4.76012 6.19638 4.76521Z" fill="#09997B"/>
<path fill-rule="evenodd" clip-rule="evenodd" d="M7.69006 4.80003V6.68416C7.60806 6.6866 7.52584 6.68659 7.44116 6.68659H7.43871C7.35404 6.68659 7.27426 6.6866 7.19226 6.68416V4.7998C7.27448 4.80224 7.35404 4.80224 7.43871 4.80224H7.44116C7.52584 4.80224 7.60806 4.80224 7.69006 4.80003Z" fill="#09997B"/>
<path fill-rule="evenodd" clip-rule="evenodd" d="M9.18393 4.72803V6.61238C9.10171 6.61969 9.01971 6.62721 8.93504 6.6323H8.93258C8.85014 6.63961 8.77059 6.64448 8.68591 6.64957V4.76521C8.77059 4.76012 8.85036 4.75525 8.93258 4.74795H8.93481C9.01949 4.74286 9.10193 4.73555 9.18393 4.72803Z" fill="#09997B"/>
<path fill-rule="evenodd" clip-rule="evenodd" d="M10.8117 4.53564V6.41978C10.7117 6.43461 10.6117 6.44966 10.5087 6.46183H10.506C10.4057 6.47423 10.3089 6.48905 10.2059 6.49901V4.61466C10.3089 4.60492 10.406 4.59009 10.5057 4.5777H10.5087C10.6117 4.5653 10.7117 4.55047 10.8117 4.53564H10.8117Z" fill="#09997B"/>
<path fill-rule="evenodd" clip-rule="evenodd" d="M12.291 4.18408V6.06844C12.1913 6.09323 12.0913 6.11779 11.9883 6.14258H11.9853C11.8883 6.16472 11.7885 6.18707 11.6855 6.20942V4.32507C11.7885 4.30293 11.8883 4.28058 11.9853 4.25823H11.9883C12.0913 4.23366 12.1913 4.20887 12.291 4.18408Z" fill="#09997B"/>
<path fill-rule="evenodd" clip-rule="evenodd" d="M13.6653 3.5388V5.42802C13.5882 5.47516 13.506 5.52452 13.4164 5.56901C13.4164 5.56901 13.4139 5.569 13.4139 5.57144C13.3366 5.61349 13.2546 5.65311 13.1675 5.69516V3.81058C13.2544 3.76853 13.3368 3.72891 13.4139 3.68443C13.5035 3.64016 13.5855 3.59059 13.6653 3.53857V3.5388Z" fill="#09997B"/>
</svg>
