<svg width="14" height="14" viewBox="0 0 14 14" fill="none" xmlns="http://www.w3.org/2000/svg">
<mask id="mask0_195_2389" style="mask-type:alpha" maskUnits="userSpaceOnUse" x="0" y="0" width="14" height="14">
<path d="M0 -9.53674e-07L14 -9.53674e-07L14 14L0 14L0 -9.53674e-07Z" fill="white"/>
</mask>
<g mask="url(#mask0_195_2389)">
<path d="M13.2631 7.36868C13.2631 6.60862 13.1279 5.88063 12.88 5.20678C12.7105 7.1922 11.652 8.21199 10.546 7.7371C9.50966 7.29205 10.2082 5.55715 10.2598 4.72931C10.3467 3.32599 10.2553 1.71968 7.70624 0.384151C8.76545 2.41047 7.82892 3.66899 6.84634 3.74599C5.75655 3.83073 4.75887 2.80947 5.12729 1.15157C3.93434 2.03063 3.89934 3.5102 4.2674 4.46736C4.65129 5.46505 4.25229 6.29399 3.31576 6.3861C2.26982 6.48926 1.68845 5.26573 2.2245 3.31605C1.29682 4.40841 0.736816 5.82315 0.736816 7.36868C0.736816 10.8278 3.54087 13.6318 6.99998 13.6318C10.4591 13.6318 13.2631 10.8278 13.2631 7.36868Z" fill="#F4900C"/>
</g>
<mask id="mask1_195_2389" style="mask-type:alpha" maskUnits="userSpaceOnUse" x="0" y="0" width="14" height="14">
<path d="M6.84634 3.74599C5.75692 3.8311 4.75887 2.80947 5.12729 1.15157C3.93397 2.03063 3.89971 3.51057 4.26776 4.46736C4.65129 5.46505 4.25229 6.29399 3.31576 6.3861C2.26982 6.48926 1.68882 5.26536 2.2245 3.31605C1.29682 4.40841 0.736816 5.82315 0.736816 7.36868C0.736816 10.8278 3.54087 13.6318 6.99998 13.6318C10.4591 13.6318 13.2631 10.8278 13.2631 7.36868C13.2631 6.60862 13.1279 5.88063 12.88 5.20678C12.7105 7.19184 11.652 8.21199 10.546 7.7371C9.51003 7.29205 10.2082 5.55715 10.2598 4.72931C10.3467 3.32599 10.2553 1.71968 7.70624 0.384151C8.76545 2.4101 7.82892 3.66936 6.84634 3.74599Z" fill="white"/>
</mask>
<g mask="url(#mask1_195_2389)">
<path d="M6.84634 3.74599C5.75692 3.8311 4.75887 2.80947 5.12729 1.15157C3.93397 2.03063 3.89971 3.51057 4.26776 4.46736C4.65129 5.46505 4.25229 6.29399 3.31576 6.3861C2.26982 6.48926 1.68882 5.26536 2.2245 3.31605C1.29682 4.40841 0.736816 5.82315 0.736816 7.36868C0.736816 10.8278 3.54087 13.6318 6.99998 13.6318C10.4591 13.6318 13.2631 10.8278 13.2631 7.36868C13.2631 6.60862 13.1279 5.88063 12.88 5.20678C12.7105 7.19184 11.652 8.21199 10.546 7.7371C9.51003 7.29205 10.2082 5.55715 10.2598 4.72931C10.3467 3.32599 10.2553 1.71968 7.70624 0.384151C8.76545 2.4101 7.82892 3.66936 6.84634 3.74599Z" fill="#FFA539" stroke="#EB7F07"/>
<path d="M11.421 11.4212C11.421 10.6155 11.2058 9.8606 10.8296 9.21034C10.8838 10.3465 9.88575 10.792 9.34859 10.5768C8.57307 10.2662 8.78086 9.73276 8.58117 8.6275C8.38149 7.52223 7.61407 6.75444 6.47786 6.41697C7.30681 8.75018 6.01844 9.61008 5.34312 9.76371C4.65344 9.92065 3.96044 9.76334 3.88123 8.28744C3.07696 9.08839 2.57886 10.1966 2.57886 11.4212C2.57886 13.8628 4.55838 15.8423 6.99991 15.8423C9.44144 15.8423 11.421 13.8628 11.421 11.4212Z" fill="#FFCC4D" stroke="#F79219"/>
</g>
</svg>
