<svg width="14" height="14" viewBox="0 0 14 14" fill="none" xmlns="http://www.w3.org/2000/svg">
<path d="M7 1.08594C3.30012 1.08594 0.300781 2.9262 0.300781 5.1963C0.300781 7.22953 3.57038 11.2044 7 11.2044C10.4296 11.2044 13.6992 7.22953 13.6992 5.1963C13.6992 2.9262 10.6999 1.08594 7 1.08594Z" fill="#92B2FF"/>
<path d="M7 1.08594C3.30012 1.08594 0.300781 2.9262 0.300781 5.1963C0.300781 7.22953 3.57038 11.2044 7 11.2044C7.73894 11.2044 8.47036 11.0196 9.16336 10.7097C5.34086 9.18081 3.00152 2.66892 7 1.08594Z" fill="#759CFF"/>
<path d="M6.99994 3.05225C4.11862 3.05225 1.78284 4.48539 1.78284 6.25324C1.78284 7.83664 4.32909 10.9322 6.99994 10.9322C9.6708 10.9322 12.217 7.83664 12.217 6.25324C12.217 4.48539 9.88126 3.05225 6.99994 3.05225Z" fill="#759CFF"/>
<path d="M5.04284 3.28516C3.13135 3.76014 1.78284 4.90989 1.78284 6.25307C1.78284 7.83647 4.32909 10.932 6.99994 10.932C7.59677 10.932 8.18729 10.7771 8.74469 10.5194C6.18874 9.21951 4.42389 5.72427 5.04284 3.28516Z" fill="#5485FF"/>
<path d="M7 11.6435C5.39236 11.6435 4.08911 10.3248 4.08911 8.69799C4.08911 7.07121 5.39236 5.75244 7 5.75244C8.60764 5.75244 9.91089 7.07121 9.91089 8.69799C9.91089 10.3248 8.60764 11.6435 7 11.6435Z" fill="white"/>
<path d="M9.42574 8.56726L8.69802 7.83154L8.21287 8.32202L8.45545 8.56726L7 10.0387L6.51485 9.54822L6.75743 9.30298L6.87871 9.4256V8.68988H6.15099L6.27228 8.8125L5.54456 9.54822L7 11.0197L9.42574 8.56726Z" fill="#3377FF"/>
<path d="M8.45541 7.75194L6.99996 6.37646L4.57422 8.66892L5.30194 9.35666L5.78709 8.89817L5.54452 8.66892L6.99996 7.29345L7.48511 7.75194L7.24254 7.98119L7.12125 7.86656V8.5543H7.84897L7.72768 8.43968L8.45541 7.75194Z" fill="#2AD4B7"/>
<path d="M13.3993 11.1889C13.7376 11.2792 13.8088 11.7271 13.5143 11.9163C12.396 12.6348 9.89991 13.9922 7.00005 13.9922C4.1002 13.9922 1.60407 12.6348 0.485817 11.9163C0.19127 11.727 0.262528 11.2792 0.600825 11.1889C1.46825 10.9574 3.2891 10.6729 7.00008 10.6729C10.7111 10.6729 12.5319 10.9573 13.3993 11.1889Z" fill="#5485FF"/>
<path d="M11.3396 13.0579C5.71508 14.2314 2.3565 10.8838 2.35645 10.8838C1.53835 10.9769 0.978953 11.0879 0.600816 11.1888C0.262547 11.2791 0.191261 11.727 0.485808 11.9162C1.60406 12.6348 4.10019 13.9921 7.00005 13.9921C8.63242 13.9921 10.1368 13.562 11.3396 13.0579Z" fill="#92B2FF"/>
</svg>
