<?xml version="1.0" standalone="no"?><!DOCTYPE svg PUBLIC "-//W3C//DTD SVG 1.1//EN" "http://www.w3.org/Graphics/SVG/1.1/DTD/svg11.dtd"><svg t="1652000609089" class="icon" viewBox="0 0 1024 1024" version="1.1" xmlns="http://www.w3.org/2000/svg" p-id="28009" xmlns:xlink="http://www.w3.org/1999/xlink" width="48" height="48"><defs><style type="text/css">@font-face { font-family: feedback-iconfont; src: url("//at.alicdn.com/t/font_1031158_u69w8yhxdu.woff2?t=1630033759944") format("woff2"), url("//at.alicdn.com/t/font_1031158_u69w8yhxdu.woff?t=1630033759944") format("woff"), url("//at.alicdn.com/t/font_1031158_u69w8yhxdu.ttf?t=1630033759944") format("truetype"); }
</style></defs><path d="M1001.6 452.8l-120-140.8c-17.6-17.6-43.2-20.8-59.2-4.8-17.6 17.6-20.8 43.2-4.8 59.2l84.8 102.4H43.2C17.6 468.8 0 486.4 0 512s17.6 43.2 43.2 43.2h860.8l-84.8 102.4c-17.6 17.6-12.8 46.4 4.8 59.2 8 8 17.6 8 25.6 8 12.8 0 25.6-4.8 33.6-17.6l120-140.8c28.8-27.2 28.8-78.4-1.6-113.6z" p-id="28010"></path></svg>