<svg width="30" height="18" viewBox="0 0 30 18" fill="none" xmlns="http://www.w3.org/2000/svg">
<path d="M28.8246 12.7073L22.4895 1.71849C21.1007 -0.571864 17.7139 -0.59623 16.3738 1.81594L9.72206 13.2434C8.47938 15.3388 10.0144 17.9702 12.4997 17.9702H25.8276C28.3372 17.9702 30.2134 15.2656 28.8246 12.7073Z" fill="#00B897"/>
<path d="M19.6874 13.5601L19.2976 12.8779C18.9321 12.2444 18.128 10.8799 18.128 10.8799L12.7676 1.57233C11.3788 -0.498729 8.08951 -0.669288 6.70068 1.93781L0.463126 12.7317C-0.828242 14.9977 0.70678 17.9459 3.50881 17.9703H16.7636H22.4164H25.7788C22.3433 17.9947 21.2469 16.2159 19.6874 13.5601Z" fill="#76FCB2"/>
<path d="M19.6874 13.56L19.2976 12.8779C18.9321 12.2444 18.128 10.8799 18.128 10.8799L14.6682 4.78851L9.6976 13.2677C8.45499 15.3631 9.99001 17.9946 12.4753 17.9946H16.7392H22.392H25.7788C22.319 17.9702 21.2468 16.2159 19.6874 13.56Z" fill="url(#paint0_linear_71_1757)"/>
<defs>
<linearGradient id="paint0_linear_71_1757" x1="7.92861" y1="10.1287" x2="22.6591" y2="15.5721" gradientUnits="userSpaceOnUse">
<stop stop-color="#53E57A" stop-opacity="0"/>
<stop offset="1" stop-color="#00A977"/>
</linearGradient>
</defs>
</svg>
