<?xml version="1.0" encoding="UTF-8"?>
<svg width="512px" height="512px" viewBox="0 0 512 512" version="1.1" xmlns="http://www.w3.org/2000/svg" xmlns:xlink="http://www.w3.org/1999/xlink">
    <title>Artboard</title>
    <g id="Artboard" stroke="none" stroke-width="1" fill="none" fill-rule="evenodd">
        <g id="mint" transform="translate(0.000000, 27.000000)">
            <path d="M464,318 L464,379.995042 C464,393.583206 453.958416,406.356182 436.15738,417.585396 C433.629464,419.13731 430.932953,420.760553 427.99472,422.224834 C427.99472,422.224834 427.914485,422.224834 427.914485,422.304315 C425.378444,423.688097 422.689043,424.991378 419.832061,426.37516 C410.273919,430.846466 399.254279,434.99781 387.167205,438.661061 C384.477804,439.476249 381.781293,440.284304 379.004546,441.100511 L378.924311,441.100511 C376.308035,441.828066 373.618633,442.563773 370.841887,443.29948 C360.050764,446.039531 349.153,448.347532 338.176016,450.217369 C335.48763,450.69833 332.791118,451.193557 330.013356,451.601151 L329.940231,451.601151 C327.23661,452.001612 324.628459,452.489705 321.850697,452.817819 C311.320593,454.361581 300.461422,455.584363 289.192951,456.56055 C286.49644,456.801031 283.807038,457.048644 281.030292,457.215757 L280.950057,457.215757 C267.393359,458.240856 253.805178,458.811488 240.209886,458.927652 C237.506266,459 234.816864,459 232.040118,459 L231.959882,459 C229.183136,459 226.56686,459 223.877458,458.9195 C210.252714,458.806393 196.636094,458.235761 183.049943,457.208625 L182.976818,457.208625 C180.199056,457.048644 177.583795,456.801031 174.887284,456.553417 C163.96616,455.631236 153.075505,454.385017 142.228522,452.817819 C139.451776,452.489705 136.755265,452.001612 134.065863,451.594018 L133.985628,451.594018 C131.208882,451.193557 128.592606,450.69833 125.896094,450.210236 C114.922157,448.340399 104.02744,446.032398 93.2383481,443.292347 C90.4615002,442.563773 87.6845507,441.836218 85.0757905,441.107644 L84.9953522,441.107644 C82.2184027,440.284304 79.6023298,439.476249 76.9131312,438.661061 C64.8262612,434.99781 53.8063158,430.846466 44.2478692,426.37516 C41.4695995,425.106524 38.7462755,423.721723 36.08521,422.224834 C36.08521,422.224834 36.0120843,422.224834 36.0120843,422.144335 C33.1474855,420.760553 30.4582869,419.216791 27.9225508,417.585396 C10.1210982,406.443815 0,393.583206 0,379.995042 L0,318 L464,318 Z" id="Path" fill="#10BA97"></path>
            <path d="M464,318.007642 C464,331.595884 453.958416,344.367976 436.15738,355.436444 C433.548213,357.140068 430.851702,358.764218 427.914485,360.227379 C425.378444,361.691559 422.689043,362.994751 419.832061,364.378436 C410.273919,368.856565 399.254279,372.919996 387.167205,376.662468 C384.477804,377.4776 381.781293,378.29375 379.004546,379.10175 L378.924311,379.10175 C376.308035,379.837406 373.618633,380.573062 370.841887,381.300567 C360.050764,384.042466 349.153,386.350307 338.176016,388.218996 C335.48763,388.706037 332.791118,389.194097 330.013356,389.601663 L329.940231,389.601663 C327.23661,390.010247 324.628459,390.498307 321.850697,390.818246 C311.320593,392.369034 300.461422,393.585618 289.192951,394.560719 C286.49644,394.808315 283.807038,395.048779 281.030292,395.2169 L280.950057,395.2169 C267.393359,396.243966 253.805178,396.814558 240.209886,396.927657 C237.506266,397 234.816864,397 232.040118,397 L231.959882,397 C229.183136,397 226.57397,397 223.877458,396.927657 C210.252714,396.816595 196.635078,396.246003 183.049943,395.2169 L182.976818,395.2169 C180.199056,395.048779 177.583795,394.808315 174.887284,394.560719 C163.96616,393.636564 153.075505,392.388393 142.228522,390.818246 C139.451776,390.498307 136.755265,390.010247 134.065863,389.601663 L133.985628,389.601663 C131.208882,389.194097 128.592606,388.706037 125.896094,388.218996 C114.922157,386.349288 104.02744,384.041447 93.2383481,381.300567 C90.4615002,380.573062 87.6845507,379.837406 85.0757905,379.10175 L84.9953522,379.10175 C82.2184027,378.29375 79.6023298,377.4776 76.9131312,376.662468 C64.8262612,372.999471 53.8063158,368.856565 44.2478692,364.378436 C41.3978956,363.074226 38.6940719,361.691559 36.08521,360.227379 C36.08521,360.227379 36.0120843,360.227379 36.0120843,360.155036 C33.1474855,358.77135 30.4582869,357.220563 27.9225508,355.589281 C10.1210982,344.447452 0,331.595884 0,318.007642 C0,274.397086 103.937048,239 232.040118,239 C360.143187,239 464,274.397086 464,318.007642 Z" id="Path" fill="#21D8B3"></path>
            <path d="M230.316372,376 C228.005088,376 225.811705,376 223.551241,375.926542 C210.361471,375.815334 197.178816,375.270519 184.02462,374.293117 L183.022454,374.206395 L182.612846,374.206395 C180.513989,374.074783 178.502541,373.885016 176.45552,373.695249 C165.734575,372.797426 155.043107,371.581285 144.394327,370.049885 C142.192813,369.773396 140.649924,369.517313 139.11415,369.277554 L134.609483,368.584802 C132.978168,368.321577 128.788584,367.556387 128.788584,367.556387 C118.305476,365.778086 107.899615,363.57434 97.5977308,360.950249 C95.133174,360.30851 92.4785511,359.601475 89.9774041,358.908723 L82.2036015,356.575405 C73.6453446,354.018651 65.24097,350.976257 57.0317435,347.461485 L57.0317435,347.366602 L44.6725724,341.372616 L40.7454219,339.178052 L40.5918444,339.178052 C39.9901381,338.819943 39.3951399,338.450612 38.8074598,338.070057 C25.599903,329.794786 21,322.648935 21,319.003571 C21,298.908669 100.742155,262 231.040046,262 C361.287117,262 441,298.908669 441,319.003571 C441,322.634651 436.437399,329.721328 423.57999,337.720111 C421.507559,339.105614 419.355849,340.371748 417.138073,341.51137 L415.937709,342.160251 C413.883573,343.348846 411.674945,344.391544 409.356546,345.514843 C401.384953,349.25509 391.343977,353.024925 379.709293,356.626417 L372.030422,358.901581 C369.529072,359.601475 366.947426,360.30851 364.2926,361.001262 C353.959919,363.626373 343.837632,365.769924 333.548656,367.512516 C331.281077,367.920617 329.226941,368.300151 327.163657,368.620511 L322.710827,369.306121 C321.269577,369.539759 319.822229,369.780538 318.323045,369.962143 C307.937512,371.479259 297.66988,372.65255 286.312672,373.637094 C283.957683,373.856449 281.70535,374.060499 279.387967,374.206395 L277.976193,374.293117 C265.022227,375.265418 252.038786,375.808192 239.048229,375.9194 C236.283633,375.992858 233.965233,376 231.618375,376 L230.316372,376 Z" id="Path" fill="#10BA97"></path>
            <path d="M44,363.691559 L44,425 C41.2758252,423.745538 38.6055767,422.376209 35.9964182,420.895037 C35.9964182,420.895037 35.9247817,420.895037 35.9247817,420.816444 C33.1185235,419.448123 30.4840932,417.921609 28,416.308441 L28,355 C30.4769296,356.61216 33.118623,358.139682 35.9177176,359.506996 C35.9177176,359.586596 35.9964182,359.586596 35.9964182,359.586596 C38.5593115,361.03351 41.2009054,362.401831 44,363.691559 Z" id="Path" fill="#09997B"></path>
            <path d="M93,380.663507 L93,443 C90.279606,442.267485 87.559212,441.528824 84.9964182,440.789137 L84.9176181,440.789137 C82.1973236,439.968516 79.6344303,439.15609 77,438.336493 L77,376 C79.6344303,376.819597 82.1973236,377.639194 84.9176181,378.452644 L84.9964182,378.452644 C87.559212,379.191306 90.2724424,379.930992 92.9928364,380.663507 L93,380.663507 Z" id="Path" fill="#09997B"></path>
            <path d="M143,391.615461 L143,454 C140.279771,453.669863 137.638144,453.17876 135.003482,452.768652 L134.92488,452.768652 C132.204651,452.365721 129.641627,451.867441 127,451.376337 L127,389 C129.648592,389.491104 132.204651,389.982208 134.92488,390.392315 L134.996518,390.392315 C137.645109,390.802423 140.279771,391.293527 143,391.615461 Z" id="Path" fill="#09997B"></path>
            <path d="M192,395.219447 L192,457 C189.279771,456.832466 186.638144,456.673054 183.996518,456.426322 L183.92488,456.426322 C181.204651,456.266911 178.641627,456.020178 176,455.773446 L176,394 C178.641627,394.246732 181.197687,394.486357 183.917916,394.652876 L183.996518,394.652876 C186.645109,394.892501 189.279771,395.051912 192,395.219447 Z" id="Path" fill="#09997B"></path>
            <path d="M239,397.007124 L239,458.919606 C236.365186,459 233.722409,459 231,459 L230.921364,459 C228.19995,459 225.635809,459 223,458.919606 L223,397 C225.642777,397.080394 228.19995,397.080394 230.921364,397.080394 L231,397.080394 C233.722409,397.080394 236.365186,397.080394 239,397.007124 Z" id="Path" fill="#09997B"></path>
            <path d="M289,394 L289,455.780553 C286.358373,456.020178 283.723711,456.266911 281.003482,456.433429 L280.92488,456.433429 C278.276289,456.673054 275.720229,456.832466 273,457 L273,395.219447 C275.720229,395.051912 278.283254,394.892501 280.92488,394.652876 L280.996518,394.652876 C283.716746,394.486357 286.365338,394.246732 289,394 Z" id="Path" fill="#09997B"></path>
            <path d="M343,389 L343,451.377321 C339.863446,451.868432 336.72592,452.366721 333.495143,452.769658 L333.410634,452.769658 C330.265337,453.179772 327.229806,453.670883 324,454 L324,391.615502 C327.229806,391.293563 330.27408,390.802451 333.401892,390.392337 L333.496115,390.392337 C336.72592,389.982223 339.863446,389.491112 343,389 L343,389 Z" id="Path" fill="#09997B"></path>
            <path d="M390,376 L390,438.336493 C386.870748,439.15609 383.731778,439.968516 380.500486,440.789137 L380.40622,440.789137 C377.361516,441.520628 374.231293,442.260314 371,443 L371,380.663507 C374.231293,379.930992 377.361516,379.191306 380.40622,378.452644 L380.500486,378.452644 C383.731778,377.639194 386.870748,376.819597 390,376 Z" id="Path" fill="#09997B"></path>
            <path d="M436,355.007036 L436,416.329035 C433.521463,417.858969 430.878686,419.461278 428,420.904763 C428,420.904763 427.921364,420.904763 427.921364,420.984175 C425.435859,422.348249 422.80005,423.634921 420,425 L420,363.828784 C422.793082,362.463705 425.442827,361.178038 427.921364,359.734552 C430.80005,358.297098 433.435859,356.687752 436,355 L436,355.007036 L436,355.007036 Z" id="Path" fill="#09997B"></path>
            <path d="M512,199 L512,260.994471 C512,274.582734 501.959427,287.356821 484.157367,298.586116 C481.629451,300.137022 478.932938,301.761296 475.994705,303.224569 C475.994705,303.224569 475.914469,303.224569 475.914469,303.305069 C473.378428,304.687841 470.69004,305.992152 467.832042,307.375943 C458.273896,311.847281 447.25425,315.997637 435.167172,319.660914 C432.477769,320.476108 429.781257,321.285188 427.004509,322.100382 L426.924274,322.100382 C424.307997,322.828961 421.618594,323.564673 418.841846,324.299367 C408.050719,327.040456 397.152949,329.347455 386.176976,331.218325 C383.487573,331.69827 380.791061,332.1935 378.014313,332.601097 L377.941188,332.601097 C375.23655,333.00258 372.628398,333.489658 369.851651,333.817774 C359.320526,335.361547 348.461351,336.585357 337.192874,337.560532 C334.496362,337.801015 331.807975,338.04863 329.030212,338.215745 L328.949976,338.215745 C315.393273,339.24187 301.805086,339.812505 288.209788,339.927652 C285.506166,340 282.816764,340 280.040016,340 L279.959781,340 C277.183033,340 274.566756,340 271.877353,339.920519 C258.252603,339.80741 244.635977,339.235756 231.04982,338.208612 L230.976695,338.208612 C228.199947,338.04863 225.58367,337.801015 222.887158,337.5534 C211.966029,336.631212 201.075369,335.386003 190.229397,333.817774 C187.451634,333.489658 184.755122,333.00258 182.066734,332.593964 L181.985483,332.593964 C179.208736,332.1935 176.592459,331.69827 173.895946,331.210173 C162.922004,329.340322 152.027282,327.032304 141.238186,324.292234 C138.461438,323.563654 135.684691,322.836094 133.075523,322.107515 L132.995288,322.107515 C130.21854,321.285188 127.602263,320.476108 124.91286,319.660914 C112.825782,315.997637 101.806136,311.847281 92.2478886,307.375943 C89.4696176,306.107298 86.7462925,304.722487 84.0852258,303.224569 C84.0852258,303.224569 84.0122016,303.224569 84.0122016,303.144068 C81.1476016,301.761296 78.4583003,300.216503 75.922563,298.586116 C58.1211128,287.443435 48,274.582734 48,260.994471 L48,199 L512,199 Z" id="Path" fill="#10BA97"></path>
            <path d="M512,199.006623 C512,212.594865 501.959425,225.366958 484.157361,236.435425 C481.549209,238.13905 478.852696,239.763199 475.914462,241.22636 C473.378419,242.69054 470.690031,243.993732 467.832032,245.377418 C458.273884,249.855546 447.254236,253.918977 435.167155,257.66145 C432.477752,258.4776 429.781239,259.292732 427.00449,260.100731 L426.924255,260.100731 C424.307978,260.836387 421.618574,261.572043 418.841826,262.300567 C408.050696,265.041447 397.15394,267.349288 386.176949,269.217977 C383.487545,269.706037 380.791032,270.194097 378.014284,270.601663 L377.941158,270.601663 C375.23652,271.009228 372.628368,271.497288 369.85162,271.817227 C359.320492,273.369034 348.461315,274.584599 337.193852,275.560719 C334.497339,275.808315 331.807935,276.048779 329.031187,276.215881 L328.949936,276.215881 C315.39323,277.242947 301.806055,277.814558 288.209739,277.926638 C285.506117,278 282.816713,278 280.039965,278 L279.95973,278 C277.182982,278 274.573814,278 271.877301,277.926638 C258.252547,277.815576 244.635918,277.244984 231.049759,276.215881 L230.976633,276.215881 C228.199885,276.048779 225.583607,275.808315 222.887094,275.560719 C211.965963,274.635545 201.075301,273.387374 190.229327,271.817227 C187.452578,271.497288 184.756066,271.009228 182.066662,270.601663 L181.986427,270.601663 C179.208663,270.194097 176.593401,269.706037 173.896888,269.217977 C162.921928,267.349288 152.027203,265.041447 141.238105,262.300567 C138.461356,261.572043 135.684608,260.836387 133.07544,260.100731 L132.995205,260.100731 C130.218457,259.292732 127.602179,258.4776 124.912775,257.66145 C112.82671,253.999471 101.806046,249.855546 92.2478983,245.377418 C89.3979228,244.074226 86.6940973,242.69054 84.0852337,241.22636 C84.0852337,241.22636 84.0122095,241.22636 84.0122095,241.154017 C81.1476089,239.770332 78.4583069,238.219544 75.9225692,236.588262 C58.121115,225.447452 48,212.594865 48,199.006623 C48,155.396068 151.936812,120 280.039965,120 C408.143119,120 512,155.396068 512,199.006623 Z" id="Path" fill="#21D8B3"></path>
            <path d="M280.316525,255 C278.005242,255 275.810845,255 273.551399,254.926542 C260.361638,254.815336 247.177977,254.270526 234.02379,253.293132 L233.022641,253.205391 L232.613034,253.205391 C230.514178,253.0748 228.502732,252.885035 226.454695,252.695269 C215.734775,251.796435 205.042298,250.581324 194.394542,249.049938 C192.19303,248.772432 190.650142,248.517371 189.114369,248.276593 L184.609706,247.583848 C182.978391,247.321645 178.787794,246.556462 178.787794,246.556462 C168.305711,244.778178 157.899857,242.574451 147.597675,239.950384 C145.132917,239.308651 142.478093,238.601622 139.977761,237.908876 L132.203354,235.575579 C123.645306,233.018848 115.240735,229.976481 107.031311,226.461741 L107.031311,226.366858 L94.6725552,220.372926 L90.7454075,218.178382 L90.5918302,218.178382 C89.9900226,217.820276 89.3951265,217.450948 88.8074468,217.070397 C75.5998997,208.794179 71,201.649412 71,198.003061 C71,177.908339 150.742402,141 281.040198,141 C411.287175,141 491,177.908339 491,198.003061 C491,201.635129 486.436386,208.721742 473.580003,216.720453 C471.507573,218.105944 469.355865,219.372067 467.137074,220.511679 L465.937728,221.160554 C463.882577,222.349138 461.67395,223.391827 459.356569,224.515116 C451.384981,228.255329 441.344013,232.02513 429.708321,235.626591 L422.029456,237.901734 C419.529124,238.601622 416.94748,239.308651 414.292656,240.001396 C403.958966,242.626483 393.837703,244.770016 383.548734,246.512592 C381.281157,246.920689 379.226006,247.30022 377.16374,247.620577 L372.709896,248.306181 C371.269664,248.539816 369.821301,248.779574 368.322118,248.962197 C357.937609,250.4793 347.669984,251.65258 336.312785,252.637115 C333.957797,252.855448 331.705465,253.060517 329.387068,253.205391 L327.976311,253.293132 C315.021338,254.265424 302.038923,254.808194 289.048376,254.919401 C286.283781,254.991838 283.965384,255 281.617511,255 L280.316525,255 Z" id="Path" fill="#10BA97"></path>
            <path d="M92,244.691559 L92,306 C89.2759077,304.746545 86.6056426,303.377217 83.9964679,301.896044 C83.9964679,301.896044 83.924831,301.896044 83.924831,301.816444 C81.1185553,300.448123 78.4841087,298.921609 76,297.308441 L76,236 C78.476945,237.613168 81.1185553,239.139682 83.9176673,240.508003 C83.9176673,240.587604 83.9964679,240.587604 83.9964679,240.587604 C86.5592777,242.034518 89.200888,243.402839 92,244.691559 Z" id="Path" fill="#09997B"></path>
            <path d="M141,261.663507 L141,324 C138.279771,323.26851 135.559542,322.528824 132.996518,321.789137 L132.916921,321.789137 C130.196692,320.96954 127.633667,320.15609 125,319.336493 L125,257 C127.633667,257.819597 130.196692,258.640218 132.916921,259.452644 L132.996518,259.452644 C135.559542,260.19233 138.271811,260.932016 140.993035,261.663507 L141,261.663507 Z" id="Path" fill="#09997B"></path>
            <path d="M190,271.616486 L190,334 C187.279771,333.669863 184.638144,333.17876 182.003482,332.768652 L181.92488,332.768652 C179.204651,332.365721 176.641627,331.867441 174,331.376337 L174,269 C176.648592,269.491104 179.204651,269.982208 181.92488,270.392315 L181.996518,270.392315 C184.645109,270.802423 187.279771,271.293527 190,271.616486 Z" id="Path" fill="#09997B"></path>
            <path d="M239,276.218431 L239,338 C236.279771,337.832466 233.638144,337.673054 230.996518,337.426322 L230.92488,337.426322 C228.203656,337.266911 225.641627,337.020178 223,336.773446 L223,275 C225.641627,275.246732 228.196692,275.486357 230.916921,275.652876 L230.996518,275.652876 C233.645109,275.892501 236.279771,276.051912 239,276.218431 Z" id="Path" fill="#09997B"></path>
            <path d="M289,278.007124 L289,339.920624 C286.364191,340 283.721413,340 281,340 L280.920368,340 C278.198955,340 275.634814,340 273,339.920624 L273,278 C275.642777,278.080394 278.198955,278.080394 280.920368,278.080394 L281,278.080394 C283.721413,278.080394 286.364191,278.080394 289,278.007124 Z" id="Path" fill="#09997B"></path>
            <path d="M336,275 L336,336.780553 C333.358373,337.020178 330.723711,337.266911 328.003482,337.433429 L327.92488,337.433429 C325.276289,337.673054 322.720229,337.832466 320,338 L320,276.218431 C322.720229,276.051912 325.283254,275.892501 327.92488,275.652876 L327.996518,275.652876 C330.716746,275.486357 333.366333,275.246732 336,275 Z" id="Path" fill="#09997B"></path>
            <path d="M390,269 L390,331.376337 C386.863446,331.867441 383.72592,332.365721 380.496115,332.768652 L380.410634,332.768652 C377.265337,333.17876 374.230777,333.669863 371,334 L371,271.616486 C374.230777,271.293527 377.27408,270.802423 380.401892,270.392315 L380.496115,270.392315 C383.726892,269.982208 386.863446,269.491104 390,269 L390,269 Z" id="Path" fill="#09997B"></path>
            <path d="M438,257 L438,319.336493 C434.869937,320.15609 431.732099,320.96954 428.5,321.789137 L428.40671,321.789137 C425.361191,322.521652 422.232099,323.261338 419,324 L419,261.663507 C422.232099,260.932016 425.361191,260.19233 428.40671,259.452644 L428.5,259.452644 C431.732099,258.640218 434.869937,257.819597 438,257 Z" id="Path" fill="#09997B"></path>
            <path d="M484,236.007037 L484,297.32891 C481.522459,298.859871 478.879681,300.461198 476,301.90571 C476,301.90571 475.921364,301.90571 475.921364,301.984117 C473.435859,303.349216 470.80005,304.634901 468,306 L468,244.82891 C470.793082,243.463812 473.442827,242.178126 475.921364,240.733615 C478.80005,239.297145 481.435859,237.687776 484,236 L484,236.007037 Z" id="Path" fill="#09997B"></path>
            <path d="M476,79 L476,140.994023 C476,154.583206 465.958414,167.356182 448.157374,178.585396 C445.629457,180.136291 442.932946,181.760553 439.994713,183.223815 C439.994713,183.223815 439.914477,183.223815 439.914477,183.304315 C437.378436,184.688097 434.689034,185.991378 431.832052,187.37516 C422.273908,191.846466 411.253249,195.996791 399.167189,199.660042 C396.477786,200.476249 393.781275,201.284304 391.004528,202.099492 L390.924292,202.099492 C388.308016,202.828066 385.618614,203.563773 382.841867,204.29948 C372.050741,207.039531 361.152975,209.347532 350.175988,211.217369 C347.487601,211.697311 344.79109,212.192538 342.013327,212.601151 L341.940201,212.601151 C339.23658,213.001612 336.628429,213.489705 333.850666,213.8168 C323.320559,215.360562 312.461386,216.584363 301.192913,217.559531 C298.496401,217.800012 295.806999,218.047625 293.030252,218.215757 L292.950017,218.215757 C279.393316,219.240856 265.805132,219.811488 252.209837,219.926633 C249.506216,220 246.816814,220 244.040067,220 L243.959832,220 C241.183085,220 238.566808,220 235.877406,219.9195 C222.252658,219.806393 208.636035,219.235761 195.049882,218.208625 L194.976756,218.208625 C192.198994,218.047625 189.583733,217.800012 186.887221,217.552398 C175.966094,216.630217 165.075437,215.385017 154.228452,213.8168 C151.451705,213.489705 148.755193,213.001612 146.065791,212.592999 L145.985556,212.592999 C143.208809,212.192538 140.592532,211.697311 137.89602,211.210236 C126.922081,209.33938 116.027361,207.031379 105.238267,204.291329 C102.46152,203.563773 99.6845699,202.835199 97.0757075,202.106625 L96.9953708,202.106625 C94.2184207,201.284304 91.6022457,200.476249 88.9130465,199.660042 C76.8261738,195.996791 65.806226,191.846466 56.2478789,187.37516 C53.469507,186.106524 50.746284,184.721723 48.0852179,183.223815 C48.0852179,183.223815 48.0120922,183.223815 48.0120922,183.144335 C45.1474928,181.760553 42.4582936,180.216791 39.9225569,178.585396 C22.1211106,167.443815 12,154.583206 12,140.994023 L12,79 L476,79 Z" id="Path" fill="#10BA97"></path>
            <path d="M476,79.0072852 C476,92.5951114 465.958414,105.367297 448.157374,116.435451 C445.548206,118.139075 442.851695,119.763224 439.914477,121.227403 C437.378436,122.690563 434.689034,123.993754 431.832052,125.377439 C422.273908,129.855564 411.253249,133.918992 399.167189,137.662482 C396.477786,138.477613 393.781275,139.292744 391.004528,140.101761 L390.924292,140.101761 C388.308016,140.836398 385.618614,141.572054 382.841867,142.300577 C372.050741,145.041455 361.152975,147.349295 350.175988,149.217982 C347.487601,149.706042 344.79109,150.194102 342.013327,150.601667 L341.940201,150.601667 C339.23658,151.009233 336.628429,151.497292 333.850666,151.81825 C323.320559,153.369037 312.461386,154.584601 301.192913,155.56072 C298.496401,155.808317 295.806999,156.04878 293.030252,156.215882 L292.950017,156.215882 C279.393316,157.243966 265.805132,157.814558 252.209837,157.927657 C249.506216,158 246.816814,158 244.040067,158 L243.959832,158 C241.183085,158 238.573918,158 235.877406,157.927657 C222.252658,157.816596 208.63502,157.244985 195.049882,156.215882 L194.976756,156.215882 C192.198994,156.04878 189.583733,155.808317 186.887221,155.56072 C175.966094,154.635547 165.075437,153.387377 154.228452,151.81825 C151.451705,151.497292 148.755193,151.009233 146.065791,150.601667 L145.985556,150.601667 C143.208809,150.194102 140.592532,149.706042 137.89602,149.217982 C126.922081,147.349295 116.027361,145.041455 105.238267,142.300577 C102.46152,141.572054 99.6845699,140.836398 97.0757075,140.101761 L96.9953708,140.101761 C94.2184207,139.292744 91.6022457,138.477613 88.9130465,137.662482 C76.8261738,133.999487 65.806226,129.855564 56.2478789,125.377439 C53.3979047,124.074248 50.6940804,122.690563 48.0852179,121.227403 C48.0852179,121.227403 48.0120922,121.227403 48.0120922,121.154041 C45.1474928,119.770356 42.4582936,118.219569 39.9225569,116.588289 C22.1211106,105.447384 12,92.5951114 12,79.0072852 C12,35.3967579 115.936969,0 244.040067,0 C372.143164,0 476,35.3967579 476,79.0072852 Z" id="Path" fill="#21D8B3"></path>
            <path d="M243.316576,135 C241.005294,135 238.810897,135 236.551451,134.926542 C223.361694,134.815335 210.178036,134.270522 197.023852,133.293125 L196.022703,133.206404 L195.613096,133.206404 C193.514241,133.074792 191.502795,132.885025 189.454759,132.695259 C178.734842,131.797441 168.042367,130.581305 157.394614,129.049912 C155.193102,128.773425 153.650215,128.517343 152.114442,128.277584 L147.60978,127.584836 C145.978466,127.321612 141.78787,126.556425 141.78787,126.556425 C131.305789,124.778133 120.899937,122.574396 110.597758,119.950318 C108.133001,119.308582 105.478177,118.60155 102.977845,117.908801 L95.2035423,115.575493 C86.6453953,113.019159 78.2410289,109.976065 70.0318103,106.461514 L70.0318103,106.366733 L57.6726511,100.373284 L53.7455044,98.1785262 L53.5919271,98.1785262 C52.9901197,97.820419 52.3952237,97.4508851 51.8074425,97.0703325 C38.6000002,88.7946908 34,81.6491781 34,78.003525 C34,57.9086132 113.742484,21 244.040249,21 C374.287194,21 454,57.9086132 454,78.003525 C454,81.6345885 449.436387,88.721743 436.580007,96.7202853 C434.507578,98.1061906 432.35587,99.3721146 430.13708,100.511834 L428.937734,101.160712 C426.882583,102.349199 424.673957,103.391893 422.356577,104.514676 C414.384991,108.255212 404.344025,112.024825 392.708336,115.626506 L385.029473,117.901659 C382.529141,118.60155 379.947498,119.308582 377.292674,120.00133 C366.958987,122.626429 356.837726,124.769971 346.547744,126.512555 C344.281183,126.920654 342.226033,127.300186 340.163767,127.620544 L335.709925,128.306151 C334.269693,128.539788 332.82133,128.780567 331.322148,128.962171 C320.937641,130.47928 310.670019,131.652565 299.312822,132.637105 C296.957835,132.856458 294.705504,133.060508 292.387107,133.206404 L290.976351,133.293125 C278.021381,134.265421 265.038969,134.808193 252.048425,134.9194 C249.283831,134.992858 246.965434,135 244.617562,135 L243.316576,135 Z" id="Path" fill="#10BA97"></path>
            <path d="M56,124.691434 L56,186 C53.2758252,184.745556 50.6056762,183.376247 47.9964182,181.895096 C47.9964182,181.895096 47.9247817,181.895096 47.9247817,181.815497 C45.1185235,180.448203 42.4840932,178.920703 40,177.308566 L40,116 C42.4769296,117.613145 45.118623,119.139637 47.9177176,120.507938 C47.9177176,120.587538 47.9964182,120.587538 47.9964182,120.587538 C50.5593115,122.034431 53.2009054,123.402732 56,124.691434 Z" id="Path" fill="#09997B"></path>
            <path d="M106,141.663435 L106,204 C103.279839,203.267496 100.55918,202.527822 97.9963187,201.788147 L97.9176191,201.788147 C95.1972589,200.968562 92.6343975,200.156149 90,199.33554 L90,137 C92.6343975,137.819584 95.1972589,138.640193 97.9176191,139.452606 L97.9963187,139.452606 C100.55918,140.192281 103.271879,140.931956 105.993035,141.663435 L106,141.663435 Z" id="Path" fill="#09997B"></path>
            <path d="M155,150.615502 L155,213 C152.278945,212.670883 149.637483,212.179772 147.00398,211.769658 L146.924388,211.769658 C144.204328,211.366721 141.641463,210.868432 139,210.377321 L139,148 C141.649422,148.491112 144.204328,148.981198 146.924388,149.392337 L146.99602,149.392337 C149.645442,149.802451 152.278945,150.293563 155,150.615502 Z" id="Path" fill="#09997B"></path>
            <path d="M202,156.219447 L202,218 C199.279771,217.833481 196.638144,217.673054 193.996518,217.426322 L193.92488,217.426322 C191.204651,217.266911 188.641627,217.020178 186,216.773446 L186,155 C188.641627,155.246732 191.197687,155.486357 193.917916,155.652876 L193.996518,155.652876 C196.645109,155.892501 199.279771,156.051912 202,156.219447 Z" id="Path" fill="#09997B"></path>
            <path d="M252,158.007124 L252,219.920622 C249.364191,220 246.721413,220 244,220 L243.920368,220 C241.198955,220 238.634814,220 236,219.920622 L236,158 C238.642777,158.079378 241.198955,158.079378 243.920368,158.079378 L244,158.079378 C246.721413,158.079378 249.364191,158.079378 252,158.007124 Z" id="Path" fill="#09997B"></path>
            <path d="M301,155 L301,216.780553 C298.358373,217.020178 295.723711,217.266911 293.003482,217.434445 L292.92488,217.434445 C290.276289,217.673054 287.720229,217.833481 285,218 L285,156.219447 C287.720229,156.051912 290.283254,155.892501 292.92488,155.652876 L292.996518,155.652876 C295.716746,155.486357 298.365338,155.246732 301,155 Z" id="Path" fill="#09997B"></path>
            <path d="M353,148 L353,210.377321 C349.863446,210.868432 346.72592,211.366721 343.496115,211.769658 L343.410634,211.769658 C340.265337,212.179772 337.229806,212.670883 334,213 L334,150.615502 C337.230777,150.293563 340.27408,149.802451 343.401892,149.392337 L343.496115,149.392337 C346.72592,148.981198 349.863446,148.491112 353,148 L353,148 Z" id="Path" fill="#09997B"></path>
            <path d="M403,137 L403,199.33554 C399.869937,200.156149 396.731127,200.968562 393.5,201.788147 L393.40671,201.788147 C390.361191,202.52065 387.232099,203.260325 384,204 L384,141.663435 C387.232099,140.931956 390.361191,140.192281 393.40671,139.452606 L393.5,139.452606 C396.731127,138.640193 399.869937,137.819584 403,137 Z" id="Path" fill="#09997B"></path>
            <path d="M449,116.007037 L449,177.32891 C446.521463,178.859871 443.878686,180.461198 441,181.90571 C441,181.90571 440.921364,181.90571 440.921364,181.984117 C438.435859,183.349216 435.80005,184.634901 433,186 L433,124.82891 C435.793082,123.463812 438.442827,122.178126 440.921364,120.733615 C443.80005,119.297145 446.435859,117.687776 449,116 L449,116.007037 Z" id="Path" fill="#09997B"></path>
        </g>
    </g>
</svg>