<?xml version="1.0" encoding="utf-8"?>
<svg width="196px" height="196px" viewBox="0 0 197 176.295" xmlns="http://www.w3.org/2000/svg">
  <g transform="matrix(0.977649, 0, 0, 0.977649, -52.039371, 0)">
    <g>
      <path fill="rgb(16,186,151)" fill-rule="evenodd" d="M234.99274599 124.80361126v24.205262c0 5.30565214-3.93327457 10.29285192-10.9066788 14.6772654-.99047512.60562913-2.0467912 1.23969167-3.19757478 1.8112008 0 0-.03148896 0-.03148896.03127654-.99333784.54023259-2.04679151 1.04918863-3.16608582 1.58942122-3.74434017 1.74580425-8.06120927 3.3665017-12.79602456 4.79669642-1.05345367.318453-2.10976975.63406253-3.1975751.95251522h-.03148896c-1.02482711.28433299-2.07828047.57150913-3.16608582.85868558-4.2272682 1.0699454-8.49604046 1.9710573-12.79602456 2.70116263-1.05345367.18765989-2.10976975.38100608-3.1975751.54023258h-.02862624c-1.0591788.15638304-2.0811432.34688608-3.16894854.47483604-4.12507199.60278567-8.37896284 1.08046517-12.79316216 1.46147126-1.05631608.09382995-2.10976943.19050304-3.19757478.2558996h-.03148896c-5.31070625.40032044-10.63346243.62317379-15.95924798.66818223-1.0591788.02843339-2.11263215.02843339-3.2004375.02843339h-.03148896c-1.08780535 0-2.11263247 0-3.16608582-.03127654-5.33724243-.04424305-10.67146873-.26709703-15.99359966-.66818255h-.02862624c-1.08780535-.06255309-2.11263247-.15922618-3.16894854-.2558996-4.27801503-.36000976-8.54429195-.8464346-12.79316216-1.4586278-1.08780504-.12794995-2.14412111-.318453-3.19757478-.47767918h-.03148896c-1.08780535-.15638335-2.11263247-.34972954-3.16894854-.54023258-4.29902745-.73015899-8.566844-1.63127089-12.79316185-2.70116294-1.08780535-.284333-2.1756107-.56866567-3.1975751-.85299866h-.03148895c-1.08780535-.32129615-2.11263247-.63690568-3.16608583-.95535868-4.73481539-1.43019472-9.05168457-3.05089217-12.79602469-4.79669642-1.08834352-.4953018-2.15515147-1.0360157-3.19757487-1.62069776 0 0-.02862643 0-.02862643-.03127655-1.122157-.54023258-2.17561048-1.14301826-3.16894842-1.77992426-6.97340407-4.35029378-10.93816787-9.37161325-10.93816787-14.6772654v-24.205262h181.76366629z"/>
      <path fill="rgb(33,216,179)" fill-rule="evenodd" d="M234.99274599 124.80361126c0 5.30565246-3.93327457 10.29285192-10.9066788 14.6147123-1.02196408.66533908-2.07828047 1.29940162-3.22906374 1.87091075-.99333784.57150913-2.04679151 1.08046518-3.16608582 1.62069745-3.74434017 1.74864772-8.06120927 3.33522547-12.79602456 4.79669673-1.05345367.31845269-2.10976975.63690569-3.1975751.95251522h-.03148896c-1.02482711.28717614-2.07828047.5743526-3.16608582.85868527-4.2271792 1.07032383-8.49596692 1.97143889-12.79602456 2.70116294-1.05345367.19050304-2.10976975.38100609-3.1975751.54023259h-.02862624c-1.0591788.1592265-2.0811432.34972954-3.16894854.47483603-4.12507199.60562914-8.37896284 1.08046486-12.79316216 1.46147126-1.05631608.0966731-2.10976943.19050305-3.19757478.2558996h-.03148896c-5.31065291.40121745-10.6334397.62407206-15.95924798.66818223-1.0591788.0284334-2.11263215.0284334-3.2004375.0284334h-.03148896c-1.08780535 0-2.10976975 0-3.16608582-.0284334-5.33726515-.043341-10.67152208-.26619623-15.99359966-.66818223h-.02862624c-1.08780535-.06539655-2.11263247-.1592265-3.16894854-.2558996-4.2780245-.36114475-8.54429606-.8485171-12.79316216-1.46147126-1.08780504-.12510649-2.14412111-.31560953-3.19757478-.47483603h-.03148896c-1.08780535-.1592265-2.11263247-.34972955-3.16894854-.5402326-4.29910162-.72977454-8.56693363-1.6308896-12.79316185-2.70116293-1.08780535-.28433267-2.1756107-.57150913-3.1975751-.85868527h-.03148895c-1.08780535-.31560953-2.11263247-.63406253-3.16608583-.95251522-4.73481539-1.43019472-9.05168457-3.04804901-12.79602469-4.79669673-1.11643168-.50895573-2.17561047-1.04918832-3.19757487-1.62069745 0 0-.02862643 0-.02862643-.0284334-1.122157-.54023258-2.17561048-1.14586172-3.16894842-1.7827674-6.97340407-4.35029378-10.93816787-9.3687698-10.93816787-14.67442225 0-17.02869895 40.71540478-30.85012245 90.89757767-30.85012245 50.1821732 0 90.86608862 13.8214235 90.86608862 30.85012245z"/>
      <path fill="rgb(16,186,151)" fill-rule="evenodd" d="M143.84325547 147.02991587c-.90459577 0-1.7633893 0-2.64794698-.02843308-5.16317618-.0434281-10.32350922-.25584531-15.4725981-.636906l-.39218238-.0341197h-.16030814c-.82157914-.05118017-1.6088066-.12510649-2.41034733-.19903312-4.19652128-.35043276-8.38164376-.8245296-12.54983706-1.42166464-.86165625-.10804664-1.46567444-.2075632-2.06682991-.30139284l-1.76338962-.27011629c-.63836987-.10236003-2.27866573-.4009094-2.27866573-.4009094-4.1033311-.69327441-8.17645121-1.55267552-12.20918237-2.57605645-.9647116-.25021298-2.00385168-.52601589-2.98287656-.79613218l-3.04299207-.90986544c-3.35001749-.99694291-6.6398108-2.1836058-9.85322518-3.5541616v-.03696316l-4.83787065-2.3372167-1.53724055-.85584212h-.06011555c-.23555137-.13967447-.46842152-.28376202-.69848547-.43218594-5.1699375-3.22717883-6.97054142-6.01364132-6.97054142-7.43530595 0-7.83621548 31.21428495-22.22914814 82.21803697-22.22914814 50.98371362 0 82.1865482 14.39293266 82.1865482 22.22914814 0 1.41597802-1.78629074 4.17969404-6.8188212 7.29882623-.81144064.54044374-1.65349373 1.03410207-2.52199084 1.4785311l-.46947357.25305645c-.80440345.4634625-1.66892242.8700585-2.5763809 1.30793138-3.12028359 1.4586278-7.05069543 2.92862914-11.60516418 4.33323362l-3.00577768.88711898c-.97902488.27295944-1.98953871.54876235-3.0286788.81887865-4.04491806 1.0235987-8.00681918 1.8595375-12.03456094 2.53909297-.88742008.1592265-1.69182354.30707977-2.4990894.43218626l-1.7433512.26727283c-.56394108.09098648-1.13074488.18481642-1.71758707.2558996-4.06495647.59141244-8.0841107 1.04918862-12.52979866 1.43303786-.92177177.08529987-1.80346673.16491312-2.71092522.2217799l-.55249052.0341197c-5.070806.3790792-10.1529019.59055015-15.23786116.63406253-1.08207991.0284334-1.98953872.03127655-2.90844776.03127655h-.509551z"/>
      <path fill="none" d="M67.33333333 165.46606291v-35.64397565"/>
      <path fill="rgb(9,153,123)" fill-rule="evenodd" d="M70.56525992 142.90993176v24.20810546c-1.08931297-.49522983-2.15707733-1.03594438-3.2004375-1.62069776 0 0-.02862643 0-.02862643-.03127655-1.122157-.54023258-2.17561048-1.14301826-3.16894842-1.77992426V139.4780335c.99047532.63690569 2.04679142 1.23969168 3.16608576 1.77992395 0 .03127686.03148909.03127686.03148909.03127686 1.02482705.57150913 2.08114319 1.11174172 3.2004375 1.62069745z"/>
      <path fill="none" d="M86.52164509 172.86724886V148.6591437"/>
      <path fill="rgb(9,153,123)" fill-rule="evenodd" d="M89.75643426 149.51782898v24.20810546c-1.08780503-.28433299-2.17561038-.57150913-3.2004375-.85868558h-.03148895c-1.08780535-.31845269-2.11263247-.63406222-3.16608583-.95251522v-24.20810515c1.05345336.31845269 2.07828048.63690569 3.16608583.95251522h.03148895c1.02482712.28717614 2.10976975.5743526 3.1975751.85868527h.0028624z"/>
      <path fill="none" d="M105.71568225 176.9644865v-24.205262"/>
      <path fill="rgb(9,153,123)" fill-rule="evenodd" d="M108.94474599 153.23406054v24.20810515c-1.08780504-.12794996-2.14412111-.318453-3.19757478-.47767919h-.03148896c-1.08780535-.15638335-2.11263247-.34972954-3.16894854-.54023258v-24.205262c1.05917879.19050304 2.08114319.38100609 3.16894854.54023259h.02862624c1.0591788.1592265 2.11263246.34972954 3.2004375.47483603z"/>
      <path fill="none" d="M124.90399397 179.15953655V154.9514314"/>
      <path fill="rgb(9,153,123)" fill-rule="evenodd" d="M128.13592043 155.17321099v24.20810515c-1.08780504-.06539656-2.14412111-.12794965-3.2004375-.22462306h-.02862624c-1.08780535-.06255309-2.11263247-.15922618-3.16894854-.2558996V154.6955318c1.05631607.0966731 2.07828047.19050305 3.16608582.2558996h.03148896c1.0591788.09382963 2.11263246.15638304 3.2004375.22177959z"/>
      <path fill="none" d="M144.0951684 179.85615217v-24.20810515"/>
      <path fill="rgb(9,153,123)" fill-rule="evenodd" d="M147.32421984 155.619613v24.20524969c-1.05346156.03127843-2.10976375.03127843-3.19756531.03127843h-.03149938c-1.08780156 0-2.11263594 0-3.1660975-.03127843v-24.20809032c1.05630219.03127844 2.07829594.03127844 3.1660975.03127844h.03149938c1.08780156 0 2.14413531 0 3.19756531-.02843781z"/>
      <path fill="none" d="M163.28634285 179.15953655V154.9514314"/>
      <path fill="rgb(9,153,123)" fill-rule="evenodd" d="M166.51540659 154.6955318v24.20810515c-1.05631608.09382995-2.10976943.19050304-3.19757478.2558996h-.03148896c-1.0591788.09382994-2.0811432.15638303-3.16894854.22177959v-24.20810515c1.08780535-.06539655 2.11263246-.12794996 3.16894854-.22177959h.02862624c1.08780535-.06539655 2.14698414-.1592265 3.2004375-.2558996z"/>
      <g>
        <path fill="none" d="M183.49941957 176.96448745v-24.20526193"/>
        <path fill="rgb(9,153,123)" fill-rule="evenodd" d="M187.427081 152.21898403v24.20524969c-1.28484625.19051125-2.5696925.38386312-3.89285563.54022375h-.03481344c-1.28831812.1592328-2.53140718.34974406-3.85453875.47766687v-24.20809031c1.32316313-.12511375 2.5696925-.315625 3.85106688-.47482625h.03831687c1.32316313-.15923281 2.60800938-.34974406 3.89285563-.54022375h-.00003156z"/>
      </g>
      <g>
        <path fill="none" d="M202.50378839 172.8672487v-24.20810527"/>
        <path fill="rgb(9,153,123)" fill-rule="evenodd" d="M206.4314614 147.70662811v24.20810528c-1.28136848.31845287-2.56621899.6340624-3.88937122.9525153h-.0383018c-1.24654868.2843329-2.52791719.57150917-3.85106945.85868544v-24.20810527c1.32315226-.28433293 2.60452077-.57150917 3.85106946-.85868543h.03830179c1.32315223-.31560954 2.60800274-.63406244 3.88937122-.95251532z"/>
      </g>
      <path fill="none" d="M220.85700345 165.528616v-24.23938169"/>
      <path fill="rgb(9,153,123)" fill-rule="evenodd" d="M224.0860672 139.4154801v24.27065855c-.99047513.60562914-2.0467912 1.23969168-3.19757479 1.8112008 0 0-.03148896 0-.03148896.03127655-.99333784.54023259-2.04679151 1.04918863-3.16608582 1.58942122V142.9070886c1.1164316-.5402326 2.17561038-1.04918863 3.16608582-1.62069777 1.15078327-.56866566 2.20423694-1.20557166 3.22906374-1.87375389v.00284315z"/>
    </g>
    <g>
      <path fill="rgb(16,186,151)" fill-rule="evenodd" d="M253.7100439 77.82686685v24.205262c0 5.30565214-3.93327457 10.29285192-10.9066788 14.6772654-.99047512.60562914-2.0467912 1.23969167-3.19757478 1.8112008 0 0-.03148896 0-.03148896.03127654-.99333784.5402326-2.04679151 1.04918864-3.16608582 1.58942122-3.74434018 1.74580426-8.06120927 3.3665017-12.79602457 4.79669642-1.05345367.318453-2.10976974.63406254-3.1975751.95251522h-.03148895c-1.02482712.284333-2.07828047.57150913-3.16608582.85868559-4.2272682 1.0699454-8.49604047 1.9710573-12.79602457 2.70116262-1.05345367.1876599-2.10976974.38100609-3.1975751.54023259h-.02862623c-1.0591788.15638303-2.0811432.34688608-3.16894854.47483603-4.12507199.60278568-8.37896285 1.08046518-12.79316216 1.46147126-1.05631608.09382995-2.10976944.19050305-3.19757479.2558996h-.03148895c-5.31070625.40032045-10.63346244.62317379-15.95924799.66818223-1.05917879.0284334-2.11263215.0284334-3.2004375.0284334h-.03148896c-1.08780535 0-2.11263246 0-3.16608582-.03127655-5.33724242-.04424305-10.67146873-.26709703-15.99359966-.66818254h-.02862624c-1.08780535-.0625531-2.11263246-.15922619-3.16894854-.2558996-4.27801502-.36000977-8.54429195-.8464346-12.79316216-1.4586278-1.08780503-.12794995-2.1441211-.318453-3.19757478-.47767918h-.03148896c-1.08780535-.15638335-2.11263246-.34972955-3.16894854-.54023259-4.29902744-.73015898-8.56684399-1.63127088-12.79316184-2.70116294-1.08780535-.28433299-2.1756107-.56866566-3.1975751-.85299865h-.03148896c-1.08780535-.32129615-2.11263246-.63690569-3.16608582-.95535869-4.7348154-1.43019472-9.05168458-3.05089216-12.79602469-4.79669642-1.08834352-.49530179-2.15515148-1.0360157-3.19757487-1.62069776 0 0-.02862643 0-.02862643-.03127654-1.122157-.5402326-2.17561048-1.14301827-3.16894842-1.77992427-6.97340407-4.35029377-10.93816788-9.37161325-10.93816788-14.6772654V77.82686686h181.7636663z"/>
      <path fill="rgb(33,216,179)" fill-rule="evenodd" d="M253.7100439 77.82686685c0 5.30565246-3.93327457 10.29285193-10.9066788 14.61471231-1.02196408.66533908-2.07828047 1.29940161-3.22906374 1.87091074-.99333784.57150914-2.04679151 1.08046518-3.16608582 1.62069745-3.74434018 1.74864772-8.06120927 3.33522547-12.79602457 4.79669674-1.05345367.31845268-2.10976974.63690568-3.1975751.95251521h-.03148895c-1.02482712.28717614-2.07828047.5743526-3.16608582.85868528-4.2271792 1.07032382-8.49596693 1.97143888-12.79602457 2.70116293-1.05345367.19050305-2.10976974.3810061-3.1975751.5402326h-.02862623c-1.0591788.1592265-2.0811432.34972953-3.16894854.47483603-4.12507199.60562914-8.37896285 1.08046485-12.79316216 1.46147126-1.05631608.0966731-2.10976944.19050304-3.19757479.2558996h-.03148895c-5.31065291.40121744-10.63343971.62407205-15.95924799.66818222-1.05917879.0284334-2.11263215.0284334-3.2004375.0284334h-.03148896c-1.08780535 0-2.10976974 0-3.16608582-.0284334-5.33726514-.043341-10.67152207-.26619623-15.99359966-.66818223h-.02862624c-1.08780535-.06539655-2.11263246-.1592265-3.16894854-.2558996-4.27802449-.36114475-8.54429605-.84851709-12.79316216-1.46147125-1.08780503-.1251065-2.1441211-.31560954-3.19757478-.47483604h-.03148896c-1.08780535-.1592265-2.11263246-.34972954-3.16894854-.54023259-4.29910161-.72977455-8.56693362-1.6308896-12.79316184-2.70116293-1.08780535-.28433268-2.1756107-.57150914-3.1975751-.85868528h-.03148896c-1.08780535-.31560953-2.11263246-.63406253-3.16608582-.95251521-4.7348154-1.43019472-9.05168458-3.04804902-12.79602469-4.79669674-1.11643168-.50895573-2.17561048-1.04918831-3.19757487-1.62069745 0 0-.02862643 0-.02862643-.02843339-1.122157-.54023259-2.17561048-1.14586173-3.16894842-1.78276741-6.97340407-4.35029378-10.93816788-9.36876979-10.93816788-14.67442225 0-17.02869895 40.71540479-30.85012244 90.89757767-30.85012244 50.1821732 0 90.86608862 13.8214235 90.86608862 30.85012244z"/>
      <path fill="rgb(16,186,151)" fill-rule="evenodd" d="M162.56055338 100.05317146c-.90459577 0-1.7633893 0-2.64794699-.02843308-5.16317618-.0434281-10.3235092-.2558453-15.4725981-.636906l-.39218237-.0341197h-.16030815c-.82157913-.05118016-1.60880659-.12510648-2.41034732-.19903312-4.19652128-.35043275-8.38164376-.8245296-12.54983706-1.42166463-.86165625-.10804665-1.46567444-.20756321-2.06682992-.30139284l-1.76338961-.2701163c-.63836987-.10236002-2.27866574-.4009094-2.27866574-.4009094-4.1033311-.69327441-8.1764512-1.55267552-12.20918236-2.57605644-.9647116-.25021298-2.00385168-.5260159-2.98287656-.79613219l-3.04299207-.90986544c-3.3500175-.99694291-6.6398108-2.1836058-9.85322519-3.5541616v-.03696315l-4.83787064-2.3372167-1.53724055-.85584212h-.06011555c-.23555138-.13967448-.46842152-.28376203-.69848548-.43218595-5.1699375-3.22717882-6.97054142-6.01364131-6.97054142-7.43530595 0-7.83621548 31.21428496-22.22914814 82.21803697-22.22914814 50.98371362 0 82.1865482 14.39293266 82.1865482 22.22914814 0 1.41597802-1.78629073 4.17969405-6.8188212 7.29882623-.81144063.54044374-1.65349373 1.03410207-2.52199083 1.47853111l-.46947357.25305645c-.80440345.46346249-1.66892242.8700585-2.5763809 1.30793138-3.1202836 1.4586278-7.05069544 2.92862914-11.60516419 4.33323361l-3.00577767.88711898c-.97902488.27295945-1.98953872.54876236-3.0286788.81887865-4.04491806 1.0235987-8.00681918 1.85953751-12.03456094 2.53909297-.88742009.1592265-1.69182354.30707977-2.4990894.43218626l-1.74335121.26727283c-.56394108.09098648-1.13074487.18481643-1.71758706.2558996-4.06495647.59141244-8.0841107 1.04918863-12.52979867 1.43303787-.92177176.08529986-1.80346673.16491311-2.71092522.2217799l-.55249051.0341197c-5.070806.37907919-10.1529019.59055015-15.23786116.63406253-1.08207992.02843339-1.98953872.03127654-2.90844777.03127654h-.509551z"/>
      <path fill="none" d="M86.05063124 118.4893185V82.84534287"/>
      <path fill="none" d="M86.05063124 149.71760351v-.0341197"/>
      <path fill="rgb(9,153,123)" fill-rule="evenodd" d="M89.28255783 95.93318735v24.20810546c-1.08931297-.49522982-2.15707733-1.03594437-3.2004375-1.62069776 0 0-.02862643 0-.02862643-.03127654-1.122157-.5402326-2.17561048-1.14301827-3.16894842-1.77992427V92.5012891c.99047531.63690568 2.04679142 1.23969167 3.16608576 1.77992394 0 .03127686.03148909.03127686.03148909.03127686 1.02482705.57150914 2.08114319 1.11174172 3.2004375 1.62069745z"/>
      <path fill="none" d="M105.238943 125.89050445V101.6823993"/>
      <path fill="rgb(9,153,123)" fill-rule="evenodd" d="M108.47373217 102.54108458v24.20810546c-1.08780503-.284333-2.17561038-.57150913-3.2004375-.85868559h-.03148896c-1.08780535-.31845268-2.11263246-.63406222-3.16608582-.95251522v-24.20810515c1.05345336.31845269 2.07828047.63690569 3.16608582.95251522h.03148896c1.02482712.28717614 2.10976975.5743526 3.1975751.85868528h.0028624z"/>
      <path fill="none" d="M124.43298015 129.9877421v-24.205262"/>
      <path fill="rgb(9,153,123)" fill-rule="evenodd" d="M127.6620439 106.25731614v24.20810514c-1.08780504-.12794995-2.14412112-.318453-3.19757479-.47767918h-.03148896c-1.08780535-.15638335-2.11263246-.34972955-3.16894854-.54023259v-24.205262c1.0591788.19050305 2.0811432.3810061 3.16894854.5402326h.02862624c1.0591788.1592265 2.11263247.34972953 3.2004375.47483603z"/>
      <path fill="none" d="M143.62129187 132.18279214V107.974687"/>
      <path fill="rgb(9,153,123)" fill-rule="evenodd" d="M146.85321833 108.19646658v24.20810515c-1.08780503-.06539655-2.1441211-.12794964-3.2004375-.22462305h-.02862624c-1.08780535-.0625531-2.11263246-.15922619-3.16894854-.2558996V107.7187874c1.05631608.0966731 2.07828047.19050304 3.16608582.2558996h.03148896c1.0591788.09382963 2.11263247.15638303 3.2004375.22177958z"/>
      <path fill="none" d="M162.81246631 132.87940776v-24.20810514"/>
      <path fill="rgb(9,153,123)" fill-rule="evenodd" d="M166.04151775 108.6428686v24.20524968c-1.05346157.03127844-2.10976375.03127844-3.19756532.03127844h-.03149937c-1.08780156 0-2.11263594 0-3.1660975-.03127844v-24.20809031c1.05630219.03127843 2.07829594.03127843 3.1660975.03127843h.03149937c1.08780157 0 2.14413532 0 3.19756532-.0284378z"/>
      <path fill="none" d="M182.00364076 132.18279214V107.974687"/>
      <path fill="rgb(9,153,123)" fill-rule="evenodd" d="M185.2327045 107.7187874v24.20810514c-1.05631608.09382995-2.10976944.19050305-3.19757479.2558996h-.03148895c-1.0591788.09382995-2.0811432.15638304-3.16894855.22177959v-24.20810515c1.08780535-.06539655 2.11263247-.12794995 3.16894855-.22177959h.02862624c1.08780535-.06539655 2.14698414-.1592265 3.2004375-.2558996z"/>
      <g>
        <path fill="none" d="M202.21671748 129.98774304v-24.20526193"/>
        <path fill="rgb(9,153,123)" fill-rule="evenodd" d="M206.1443789 105.24223962v24.20524969c-1.28484625.19051125-2.5696925.38386313-3.89285562.54022375h-.03481344c-1.28831813.15923281-2.53140719.34974406-3.85453875.47766688v-24.20809032c1.32316312-.12511375 2.5696925-.315625 3.85106687-.47482625h.03831688c1.32316312-.15923281 2.60800937-.34974406 3.89285562-.54022375h-.00003156z"/>
      </g>
      <g>
        <path fill="none" d="M221.2210863 125.8905043v-24.20810528"/>
        <path fill="rgb(9,153,123)" fill-rule="evenodd" d="M225.1487593 100.7298837v24.20810528c-1.28136847.31845287-2.56621898.6340624-3.88937122.95251531h-.03830178c-1.2465487.2843329-2.5279172.57150917-3.85106947.85868543v-24.20810527c1.32315227-.28433293 2.60452077-.57150916 3.85106947-.85868543h.03830178c1.32315224-.31560953 2.60800275-.63406244 3.88937122-.95251531z"/>
      </g>
      <path fill="none" d="M239.57430136 118.5518716V94.3124899"/>
      <path fill="rgb(9,153,123)" fill-rule="evenodd" d="M242.8033651 92.4387357v24.27065854c-.99047512.60562915-2.0467912 1.23969168-3.19757478 1.81120081 0 0-.03148896 0-.03148896.03127654-.99333784.5402326-2.04679151 1.04918864-3.16608582 1.58942122v-24.2109486c1.11643159-.5402326 2.17561038-1.04918864 3.16608582-1.62069777 1.15078327-.56866567 2.20423694-1.20557167 3.22906374-1.8737539v.00284315z"/>
    </g>
    <g>
      <path fill="rgb(16,186,151)" fill-rule="evenodd" d="M239.69042011 30.85012244v24.205262c0 5.30565215-3.93327456 10.29285193-10.9066788 14.6772654-.99047511.60562914-2.04679119 1.23969167-3.19757477 1.8112008 0 0-.03148896 0-.03148896.03127655-.99333784.54023259-2.04679152 1.04918863-3.16608582 1.58942122-3.74434018 1.74580425-8.06120927 3.3665017-12.79602457 4.79669642-1.05345367.318453-2.10976974.63406253-3.1975751.95251521h-.03148895c-1.02482712.284333-2.07828048.57150914-3.16608583.8586856-4.2272682 1.06994539-8.49604046 1.97105729-12.79602456 2.70116261-1.05345367.1876599-2.10976974.3810061-3.1975751.5402326h-.02862624c-1.05917879.15638303-2.08114319.34688607-3.16894854.47483603-4.12507198.60278567-8.37896284 1.08046517-12.79316216 1.46147126-1.05631607.09382995-2.10976943.19050304-3.19757478.2558996h-.03148896c-5.31070625.40032044-10.63346243.62317378-15.95924798.66818222-1.0591788.0284334-2.11263215.0284334-3.2004375.0284334h-.03148896c-1.08780535 0-2.11263246 0-3.16608582-.03127655-5.33724242-.04424305-10.67146873-.26709702-15.99359966-.66818254h-.02862624c-1.08780535-.06255309-2.11263246-.15922618-3.16894854-.2558996-4.27801502-.36000976-8.54429195-.8464346-12.79316216-1.4586278-1.08780503-.12794995-2.1441211-.318453-3.19757478-.47767918h-.03148896c-1.08780535-.15638335-2.11263246-.34972954-3.16894854-.54023259-4.29902744-.73015898-8.56684399-1.63127088-12.79316184-2.70116293-1.08780535-.284333-2.1756107-.56866567-3.1975751-.85299866h-.03148896c-1.08780535-.32129615-2.11263247-.63690568-3.16608582-.95535868-4.7348154-1.43019472-9.05168458-3.05089217-12.79602469-4.79669642-1.08834352-.4953018-2.15515148-1.0360157-3.19757488-1.62069777 0 0-.02862643 0-.02862643-.03127654-1.122157-.54023259-2.17561048-1.14301826-3.16894841-1.77992426-6.97340407-4.35029378-10.93816788-9.37161325-10.93816788-14.6772654v-24.205262h181.7636663z"/>
      <path fill="rgb(33,216,179)" fill-rule="evenodd" d="M239.69042011 30.85012244c0 5.30565247-3.93327456 10.29285193-10.9066788 14.61471231-1.02196407.66533908-2.07828046 1.29940162-3.22906373 1.87091075-.99333784.57150913-2.04679152 1.08046517-3.16608582 1.62069744-3.74434018 1.74864772-8.06120927 3.33522548-12.79602457 4.79669674-1.05345367.31845268-2.10976974.63690568-3.1975751.95251522h-.03148895c-1.02482712.28717614-2.07828048.5743526-3.16608583.85868527-4.2271792 1.07032383-8.49596692 1.97143888-12.79602456 2.70116294-1.05345367.19050304-2.10976974.38100608-3.1975751.54023258h-.02862624c-1.05917879.1592265-2.08114319.34972955-3.16894854.47483604-4.12507198.60562914-8.37896284 1.08046486-12.79316216 1.46147126-1.05631607.0966731-2.10976943.19050305-3.19757478.2558996h-.03148896c-5.3106529.40121745-10.6334397.62407205-15.95924798.66818223-1.0591788.02843339-2.11263215.02843339-3.2004375.02843339h-.03148896c-1.08780535 0-2.10976974 0-3.16608582-.0284334-5.33726515-.04334099-10.67152207-.26619622-15.99359966-.66818222h-.02862624c-1.08780535-.06539655-2.11263246-.1592265-3.16894854-.2558996-4.27802449-.36114475-8.54429605-.8485171-12.79316216-1.46147126-1.08780503-.1251065-2.1441211-.31560954-3.19757478-.47483604h-.03148896c-1.08780535-.1592265-2.11263246-.34972954-3.16894854-.54023258-4.29910161-.72977456-8.56693362-1.63088961-12.79316184-2.70116294-1.08780535-.28433268-2.1756107-.57150913-3.1975751-.85868527h-.03148896c-1.08780535-.31560954-2.11263247-.63406254-3.16608582-.95251522-4.7348154-1.43019472-9.05168458-3.04804902-12.79602469-4.79669674-1.11643169-.50895572-2.17561048-1.04918831-3.19757488-1.62069744 0 0-.02862643 0-.02862643-.0284334-1.122157-.54023258-2.17561048-1.14586172-3.16894841-1.7827674-6.97340407-4.35029379-10.93816788-9.3687698-10.93816788-14.67442226C57.92675382 13.8214235 98.64215861 0 148.82433149 0c50.1821732 0 90.86608862 13.8214235 90.86608862 30.85012244z"/>
      <path fill="rgb(16,186,151)" fill-rule="evenodd" d="M148.5409296 53.07642705c-.90459577 0-1.7633893 0-2.64794699-.02843307-5.16317618-.04342811-10.32350921-.25584531-15.4725981-.636906l-.39218237-.0341197h-.16030815c-.82157913-.05118017-1.60880659-.12510649-2.41034732-.19903312-4.19652128-.35043276-8.38164376-.8245296-12.54983706-1.42166464-.86165625-.10804664-1.46567445-.2075632-2.06682992-.30139284l-1.76338961-.2701163c-.63836987-.10236002-2.27866574-.4009094-2.27866574-.4009094-4.1033311-.6932744-8.1764512-1.55267552-12.20918237-2.57605644-.9647116-.25021298-2.00385167-.52601589-2.98287655-.79613218l-3.04299207-.90986545c-3.3500175-.9969429-6.6398108-2.1836058-9.85322519-3.5541616v-.03696315l-4.83787065-2.3372167-1.53724054-.85584212h-.06011555c-.23555138-.13967448-.46842152-.28376202-.69848548-.43218594-5.1699375-3.22717883-6.97054142-6.01364132-6.97054142-7.43530596 0-7.83621547 31.21428495-22.22914813 82.21803697-22.22914813 50.98371362 0 82.1865482 14.39293266 82.1865482 22.22914813 0 1.41597803-1.78629073 4.17969405-6.8188212 7.29882624-.81144063.54044374-1.65349373 1.03410207-2.52199083 1.4785311l-.46947357.25305645c-.80440345.46346249-1.66892242.8700585-2.5763809 1.30793138-3.1202836 1.4586278-7.05069544 2.92862914-11.60516419 4.33323362l-3.00577767.88711898c-.97902488.27295944-1.98953872.54876235-3.0286788.81887864-4.04491807 1.0235987-8.00681918 1.85953752-12.03456094 2.53909298-.88742009.1592265-1.69182354.30707976-2.4990894.43218626l-1.74335121.26727282c-.56394108.09098648-1.13074487.18481643-1.71758707.2558996-4.06495646.59141244-8.0841107 1.04918863-12.52979866 1.43303787-.92177176.08529986-1.80346673.16491311-2.71092522.2217799l-.55249051.0341197c-5.070806.3790792-10.1529019.59055015-15.23786116.63406253-1.08207992.0284334-1.98953872.03127654-2.90844777.03127654h-.509551z"/>
      <path fill="none" d="M72.03100746 71.5125741V35.86859845"/>
      <path fill="none" d="M72.03100746 102.7408591v-.03411969"/>
      <path fill="rgb(9,153,123)" fill-rule="evenodd" d="M75.26293404 48.95644294v24.20810547c-1.08931296-.49522983-2.15707732-1.03594438-3.2004375-1.62069777 0 0-.02862643 0-.02862643-.03127654-1.122157-.54023259-2.17561048-1.14301826-3.16894841-1.77992426V45.52454469c.99047531.63690569 2.04679142 1.23969168 3.16608576 1.77992395 0 .03127686.03148908.03127686.03148908.03127686 1.02482706.57150913 2.0811432 1.11174172 3.2004375 1.62069744z"/>
      <path fill="none" d="M91.21931921 78.91376004V54.7056549"/>
      <path fill="rgb(9,153,123)" fill-rule="evenodd" d="M94.45410839 55.56434017v24.20810546c-1.08780503-.28433299-2.17561038-.57150913-3.2004375-.85868559h-.03148896c-1.08780535-.31845268-2.11263247-.63406221-3.16608582-.95251521V53.75313968c1.05345335.31845268 2.07828047.63690568 3.16608582.95251522h.03148896c1.02482712.28717614 2.10976975.5743526 3.1975751.85868527h.0028624z"/>
      <path fill="none" d="M110.41335637 83.0109977v-24.205262"/>
      <path fill="rgb(9,153,123)" fill-rule="evenodd" d="M113.64242011 59.28057173v24.20810515c-1.08780503-.12794996-2.1441211-.318453-3.19757478-.47767919h-.03148896c-1.08780535-.15638335-2.11263246-.34972954-3.16894854-.54023259v-24.205262c1.0591788.19050305 2.0811432.3810061 3.16894854.5402326h.02862624c1.0591788.1592265 2.11263247.34972954 3.2004375.47483603z"/>
      <path fill="none" d="M129.6016681 85.20604774V60.99794259"/>
      <path fill="rgb(9,153,123)" fill-rule="evenodd" d="M132.83359455 61.21972218v24.20810514c-1.08780503-.06539655-2.1441211-.12794964-3.2004375-.22462305h-.02862624c-1.08780535-.06255309-2.11263246-.15922618-3.16894854-.2558996V60.742043c1.05631608.0966731 2.07828047.19050305 3.16608582.2558996h.03148896c1.0591788.09382963 2.11263247.15638303 3.2004375.22177959z"/>
      <path fill="none" d="M148.79284253 85.90266336V61.6945582"/>
      <path fill="rgb(9,153,123)" fill-rule="evenodd" d="M152.02189396 61.66612419v24.20524968c-1.05346156.03127844-2.10976375.03127844-3.1975653.03127844h-.03149938c-1.08780157 0-2.11263594 0-3.1660975-.03127844V61.66328356c1.05630218.03127844 2.07829593.03127844 3.1660975.03127844h.03149937c1.08780156 0 2.14413531 0 3.19756531-.02843781z"/>
      <path fill="none" d="M167.98401697 85.20604774V60.99794259"/>
      <path fill="rgb(9,153,123)" fill-rule="evenodd" d="M171.21308071 60.742043v24.20810514c-1.05631607.09382995-2.10976943.19050304-3.19757478.2558996h-.03148896c-1.05917879.09382994-2.08114319.15638303-3.16894854.22177958V61.21972218c1.08780535-.06539656 2.11263247-.12794996 3.16894854-.2217796h.02862624c1.08780535-.06539654 2.14698415-.1592265 3.2004375-.25589959z"/>
      <g>
        <path fill="none" d="M188.1970937 83.01099864V58.8057367"/>
        <path fill="rgb(9,153,123)" fill-rule="evenodd" d="M192.12475512 58.26549522V82.4707449c-1.28484625.19051125-2.5696925.38386313-3.89285562.54022375h-.03481344c-1.28831813.15923282-2.53140719.34974407-3.85453875.47766688V59.28054522c1.32316312-.12511375 2.5696925-.315625 3.85106687-.47482625h.03831688c1.32316312-.15923282 2.60800937-.34974407 3.89285562-.54022375h-.00003156z"/>
      </g>
      <g>
        <path fill="none" d="M207.20146251 78.91375989V54.7056546"/>
        <path fill="rgb(9,153,123)" fill-rule="evenodd" d="M211.12913552 53.7531393v24.20810527c-1.28136847.31845288-2.56621898.63406241-3.88937122.95251532h-.03830179c-1.24654869.2843329-2.5279172.57150916-3.85106946.85868543V55.56434004c1.32315227-.28433292 2.60452077-.57150916 3.85106946-.85868543h.0383018c1.32315223-.31560953 2.60800274-.63406244 3.88937121-.95251531z"/>
      </g>
      <path fill="none" d="M225.55467758 71.57512719v-24.2393817"/>
      <path fill="rgb(9,153,123)" fill-rule="evenodd" d="M228.78374132 45.46199129v24.27065855c-.99047512.60562914-2.0467912 1.23969167-3.19757478 1.8112008 0 0-.03148896 0-.03148896.03127655-.99333784.54023259-2.04679152 1.04918863-3.16608582 1.58942122V48.95359979c1.11643159-.54023258 2.17561038-1.04918863 3.16608582-1.62069776 1.15078327-.56866566 2.20423694-1.20557166 3.22906374-1.8737539v.00284316z"/>
    </g>
  </g>
</svg>