<svg width="18" height="18" viewBox="0 0 18 18" fill="none" xmlns="http://www.w3.org/2000/svg">
<path fill-rule="evenodd" clip-rule="evenodd" d="M0.292892 1.70711C-0.0976315 1.31658 -0.0976315 0.683417 0.292892 0.292893C0.683416 -0.0976311 1.31658 -0.0976311 1.70711 0.292893L8.97143 7.55721L16.2357 0.292893C16.6263 -0.0976311 17.2594 -0.0976311 17.65 0.292893C18.0405 0.683417 18.0405 1.31658 17.65 1.70711L10.3856 8.97143L17.65 16.2357C18.0405 16.6263 18.0405 17.2594 17.65 17.65C17.2594 18.0405 16.6263 18.0405 16.2357 17.65L8.97143 10.3856L1.70711 17.65C1.31658 18.0405 0.683417 18.0405 0.292893 17.65C-0.0976311 17.2594 -0.0976311 16.6263 0.292893 16.2357L7.55721 8.97143L0.292892 1.70711Z" fill="#B4E0FF"/>
</svg>
