<svg width="46" height="47" viewBox="0 0 46 47" fill="none" xmlns="http://www.w3.org/2000/svg">
<circle cx="23" cy="23.1353" r="23" fill="#3785B9" fill-opacity="0.08"/>
<path d="M12.8364 37.1161L15.0793 34.4148H12.9311V33.6874H16.1969V34.3239L13.9692 37.0214H16.2348V37.7526H12.8364V37.1161Z" fill="#B4E0FF"/>
<path d="M19.5882 37.7904C19.2473 37.7904 18.9391 37.7412 18.6638 37.6427C18.3885 37.5417 18.1587 37.4065 17.9743 37.2373C17.7924 37.0681 17.6396 36.866 17.5159 36.6311C17.3946 36.3962 17.3075 36.1487 17.2545 35.8886C17.2014 35.6259 17.1749 35.3468 17.1749 35.0513V32.2439H18.2471V35.0513C18.2471 35.2938 18.2698 35.5185 18.3153 35.7257C18.3633 35.9302 18.4365 36.1184 18.535 36.2902C18.636 36.4619 18.775 36.597 18.9518 36.6955C19.1311 36.794 19.3407 36.8433 19.5807 36.8433C19.8257 36.8433 20.0378 36.794 20.2171 36.6955C20.399 36.5945 20.5392 36.4569 20.6377 36.2826C20.7387 36.1083 20.812 35.9201 20.8574 35.7181C20.9054 35.5135 20.9294 35.2912 20.9294 35.0513V32.2439H21.994V35.0513C21.994 35.4377 21.9473 35.7926 21.8538 36.1159C21.7604 36.4392 21.6189 36.7284 21.4295 36.9835C21.2426 37.236 20.9913 37.4343 20.6756 37.5783C20.3624 37.7197 19.9999 37.7904 19.5882 37.7904Z" fill="#B4E0FF"/>
<path d="M26.6318 33.6874C26.5383 33.5838 26.3413 33.4677 26.0407 33.3388C25.7402 33.2075 25.4434 33.1418 25.1504 33.1418C24.8625 33.1418 24.644 33.1961 24.495 33.3047C24.346 33.4108 24.2715 33.5636 24.2715 33.7632C24.2715 33.8187 24.2765 33.8705 24.2866 33.9185C24.2993 33.964 24.3207 34.0069 24.351 34.0473C24.3839 34.0877 24.4154 34.1231 24.4458 34.1534C24.4786 34.1837 24.5266 34.214 24.5897 34.2443C24.6554 34.2746 24.7135 34.3011 24.764 34.3239C24.8145 34.3441 24.8878 34.3693 24.9837 34.3996C25.0822 34.4274 25.1656 34.4514 25.2338 34.4716C25.302 34.4893 25.4005 34.5146 25.5293 34.5474C25.7642 34.608 25.965 34.6686 26.1317 34.7293C26.3009 34.7873 26.4625 34.8619 26.6166 34.9528C26.7732 35.0412 26.8982 35.141 26.9917 35.2521C27.0851 35.3607 27.1596 35.4933 27.2152 35.6499C27.2708 35.804 27.2986 35.9795 27.2986 36.1765C27.2986 36.4619 27.243 36.7132 27.1319 36.9304C27.0233 37.1451 26.8717 37.3156 26.6772 37.4419C26.4853 37.5682 26.2706 37.6616 26.0332 37.7222C25.7958 37.7829 25.5369 37.8132 25.2565 37.8132C24.8448 37.8132 24.4356 37.7513 24.029 37.6275C23.6249 37.5012 23.2637 37.3257 22.9455 37.1009L23.419 36.1765C23.5504 36.3078 23.7992 36.4531 24.1654 36.6122C24.5342 36.7713 24.9029 36.8509 25.2717 36.8509C25.5621 36.8509 25.7819 36.8029 25.9309 36.7069C26.0824 36.6084 26.1582 36.4682 26.1582 36.2864C26.1582 36.1727 26.1317 36.0767 26.0786 35.9984C26.0281 35.9176 25.9296 35.8431 25.7831 35.7749C25.6392 35.7067 25.5129 35.6549 25.4043 35.6196C25.2957 35.5842 25.1113 35.5312 24.8511 35.4605C24.8335 35.4554 24.8196 35.4516 24.8095 35.4491C24.7994 35.4466 24.7867 35.4428 24.7716 35.4377C24.7564 35.4327 24.7425 35.4289 24.7299 35.4264C24.4546 35.3481 24.2248 35.2685 24.0404 35.1877C23.856 35.1043 23.6956 35.0046 23.5592 34.8884C23.4228 34.7722 23.3231 34.6371 23.2599 34.483C23.1993 34.3264 23.169 34.1433 23.169 33.9337C23.169 33.5699 23.2599 33.2555 23.4418 32.9903C23.6236 32.7251 23.8636 32.5281 24.1616 32.3993C24.4622 32.2705 24.8019 32.2061 25.1807 32.2061C25.8627 32.2061 26.5042 32.4094 27.1053 32.816L26.6318 33.6874Z" fill="#B4E0FF"/>
<path d="M28.3864 37.7526V32.2439H30.3868C30.8238 32.2439 31.2165 32.3159 31.5651 32.4599C31.9161 32.6013 32.2015 32.7983 32.4213 33.0509C32.6435 33.301 32.8128 33.5914 32.9289 33.9223C33.0451 34.2506 33.1032 34.6068 33.1032 34.9907C33.1032 35.8267 32.8557 36.496 32.3607 36.9986C31.8681 37.5012 31.2102 37.7526 30.3868 37.7526H28.3864ZM30.3868 33.1835H29.4548V36.813H30.3868C30.8995 36.813 31.2999 36.6438 31.5878 36.3053C31.8782 35.9643 32.0235 35.5261 32.0235 34.9907C32.0235 34.4476 31.8782 34.0107 31.5878 33.6798C31.2973 33.3489 30.897 33.1835 30.3868 33.1835Z" fill="#B4E0FF"/>
<path d="M33.1194 17.4832L30.0834 14.4807L28.0594 16.4824L29.0714 17.4832L22.9993 23.4881L20.9753 21.4865L21.9873 20.4857L22.4933 20.9861V17.9836H19.4573L19.9633 18.484L16.9272 21.4865L22.9993 27.4915L33.1194 17.4832Z" fill="#3377FF"/>
<path d="M29.0723 13.4798L23.0002 7.47485L12.8801 17.4831L15.9162 20.4856L17.9402 18.4839L16.9282 17.4831L23.0002 11.4782L25.0243 13.4798L24.0122 14.4806L23.5062 13.9802V16.9827H26.5423L26.0363 16.4823L29.0723 13.4798Z" fill="#2AD4B7"/>
<g clip-path="url(#clip0_1481_100)">
<path d="M23 46.1353C35.7025 46.1353 46 35.8378 46 23.1353C46 10.4327 35.7025 0.135254 23 0.135254C10.2975 0.135254 0 10.4327 0 23.1353C0 35.8378 10.2975 46.1353 23 46.1353Z" fill="#102336"/>
<path d="M23.76 12.8313V15.0766C24.7213 15.1359 25.6085 15.3286 26.4219 15.6546C27.2352 15.9807 27.9524 16.3734 28.5735 16.8329L27.4423 18.8781C27.3092 18.7299 27.1132 18.5706 26.8544 18.4001C26.5956 18.2297 26.2962 18.0667 25.9561 17.911C25.6159 17.7554 25.2425 17.622 24.8359 17.5109C24.4292 17.3997 24.0114 17.3293 23.5826 17.2997V21.9015L24.0041 21.9904C24.8026 22.1831 25.5235 22.398 26.1668 22.6351C26.8101 22.8722 27.3535 23.1612 27.7972 23.5021C28.2408 23.843 28.5846 24.2617 28.8286 24.7582C29.0726 25.2546 29.1946 25.8586 29.1946 26.57C29.1946 27.3555 29.0542 28.0261 28.7732 28.5819C28.4922 29.1376 28.104 29.6008 27.6086 29.9713C27.1132 30.3418 26.5365 30.6197 25.8784 30.8049C25.2204 30.9902 24.5142 31.0902 23.76 31.1051V33.4393H22.6066V31.0606C21.5418 30.9865 20.5289 30.7753 19.5676 30.427C18.6064 30.0787 17.7265 29.5934 16.928 28.9709L18.0593 26.8367C18.2219 27.0146 18.4585 27.2073 18.7691 27.4147C19.0796 27.6222 19.4419 27.8223 19.856 28.015C20.2701 28.2076 20.7248 28.3781 21.2202 28.5263C21.7156 28.6745 22.2295 28.7782 22.7619 28.8375V24.2357L22.626 24.194L22.4846 24.1579C22.3885 24.1357 22.296 24.1098 22.2073 24.0801C21.4235 23.8726 20.7396 23.654 20.1555 23.4243C19.5713 23.1946 19.087 22.9167 18.7025 22.5906C18.3181 22.2646 18.026 21.883 17.8264 21.4458C17.6267 21.0085 17.5269 20.4787 17.5269 19.8562C17.5269 19.13 17.6526 18.4853 17.904 17.9222C18.1554 17.359 18.5103 16.8736 18.9687 16.466C19.4272 16.0585 19.9632 15.7398 20.5769 15.5101C21.1906 15.2804 21.8672 15.1359 22.6066 15.0766V12.8313H23.76ZM23.552 24.362V28.778C24.4964 28.7631 25.2232 28.5847 25.7323 28.2427C26.2414 27.9007 26.496 27.4026 26.496 26.7484C26.496 26.0942 26.2377 25.5998 25.7212 25.2652C25.2047 24.9307 24.4817 24.6296 23.552 24.362ZM22.816 17.2473C21.8937 17.2921 21.2134 17.5051 20.775 17.8862C20.3365 18.2672 20.1173 18.7791 20.1173 19.4217C20.1173 20.0493 20.3403 20.5201 20.7863 20.8339C21.2323 21.1477 21.9089 21.4242 22.816 21.6633V17.2473Z" fill="white"/>
</g>
<defs>
<clipPath id="clip0_1481_100">
<rect width="46" height="46" fill="white" transform="translate(0 0.135254)"/>
</clipPath>
</defs>
</svg>
