<?xml version="1.0" encoding="UTF-8"?>
<svg width="11" height="6" viewBox="0 0 11 6" fill="none" xmlns="http://www.w3.org/2000/svg">
<path d="M8.02072 0.126589C7.85331 0.29479 7.85396 0.566847 8.02216 0.734253L9.52954 2.23438L0.429688 2.23438C0.192371 2.23438 0 2.42675 0 2.66406C0 2.90138 0.192371 3.09375 0.429688 3.09375L9.52957 3.09375L8.02214 4.59388C7.85394 4.76128 7.85329 5.03334 8.0207 5.20154C8.18812 5.36976 8.46018 5.37039 8.62838 5.203L10.8736 2.96863C10.8737 2.9685 10.8738 2.96835 10.874 2.96822C11.0417 2.80081 11.0423 2.52788 10.874 2.35991C10.8738 2.35978 10.8737 2.35963 10.8736 2.3595L8.6284 0.125129C8.46023 -0.0422349 8.18815 -0.0416546 8.02072 0.126589Z" fill="#2AD4B7"/>
</svg>
