<svg width="16" height="13" viewBox="0 0 16 13" fill="#B4E0FF" xmlns="http://www.w3.org/2000/svg">
<path d="M13.5655 1.02957C13.5611 1.02095 13.5537 1.0142 13.5447 1.01052C12.5074 0.534566 11.4126 0.195171 10.288 0.000832484C10.2777 -0.00106714 10.2672 0.000303272 10.2578 0.00474882C10.2484 0.00919436 10.2406 0.0164887 10.2356 0.0255945C10.0866 0.29615 9.95124 0.574056 9.83018 0.858251C8.61784 0.674218 7.38466 0.674218 6.17232 0.858251C6.05046 0.573334 5.91297 0.295359 5.76048 0.0255945C5.75525 0.0166866 5.74746 0.00956024 5.73812 0.00514357C5.72878 0.000726907 5.71833 -0.000775367 5.70813 0.000832484C4.58333 0.194763 3.48853 0.534184 2.4513 1.01055C2.44242 1.01431 2.43493 1.02074 2.42986 1.02895C0.355589 4.12659 -0.21263 7.14807 0.0661189 10.1321C0.0669031 10.1394 0.06915 10.1465 0.0727261 10.153C0.0763022 10.1594 0.0811344 10.165 0.0869353 10.1695C1.29476 11.0639 2.64573 11.7465 4.08219 12.1883C4.0923 12.1913 4.10311 12.1912 4.11314 12.1879C4.12318 12.1846 4.13197 12.1783 4.13832 12.1699C4.44684 11.7501 4.72022 11.3056 4.95566 10.8409C4.9589 10.8345 4.96074 10.8275 4.96108 10.8204C4.96142 10.8132 4.96024 10.8061 4.95762 10.7994C4.955 10.7928 4.951 10.7868 4.94588 10.7818C4.94076 10.7768 4.93465 10.7729 4.92793 10.7704C4.49684 10.6055 4.0795 10.4067 3.67982 10.1758C3.67256 10.1715 3.66646 10.1655 3.66206 10.1584C3.65767 10.1512 3.65511 10.143 3.65461 10.1346C3.65411 10.1262 3.65569 10.1178 3.65921 10.1102C3.66273 10.1025 3.66808 10.0958 3.67478 10.0907C3.75865 10.0279 3.84257 9.96255 3.92265 9.89654C3.92976 9.89068 3.93837 9.88692 3.94751 9.88569C3.95664 9.88446 3.96594 9.88581 3.97435 9.88957C6.59284 11.0846 9.4277 11.0846 12.0152 9.88957C12.0236 9.88557 12.033 9.88403 12.0423 9.88516C12.0516 9.88628 12.0603 9.89001 12.0675 9.89591C12.1477 9.96193 12.2315 10.0279 12.316 10.0907C12.3228 10.0958 12.3282 10.1024 12.3318 10.11C12.3353 10.1177 12.337 10.126 12.3365 10.1345C12.3361 10.1429 12.3336 10.151 12.3293 10.1582C12.3249 10.1655 12.3189 10.1715 12.3116 10.1758C11.9129 10.4086 11.4951 10.6073 11.0629 10.7698C11.0562 10.7724 11.0501 10.7763 11.045 10.7814C11.0399 10.7865 11.036 10.7926 11.0334 10.7993C11.0309 10.806 11.0297 10.8131 11.0301 10.8203C11.0305 10.8275 11.0324 10.8345 11.0357 10.8409C11.2751 11.303 11.5481 11.747 11.8524 12.1692C11.8586 12.1778 11.8673 12.1843 11.8774 12.1878C11.8875 12.1912 11.8984 12.1913 11.9086 12.1882C13.3476 11.7479 14.7009 11.0652 15.9103 10.1695C15.9161 10.1653 15.921 10.1597 15.9246 10.1534C15.9282 10.1471 15.9304 10.14 15.9311 10.1328C16.2648 6.68287 15.3724 3.68615 13.5655 1.02957ZM5.34671 8.31515C4.55835 8.31515 3.90877 7.59169 3.90877 6.7032C3.90877 5.8147 4.54575 5.09119 5.34671 5.09119C6.15392 5.09119 6.79722 5.82099 6.78462 6.70314C6.78462 7.59169 6.14761 8.31515 5.34671 8.31515ZM10.6632 8.31515C9.87486 8.31515 9.22528 7.59169 9.22528 6.7032C9.22528 5.8147 9.86226 5.09119 10.6632 5.09119C11.4705 5.09119 12.1137 5.82099 12.1011 6.70314C12.1011 7.59169 11.4705 8.31515 10.6632 8.31515Z" />
</svg>
