<svg width="209" height="32" viewBox="0 0 209 32" fill="none" xmlns="http://www.w3.org/2000/svg">
<path d="M32.1035 16.0002L27.2879 11.2002L24.0775 14.4002L25.6827 16.0002L16.0516 25.6002L12.8412 22.4002L14.4464 20.8002L15.249 21.6002V16.8002H10.4334L11.236 17.6002L6.42039 22.4002L16.0516 32.0002L32.1035 16.0002Z" fill="#3377FF"/>
<path d="M25.6831 9.6L16.052 0L0 16L4.81558 20.8L8.02598 17.6L6.42078 16L16.052 6.4L19.2623 9.6L17.6571 11.2L16.8545 10.4V15.2H21.6701L20.8675 14.4L25.6831 9.6Z" fill="#2AD4B7"/>
<path fill-rule="evenodd" clip-rule="evenodd" d="M98.0189 21.423C97.2257 21.423 96.502 21.2678 95.8486 20.9573C95.1958 20.6468 94.638 20.2412 94.1758 19.7404C93.7136 19.2296 93.3518 18.6488 93.091 17.9978C92.8395 17.3468 92.7138 16.6758 92.7138 15.9847C92.7138 15.2836 92.8448 14.6076 93.1057 13.9566C93.3772 13.3056 93.7491 12.7347 94.2213 12.2439C94.7035 11.7432 95.2714 11.3476 95.9241 11.0571C96.5776 10.7566 97.2906 10.6064 98.0644 10.6064C98.8583 10.6064 99.582 10.7616 100.235 11.0721C100.888 11.3826 101.445 11.7932 101.908 12.304C102.37 12.8148 102.727 13.3957 102.978 14.0467C103.229 14.6977 103.355 15.3587 103.355 16.0298C103.355 16.7308 103.219 17.4068 102.948 18.0578C102.687 18.7088 102.32 19.2848 101.847 19.7855C101.375 20.2763 100.813 20.6719 100.159 20.9724C99.5064 21.2728 98.7928 21.423 98.0189 21.423ZM95.2312 16.0147C95.2312 16.4254 95.2914 16.826 95.4118 17.2166C95.5322 17.5972 95.7081 17.9377 95.9395 18.2382C96.1803 18.5386 96.4766 18.779 96.8284 18.9592C97.1802 19.1395 97.5822 19.2296 98.0343 19.2296C98.5065 19.2296 98.9185 19.1345 99.2703 18.9442C99.6221 18.7539 99.9131 18.5086 100.144 18.2081C100.375 17.8976 100.546 17.5521 100.657 17.1715C100.777 16.7809 100.837 16.3853 100.837 15.9847C100.837 15.574 100.777 15.1784 100.657 14.7978C100.536 14.4072 100.355 14.0667 100.114 13.7763C99.8729 13.4758 99.5766 13.2404 99.2248 13.0702C98.8831 12.8899 98.4864 12.7998 98.0343 12.7998C97.5621 12.7998 97.1501 12.8949 96.7983 13.0852C96.4565 13.2655 96.1656 13.5058 95.9241 13.8063C95.6934 14.1068 95.5175 14.4523 95.3964 14.8429C95.2861 15.2235 95.2312 15.6141 95.2312 16.0147ZM78.8455 21.3329V10.6665H81.3169V21.3329H78.8455ZM83.1622 19.485L88.7389 12.8298H83.3735V10.6665H91.5874V12.5144L86.2823 19.1696H91.6476V21.3329H83.1622V19.485ZM107.641 21.3329V15.2335L112.569 21.3329H114.558V10.6665H112.086V16.9311L107.098 10.6665H105.169V21.3329H107.641ZM68.5139 10.6665V21.3329H70.9854V17.8926H72.5987L74.648 21.3329H77.4363L75.0854 17.3668C75.3562 17.2166 75.5977 17.0363 75.8084 16.826C76.0298 16.6056 76.2157 16.3602 76.3662 16.0898C76.5173 15.8194 76.6324 15.534 76.7133 15.2335C76.7936 14.923 76.8337 14.6026 76.8337 14.272C76.8337 13.8314 76.7434 13.3957 76.5621 12.965C76.3916 12.5344 76.1501 12.1488 75.8391 11.8082C75.5275 11.4677 75.1556 11.1923 74.7235 10.982C74.3015 10.7716 73.8393 10.6665 73.337 10.6665H68.5139ZM73.2467 15.7443H70.9854V12.8298H73.1712C73.4528 12.8298 73.7136 12.96 73.955 13.2204C74.1958 13.4808 74.3169 13.8314 74.3169 14.272C74.3169 14.7027 74.2112 15.0582 73.9999 15.3387C73.7892 15.6091 73.5377 15.7443 73.2467 15.7443ZM54.2089 10.6665V21.3329H51.7371V16.9612H47.4718V21.3329H45V10.6665H47.4718V14.7978H51.7371V10.6665H54.2089ZM59.1783 20.9573C59.8314 21.2678 60.5549 21.423 61.3486 21.423C62.1223 21.423 62.8357 21.2728 63.4888 20.9724C64.142 20.6719 64.7046 20.2763 65.1769 19.7855C65.6492 19.2848 66.0159 18.7088 66.2771 18.0578C66.5485 17.4068 66.6841 16.7308 66.6841 16.0298C66.6841 15.3587 66.5585 14.6977 66.3073 14.0467C66.0561 13.3957 65.6994 12.8148 65.2372 12.304C64.775 11.7932 64.2173 11.3826 63.5642 11.0721C62.9111 10.7616 62.1876 10.6064 61.3939 10.6064C60.6202 10.6064 59.9068 10.7566 59.2537 11.0571C58.6006 11.3476 58.0328 11.7432 57.5506 12.2439C57.0783 12.7347 56.7065 13.3056 56.4352 13.9566C56.174 14.6076 56.0433 15.2836 56.0433 15.9847C56.0433 16.6758 56.1689 17.3468 56.4202 17.9978C56.6814 18.6488 57.0431 19.2296 57.5053 19.7404C57.9675 20.2412 58.5252 20.6468 59.1783 20.9573ZM58.7412 17.2166C58.6206 16.826 58.5604 16.4254 58.5604 16.0147C58.5604 15.6141 58.6156 15.2235 58.7262 14.8429C58.8467 14.4523 59.0226 14.1068 59.2537 13.8063C59.4948 13.5058 59.7862 13.2655 60.1278 13.0852C60.4795 12.8949 60.8914 12.7998 61.3637 12.7998C61.8159 12.7998 62.2128 12.8899 62.5544 13.0702C62.9061 13.2404 63.2025 13.4758 63.4436 13.7763C63.6848 14.0667 63.8657 14.4072 63.9862 14.7978C64.1068 15.1784 64.1671 15.574 64.1671 15.9847C64.1671 16.3853 64.1068 16.7809 63.9862 17.1715C63.8757 17.5521 63.7049 17.8976 63.4738 18.2081C63.2427 18.5086 62.9513 18.7539 62.5996 18.9442C62.248 19.1345 61.836 19.2296 61.3637 19.2296C60.9116 19.2296 60.5097 19.1395 60.158 18.9592C59.8063 18.779 59.5099 18.5386 59.2687 18.2382C59.0376 17.9377 58.8618 17.5972 58.7412 17.2166Z" fill="white"/>
<path fill-rule="evenodd" clip-rule="evenodd" d="M148.288 21.4198C147.494 21.4198 146.771 21.2646 146.118 20.9542C145.465 20.6438 144.907 20.2383 144.445 19.7376C143.983 19.227 143.622 18.6463 143.36 17.9955C143.11 17.3447 142.984 16.6739 142.984 15.983C142.984 15.2822 143.114 14.6064 143.376 13.9556C143.647 13.3047 144.018 12.734 144.491 12.2434C144.973 11.7428 145.54 11.3473 146.193 11.057C146.846 10.7566 147.559 10.6064 148.332 10.6064C149.126 10.6064 149.849 10.7616 150.502 11.072C151.156 11.3824 151.713 11.7929 152.175 12.3035C152.637 12.8141 152.994 13.3948 153.244 14.0456C153.496 14.6964 153.622 15.3572 153.622 16.0281C153.622 16.729 153.486 17.4048 153.214 18.0556C152.953 18.7064 152.587 19.2821 152.115 19.7827C151.642 20.2733 151.08 20.6688 150.427 20.9692C149.774 21.2696 149.061 21.4198 148.288 21.4198ZM145.5 16.0131C145.5 16.4236 145.56 16.8241 145.681 17.2146C145.802 17.595 145.977 17.9354 146.208 18.2358C146.449 18.5362 146.745 18.7765 147.097 18.9567C147.449 19.1369 147.85 19.227 148.302 19.227C148.775 19.227 149.187 19.1319 149.538 18.9417C149.889 18.7514 150.181 18.5062 150.412 18.2058C150.643 17.8954 150.814 17.55 150.924 17.1695C151.045 16.779 151.105 16.3835 151.105 15.983C151.105 15.5725 151.045 15.177 150.924 14.7966C150.804 14.4061 150.623 14.0657 150.382 13.7753C150.141 13.475 149.845 13.2396 149.493 13.0694C149.151 12.8892 148.754 12.7991 148.302 12.7991C147.83 12.7991 147.419 12.8942 147.067 13.0844C146.725 13.2647 146.434 13.505 146.193 13.8054C145.962 14.1057 145.786 14.4512 145.666 14.8416C145.555 15.2221 145.5 15.6126 145.5 16.0131ZM122.584 10.6664V21.3296H125.056V17.8904H127.225C127.738 17.8904 128.205 17.7902 128.627 17.59C129.048 17.3898 129.405 17.1194 129.696 16.779C129.998 16.4386 130.229 16.0531 130.389 15.6226C130.56 15.192 130.645 14.7415 130.645 14.2709C130.645 13.8304 130.555 13.3948 130.374 12.9643C130.204 12.5338 129.962 12.1483 129.651 11.8079C129.35 11.4674 128.983 11.1921 128.551 10.9818C128.129 10.7716 127.662 10.6664 127.15 10.6664H122.584ZM127.074 15.7427H125.056V12.8291H126.984C127.124 12.8291 127.266 12.8592 127.406 12.9192C127.546 12.9693 127.672 13.0544 127.783 13.1746C127.893 13.2947 127.979 13.4449 128.039 13.6251C128.109 13.8054 128.144 14.0206 128.144 14.2709C128.144 14.7515 128.039 15.117 127.828 15.3672C127.617 15.6176 127.366 15.7427 127.074 15.7427ZM132.784 10.6664V21.3296H135.255V17.8904H136.867L138.917 21.3296H141.704L139.353 17.3647C139.625 17.2146 139.866 17.0343 140.076 16.824C140.298 16.6038 140.484 16.3585 140.634 16.0882C140.785 15.8178 140.9 15.5324 140.981 15.2321C141.061 14.9217 141.101 14.6013 141.101 14.2709C141.101 13.8304 141.011 13.3948 140.83 12.9643C140.66 12.5338 140.418 12.1483 140.106 11.8079C139.795 11.4674 139.424 11.1921 138.992 10.9818C138.57 10.7716 138.108 10.6664 137.606 10.6664H132.784ZM137.515 15.7427H135.255V12.8291H137.44C137.721 12.8291 137.982 12.9593 138.224 13.2196C138.464 13.4799 138.585 13.8304 138.585 14.2709C138.585 14.7014 138.479 15.0569 138.269 15.3372C138.058 15.6076 137.806 15.7427 137.515 15.7427ZM160.262 12.8291H163.516V10.6664H154.521V12.8291H157.791V21.3296H160.262V12.8291ZM169.523 21.4198C168.729 21.4198 168.006 21.2646 167.353 20.9542C166.701 20.6438 166.143 20.2383 165.681 19.7376C165.218 19.227 164.857 18.6463 164.596 17.9955C164.345 17.3447 164.219 16.6739 164.219 15.983C164.219 15.2822 164.35 14.6064 164.611 13.9556C164.882 13.3047 165.254 12.734 165.726 12.2434C166.208 11.7428 166.775 11.3473 167.428 11.057C168.082 10.7566 168.795 10.6064 169.568 10.6064C170.362 10.6064 171.085 10.7616 171.737 11.072C172.391 11.3824 172.948 11.7929 173.41 12.3035C173.872 12.8141 174.229 13.3948 174.48 14.0456C174.731 14.6964 174.857 15.3572 174.857 16.0281C174.857 16.729 174.721 17.4048 174.45 18.0556C174.189 18.7064 173.822 19.2821 173.35 19.7827C172.878 20.2733 172.315 20.6688 171.663 20.9692C171.01 21.2696 170.296 21.4198 169.523 21.4198ZM166.735 16.0131C166.735 16.4236 166.796 16.8241 166.916 17.2146C167.037 17.595 167.213 17.9354 167.444 18.2358C167.684 18.5362 167.981 18.7765 168.332 18.9567C168.684 19.1369 169.086 19.227 169.538 19.227C170.01 19.227 170.422 19.1319 170.774 18.9417C171.125 18.7514 171.416 18.5062 171.647 18.2058C171.879 17.8954 172.049 17.55 172.16 17.1695C172.28 16.779 172.34 16.3835 172.34 15.983C172.34 15.5725 172.28 15.177 172.16 14.7966C172.039 14.4061 171.859 14.0657 171.617 13.7753C171.376 13.475 171.08 13.2396 170.728 13.0694C170.386 12.8892 169.99 12.7991 169.538 12.7991C169.066 12.7991 168.654 12.8942 168.302 13.0844C167.961 13.2647 167.67 13.505 167.428 13.8054C167.197 14.1057 167.022 14.4512 166.901 14.8416C166.791 15.2221 166.735 15.6126 166.735 16.0131ZM176.787 14.0006C176.546 14.6314 176.425 15.2672 176.425 15.908C176.425 16.5888 176.551 17.2596 176.802 17.9204C177.063 18.5812 177.425 19.172 177.887 19.6926C178.359 20.2132 178.917 20.6338 179.559 20.9542C180.212 21.2646 180.925 21.4198 181.699 21.4198C182.141 21.4198 182.593 21.3647 183.055 21.2546C183.517 21.1444 183.954 20.9842 184.366 20.774C184.778 20.5637 185.14 20.3034 185.451 19.993C185.772 19.6826 186.013 19.3322 186.174 18.9417L184.155 17.7552C184.045 18.0256 183.899 18.2558 183.718 18.4461C183.537 18.6263 183.336 18.7765 183.115 18.8966C182.904 19.0068 182.678 19.0919 182.437 19.152C182.206 19.202 181.98 19.227 181.759 19.227C181.327 19.227 180.935 19.1419 180.584 18.9717C180.242 18.7915 179.946 18.5512 179.695 18.2508C179.454 17.9504 179.268 17.605 179.137 17.2146C179.007 16.8241 178.941 16.4186 178.941 15.998C178.941 15.6076 178.997 15.2221 179.107 14.8416C179.218 14.4612 179.388 14.1208 179.62 13.8204C179.85 13.52 180.142 13.2747 180.494 13.0844C180.845 12.8942 181.257 12.7991 181.729 12.7991C181.95 12.7991 182.176 12.8242 182.407 12.8742C182.638 12.9142 182.864 12.9944 183.085 13.1145C183.306 13.2246 183.507 13.3748 183.688 13.565C183.879 13.7453 184.035 13.9756 184.155 14.2559L186.053 12.9343C185.692 12.2434 185.14 11.6827 184.396 11.2522C183.663 10.8217 182.794 10.6064 181.789 10.6064C180.945 10.6064 180.192 10.7616 179.529 11.072C178.866 11.3824 178.303 11.7878 177.842 12.2885C177.38 12.7891 177.028 13.3598 176.787 14.0006ZM192.765 21.4198C191.971 21.4198 191.248 21.2646 190.595 20.9542C189.942 20.6438 189.385 20.2383 188.922 19.7376C188.46 19.227 188.099 18.6463 187.838 17.9955C187.587 17.3447 187.461 16.6739 187.461 15.983C187.461 15.2822 187.591 14.6064 187.853 13.9556C188.124 13.3047 188.496 12.734 188.968 12.2434C189.45 11.7428 190.017 11.3473 190.67 11.057C191.324 10.7566 192.037 10.6064 192.81 10.6064C193.604 10.6064 194.327 10.7616 194.979 11.072C195.633 11.3824 196.19 11.7929 196.652 12.3035C197.114 12.8141 197.471 13.3948 197.722 14.0456C197.973 14.6964 198.099 15.3572 198.099 16.0281C198.099 16.729 197.963 17.4048 197.691 18.0556C197.431 18.7064 197.064 19.2821 196.592 19.7827C196.12 20.2733 195.557 20.6688 194.904 20.9692C194.252 21.2696 193.538 21.4198 192.765 21.4198ZM189.977 16.0131C189.977 16.4236 190.037 16.8241 190.158 17.2146C190.279 17.595 190.455 17.9354 190.685 18.2358C190.926 18.5362 191.223 18.7765 191.574 18.9567C191.926 19.1369 192.327 19.227 192.78 19.227C193.252 19.227 193.664 19.1319 194.016 18.9417C194.367 18.7514 194.658 18.5062 194.889 18.2058C195.12 17.8954 195.291 17.55 195.401 17.1695C195.522 16.779 195.582 16.3835 195.582 15.983C195.582 15.5725 195.522 15.177 195.401 14.7966C195.281 14.4061 195.1 14.0657 194.859 13.7753C194.618 13.475 194.322 13.2396 193.97 13.0694C193.628 12.8892 193.232 12.7991 192.78 12.7991C192.307 12.7991 191.896 12.8942 191.544 13.0844C191.202 13.2647 190.912 13.505 190.67 13.8054C190.439 14.1057 190.263 14.4512 190.143 14.8416C190.033 15.2221 189.977 15.6126 189.977 16.0131ZM200.541 10.6064V21.2696H208.195V19.1069H203.012V10.6064H200.541Z" fill="white"/>
</svg>
